<?xml version="1.0" encoding="UTF-8"?><svg id="Layer_2" xmlns="http://www.w3.org/2000/svg" viewBox="0 0 197.96 201.07"><defs><style>.cls-1{stroke:#003153;}.cls-1,.cls-2{fill:none;stroke-linecap:round;stroke-linejoin:round;stroke-width:5.07px;}.cls-2{stroke:#457ff2;}</style></defs><g id="Layer_1-2"><path class="cls-1" d="M195.41,13.81v22.28H2.55V13.81C2.55,7.57,7.58,2.53,13.79,2.53h170.35c6.24,0,11.27,5.04,11.27,11.27Z"/><path class="cls-1" d="M195.42,36.09v127.87c0,6.25-5.04,11.29-11.29,11.29h-12.44"/><path class="cls-1" d="M42.03,175.25H13.79c-6.22,0-11.25-5.04-11.25-11.29V36.09"/><line class="cls-1" x1="25.66" y1="19.31" x2="28.64" y2="19.31"/><line class="cls-1" x1="173.49" y1="24.13" x2="163.86" y2="14.5"/><line class="cls-1" x1="163.86" y1="24.13" x2="173.49" y2="14.5"/><line class="cls-1" x1="44.16" y1="19.31" x2="47.14" y2="19.31"/><line class="cls-1" x1="62.67" y1="19.31" x2="65.64" y2="19.31"/><polygon class="cls-1" points="168.46 189.62 159.55 198.53 144.01 182.99 133.75 197.06 116.53 146.58 166.97 163.82 152.92 174.08 168.46 189.62"/><path class="cls-2" d="M157.1,149.73c2.33-6.52,3.62-13.55,3.62-20.92,0-17.13-6.96-32.68-18.18-43.86-10.95-10.91-25.89-17.77-42.51-18.08-.41-.03-.84-.03-1.28-.03s-.84,0-1.28.03c-16.59.3-31.6,7.16-42.51,18.08-11.25,11.19-18.18,26.73-18.18,43.86s6.93,32.64,18.18,43.86c10.91,10.91,25.92,17.74,42.51,18.08.44,0,.84.03,1.28.03.51,0,1.01-.03,1.49-.03,6.79-.14,13.35-1.42,19.43-3.58"/><path class="cls-2" d="M54.94,84.95c4.23,4.23,9.08,7.84,14.41,10.71,8.74,4.72,18.77,7.4,29.39,7.4s20.65-2.67,29.39-7.4c5.32-2.86,10.17-6.48,14.41-10.71"/><path class="cls-2" d="M108.81,155.38c-3.28-.54-6.62-.81-10.07-.81-10.61,0-20.65,2.67-29.4,7.4-5.31,2.87-10.17,6.49-14.4,10.71"/><path class="cls-2" d="M117.53,180.96c-5,5.78-10.95,9.29-17.3,9.8-.47,0-.98.03-1.49.03-.44,0-.84-.03-1.28-.03-11.83-.78-22.17-12.06-28.12-28.79-3.45-9.56-5.41-20.95-5.41-33.15s1.96-23.59,5.41-33.15c5.95-16.73,16.29-28.01,28.12-28.79.44-.03.84-.03,1.28-.03s.88,0,1.28.03c11.86.78,22.17,12.06,28.12,28.79,3.41,9.56,5.41,20.95,5.41,33.15,0,4.33-.24,8.55-.74,12.6"/><line class="cls-2" x1="98.74" y1="66.82" x2="98.74" y2="190.79"/><line class="cls-2" x1="160.72" y1="128.81" x2="36.75" y2="128.81"/></g></svg>