<?xml version="1.0" encoding="UTF-8"?><svg id="Layer_2" xmlns="http://www.w3.org/2000/svg" viewBox="0 0 296.38 233.35"><defs><style>.cls-1{stroke:#003153;}.cls-1,.cls-2{fill:none;stroke-linecap:round;stroke-linejoin:round;stroke-width:6.81px;}.cls-2{stroke:#457ff2;}</style></defs><g id="Layer_1-2"><path class="cls-2" d="M212.57,149.33h19.63c33.54,0,60.78,27.23,60.78,60.78v19.83h-141.18v-19.83c0-33.54,27.23-60.78,60.78-60.78Z"/><circle class="cls-2" cx="222.38" cy="114.33" r="35" transform="translate(60.02 304.5) rotate(-76.72)"/><path class="cls-1" d="M138.42,194.14H22.89c-10.77,0-19.48-8.76-19.48-19.53V22.89C3.41,12.11,12.11,3.41,22.89,3.41h202.11c10.77,0,19.48,8.71,19.48,19.48v46.2"/><polyline class="cls-1" points="138.42 194.14 103.38 194.14 96.58 229.93 136.7 229.93"/><polyline class="cls-1" points="136.7 229.93 96.58 229.93 78.51 229.93"/><line class="cls-1" x1="153.67" y1="162.38" x2="3.41" y2="162.38"/><line class="cls-1" x1="117.95" y1="177.4" x2="129.96" y2="177.4"/><polyline class="cls-1" points="86.93 130.6 86.93 130.65 86.93 162.36"/><path class="cls-1" d="M26.87,162.36v-39.14c0-10.38,8.39-18.72,18.72-18.72h33.65c7.04,0,13.63,3.54,17.52,9.44l11.93,18.27c.55.85,1.5,1.35,2.5,1.35h14.88c4.64,0,8.89,3.3,9.29,7.94.2,2.65-.75,5.14-2.5,6.84-1.6,1.6-3.74,2.55-6.14,2.55h-21.92c-2.95,0-5.69-1.5-7.34-3.99l-10.53-16.23v-.05"/><line class="cls-1" x1="43.55" y1="162.36" x2="43.55" y2="130.95"/><circle class="cls-1" cx="63.29" cy="75.07" r="16.98" transform="translate(-34.55 66.74) rotate(-45)"/><line class="cls-1" x1="135.35" y1="141.49" x2="159.12" y2="75.69"/><line class="cls-1" x1="117.95" y1="37.35" x2="207.81" y2="37.35"/><line class="cls-1" x1="117.25" y1="59.73" x2="207.81" y2="59.73"/><line class="cls-1" x1="117.95" y1="82.11" x2="135.38" y2="82.11"/><line class="cls-1" x1="117.95" y1="104.49" x2="130.74" y2="104.49"/><line class="cls-1" x1="162.88" y1="104.49" x2="169.55" y2="104.49"/><line class="cls-1" x1="168.7" y1="82.11" x2="184.51" y2="82.11"/></g></svg>