<?xml version="1.0" encoding="UTF-8"?><svg id="Layer_2" xmlns="http://www.w3.org/2000/svg" viewBox="0 0 290.75 259.74"><defs><style>.cls-1{stroke:#003153;}.cls-1,.cls-2{fill:none;stroke-linecap:round;stroke-linejoin:round;stroke-width:6.81px;}.cls-2{stroke:#457ff2;}</style></defs><g id="Layer_1-2"><circle class="cls-2" cx="63.61" cy="155.26" r="30.01"/><path class="cls-2" d="M55.86,185.27h15.5c28.95,0,52.45,23.5,52.45,52.45v18.61H3.41v-18.61c0-28.95,23.5-52.45,52.45-52.45Z"/><polyline class="cls-1" points="58.61 111.17 58.61 3.41 249.54 3.41 249.54 31.94"/><polyline class="cls-1" points="249.54 134.28 249.54 233.8 138.03 233.8"/><line class="cls-1" x1="87.88" y1="48.21" x2="220.3" y2="48.21"/><line class="cls-1" x1="87.88" y1="76.37" x2="220.3" y2="76.37"/><line class="cls-1" x1="213.76" y1="104.55" x2="87.87" y2="104.55"/><line class="cls-1" x1="200.28" y1="132.7" x2="101.82" y2="132.7"/><line class="cls-1" x1="188.15" y1="160.85" x2="107.63" y2="160.85"/><line class="cls-1" x1="192.08" y1="189.01" x2="117.03" y2="189.01"/><path class="cls-1" d="M230.21,174.72l-23.66,13.9-4.05-27.14,56.45-118.1c1.53-3.21,5.14-4.68,8.05-3.29l17.17,8.21c2.91,1.39,4.03,5.12,2.5,8.33l-56.45,118.1Z"/><line class="cls-1" x1="278.76" y1="73.15" x2="251.04" y2="59.9"/><line class="cls-1" x1="271.72" y1="87.9" x2="244.01" y2="74.69"/><line class="cls-1" x1="230.23" y1="174.72" x2="202.49" y2="161.46"/></g></svg>