<?xml version="1.0" encoding="UTF-8"?><svg id="Layer_2" xmlns="http://www.w3.org/2000/svg" viewBox="0 0 250.86 270.14"><defs><style>.cls-1{fill:none;stroke:#fff;stroke-linecap:round;stroke-linejoin:round;stroke-width:6.81px;}</style></defs><g id="Layer_1-2"><circle class="cls-1" cx="64.22" cy="59.35" r="24.16"/><path class="cls-1" d="M71.41,137.5v33.95c0,2.12,1.59,3.71,3.71,3.71h30.98c6.68,0,12.52,4.46,14.32,10.93l23.23,80.62"/><polyline class="cls-1" points="49.77 118.62 83.95 148.48 228.17 148.48"/><path class="cls-1" d="M121.28,266.74l-26.72-58.93h-46.95c-13.78,0-24.95-11.17-24.95-24.95v-69.64c0-12.21,9.89-22.1,22.1-22.1h3.47c7.23,0,14.13,3.06,18.98,8.43l27.08,26.2h43.02c6.19,0,11.24,4.95,11.36,11.14h0c.12,6.36-5,11.59-11.36,11.59h-14.8"/><path class="cls-1" d="M106.1,175.16h24.41c7.6,0,14.11,5.46,15.42,12.94l13.85,78.63"/><line class="cls-1" x1="213.86" y1="148.48" x2="213.86" y2="266.71"/><line class="cls-1" x1="127.59" y1="108.82" x2="136.92" y2="125.75"/><path class="cls-1" d="M3.41,122.11l6.48,80.76c.82,10.21,9.34,18.08,19.59,18.08h56.2"/><line class="cls-1" x1="27.49" y1="220.85" x2="9.16" y2="266.74"/><circle class="cls-1" cx="199.02" cy="51.83" r="48.43"/><polyline class="cls-1" points="199.02 19.55 199.02 51.83 218.7 71.51"/></g></svg>