<?xml version="1.0" encoding="UTF-8"?><svg id="Layer_2" xmlns="http://www.w3.org/2000/svg" viewBox="0 0 270.14 236.64"><defs><style>.cls-1{stroke:#003153;}.cls-1,.cls-2{fill:none;stroke-linecap:round;stroke-linejoin:round;stroke-width:6.81px;}.cls-2{stroke:#457ff2;}</style></defs><g id="Layer_1-2"><rect class="cls-1" x="3.41" y="3.41" width="263.32" height="229.82" rx="21.37" ry="21.37"/><line class="cls-1" x1="266.74" y1="51.92" x2="3.41" y2="51.92"/><line class="cls-1" x1="29.63" y1="28.81" x2="35.5" y2="28.81"/><line class="cls-1" x1="51.38" y1="28.81" x2="57.25" y2="28.81"/><line class="cls-1" x1="73.13" y1="28.81" x2="79" y2="28.81"/><line class="cls-1" x1="236.47" y1="36.89" x2="220.32" y2="20.74"/><line class="cls-1" x1="220.32" y1="36.89" x2="236.47" y2="20.74"/><rect class="cls-2" x="43.13" y="82.34" width="45.06" height="45.06"/><polyline class="cls-2" points="56.21 104.21 63.51 111.51 76.81 98.22"/><line class="cls-1" x1="114.39" y1="92.93" x2="226.99" y2="92.93"/><line class="cls-1" x1="114.39" y1="116.8" x2="202.1" y2="116.8"/><line class="cls-1" x1="114.39" y1="159.04" x2="168.87" y2="159.04"/><line class="cls-1" x1="114.39" y1="182.92" x2="173.41" y2="182.92"/><rect class="cls-2" x="43.13" y="148.45" width="45.06" height="45.06"/><polyline class="cls-2" points="56.21 170.32 63.51 177.63 76.81 164.33"/><polygon class="cls-1" points="228.08 159.42 214.6 172.9 234.81 193.11 225.66 202.27 205.44 182.05 191.96 195.54 180.99 148.45 228.08 159.42"/></g></svg>