<?xml version="1.0" encoding="UTF-8"?><svg id="Layer_2" xmlns="http://www.w3.org/2000/svg" viewBox="0 0 145.1 154.55"><defs><style>.cls-1{stroke:#003153;}.cls-1,.cls-2{fill:none;stroke-linecap:round;stroke-linejoin:round;stroke-width:4.03px;}.cls-2{stroke:#457ff2;}</style></defs><g id="Layer_1-2"><path class="cls-1" d="M131.62,106.51h5.88c3.09,0,5.59-2.5,5.59-5.59V7.6c0-3.09-2.5-5.59-5.59-5.59H7.6c-3.09,0-5.59,2.5-5.59,5.59v93.33c0,3.09,2.5,5.59,5.59,5.59h48.27"/><path class="cls-2" d="M104.99,104.27c0,6.05-4.9,10.95-10.95,10.95s-10.95-4.9-10.95-10.95,4.9-10.95,10.95-10.95"/><circle class="cls-2" cx="94.05" cy="104.27" r="26.6"/><line class="cls-1" x1="56.93" y1="20.66" x2="87.33" y2="20.66"/><line class="cls-1" x1="24.98" y1="41.97" x2="120.29" y2="41.97"/><line class="cls-1" x1="24.98" y1="63.08" x2="120.29" y2="63.08"/><line class="cls-1" x1="24.98" y1="84.18" x2="59.45" y2="84.18"/><path class="cls-2" d="M99,139.28l7.78,12.02c1.23,1.91,4.13,1.54,4.85-.61l3.5-10.43c.36-1.08,1.43-1.77,2.56-1.66l10.95,1.08c2.26.22,3.78-2.27,2.55-4.18l-7.63-11.79"/><path class="cls-2" d="M89.1,139.28l-7.78,12.02c-1.23,1.91-4.13,1.54-4.85-.61l-3.5-10.43c-.36-1.08-1.43-1.77-2.56-1.66l-10.95,1.08c-2.26.22-3.78-2.27-2.55-4.18l7.63-11.79"/></g></svg>