<!--?xml version="1.0" encoding="UTF-8"?--><svg id="Layer_2" xmlns="http://www.w3.org/2000/svg" viewBox="0 0 1600 1600"><defs><style>.cls-1{fill:#0A54B4;}.cls-2{fill:#B4CCFA;}.cls-3{fill:#fff;}.cls-3,.cls-4{stroke:#0A54B4;stroke-linecap:round;stroke-linejoin:round;stroke-width:1.70px;}.cls-4{fill:none;}</style></defs><path class="cls-2" d="m800.11,620.86h-.11c-1.07,0-2.13,0-3.2.02-119.75,1.7-216.97,100.21-217.19,219.97-.02,8.82.48,17.52,1.49,26.07,5.39,46.62,25.35,88.82,55.22,121.92,17.84,19.77,32.94,41.61,45.11,64.96.97,1.83,1.93,3.68,2.84,5.55,3.95,7.89,7.57,15.95,10.83,24.15,1.09,2.74,2.15,5.49,3.16,8.25,1.6,4.36,3.13,8.75,4.54,13.19.42,1.26.8,2.5,1.18,3.75.44,1.43.88,2.86,1.3,4.29,4.56,15.5,7.97,31.35,10.18,47.46.19,1.24.36,2.48.51,3.72l7.39,57.87h153.28l7.87-61.58.76-6c1.79-14.07,4.61-27.92,8.39-41.45.4-1.43.8-2.84,1.22-4.25.4-1.39.82-2.76,1.26-4.13.02-.08.04-.15.06-.23.42-1.35.86-2.71,1.32-4.06.48-1.49.97-2.95,1.49-4.44.51-1.47,1.03-2.94,1.56-4.4.44-1.22.9-2.44,1.35-3.64.38-1.03.8-2.08,1.2-3.11.38-.95.76-1.92,1.14-2.88.02-.08.06-.13.08-.21.38-.93.78-1.89,1.16-2.82.48-1.1.93-2.23,1.41-3.34,1.41-3.32,2.9-6.61,4.48-9.87.5-1.09,1.01-2.17,1.56-3.26.51-1.09,1.05-2.15,1.58-3.24,12.5-24.76,28.48-47.84,47.53-68.48,30.76-33.36,51.35-76.22,56.85-123.7.99-8.42,1.49-16.98,1.49-25.67,0-121.68-98.63-220.33-220.29-220.39Z"/><polygon class="cls-1" points="813.16 1160.44 786.83 1160.44 769.2 984.19 830.79 984.19 813.16 1160.44"/><polyline class="cls-4" points="886.07 866.53 830.79 984.19 769.2 984.19 714.55 869.89"/><path class="cls-4" d="m723.83,842.57c6.56,6.96,10.56,17.28,22.42,17.28,17.89,0,17.89-23.5,35.79-23.5s17.91,23.5,35.82,23.5,17.92-23.5,35.84-23.5c8.96,0,13.44,5.88,17.92,11.75"/><path class="cls-1" d="m739.8,1229.65h120.4v12.22c0,24.98-20.28,45.27-45.27,45.27h-29.87c-24.98,0-45.27-20.28-45.27-45.27v-12.22h0Z"/><path class="cls-2" d="m914.56,1059.09c-.53,1.09-1.09,2.15-1.62,3.24.51-1.09,1.05-2.15,1.58-3.24h.04Z"/><path class="cls-3" d="m705.37,1160.44h189.24v37.71c0,23.19-18.82,42.01-42.01,42.01h-105.22c-23.19,0-42.01-18.82-42.01-42.01v-37.71h0Z"/><line class="cls-4" x1="705.37" y1="1187.27" x2="894.61" y2="1187.27"/><polygon class="cls-2" points="704.21 493.69 609.43 426.21 624.65 365.64 704.21 493.69"/><polygon class="cls-2" points="795.03 478.11 803.75 312.87 829.4 391.45 795.03 478.11"/><polygon class="cls-2" points="890.93 510.23 990.55 376.69 988.65 435.88 890.93 510.23"/></svg>