<?xml version="1.0" encoding="UTF-8"?><svg id="Layer_2" xmlns="http://www.w3.org/2000/svg" viewBox="0 0 384.28 399.79"><defs><style>.cls-1{stroke:#457ff2;}.cls-1,.cls-2{fill:none;stroke-linecap:round;stroke-linejoin:round;stroke-width:12px;}.cls-2{stroke:#003153;}</style></defs><g id="Layer_1-2"><path class="cls-2" d="M238.12,393.79l-8.77-26.8c-5.98-18.29-1.17-38.39,12.45-51.98l3.42-3.42,55.11-55.1c2.02-2.02,3.68-4.37,4.92-6.95l9.45-19.75c3.62-7.57,12.74-10.7,20.25-6.97h0c7.22,3.59,10.32,12.23,7.02,19.59l-11.66,26.07c-1.26,2.81-3.01,5.36-5.19,7.53l-30.45,30.45"/><path class="cls-2" d="M343.42,238.2l5.24-62.25c.78-8.2,8.09-14.2,16.28-13.36h0c8.13.83,14.06,8.07,13.27,16.21l-7.63,84.54c-.68,7.53-3.35,14.74-7.74,20.89l-62.72,87.85,8.9,21.72"/><path class="cls-2" d="M146.16,393.79l8.77-26.8c5.98-18.29,1.17-38.39-12.45-51.98l-3.42-3.42-55.11-55.1c-2.02-2.02-3.68-4.37-4.92-6.95l-9.45-19.75c-3.62-7.57-12.74-10.7-20.25-6.97h0c-7.22,3.59-10.32,12.23-7.02,19.59l11.66,26.07c1.26,2.81,3.01,5.36,5.19,7.53l30.45,30.45"/><path class="cls-2" d="M40.86,238.2l-5.24-62.25c-.78-8.2-8.09-14.2-16.28-13.36h0c-8.13.83-14.06,8.07-13.27,16.21l7.63,84.54c.68,7.53,3.35,14.74,7.74,20.89l62.72,87.85-8.9,21.72"/><path class="cls-1" d="M191.64,198.41c9.91,0,17.95-8.04,17.95-17.95s-8.04-17.95-17.95-17.95-17.95,8.04-17.95,17.95,8.04,17.95,17.95,17.95Z"/><line class="cls-1" x1="172.61" y1="272.62" x2="172.61" y2="253.6"/><line class="cls-1" x1="211.67" y1="253.6" x2="211.67" y2="272.62"/><path class="cls-1" d="M236.72,272.62v-24.45c0-17.09-13.86-30.95-30.95-30.95h-28.24c-17.09,0-30.95,13.86-30.95,30.95v24.45"/><path class="cls-1" d="M136.76,183.17c7.88,0,14.27-6.39,14.27-14.27s-6.39-14.27-14.27-14.27-14.27,6.39-14.27,14.27,6.39,14.27,14.27,14.27Z"/><line class="cls-1" x1="121.62" y1="242.19" x2="121.62" y2="227.06"/><path class="cls-1" d="M162.72,203.02c-4.11-3.07-9.2-4.89-14.72-4.89h-22.46c-13.59,0-24.61,11.02-24.61,24.61v11.88"/><path class="cls-1" d="M247.52,183.17c-7.88,0-14.27-6.39-14.27-14.27s6.39-14.27,14.27-14.27,14.27,6.39,14.27,14.27-6.39,14.27-14.27,14.27Z"/><line class="cls-1" x1="262.66" y1="242.19" x2="262.66" y2="227.06"/><path class="cls-1" d="M221.46,203.1c4.12-3.12,9.26-4.97,14.83-4.97h22.46c13.59,0,24.61,11.02,24.61,24.61v11.88"/><path class="cls-2" d="M326.07,124.64c-10.08-11.23-24.68-18.27-40.93-18.27-11.49,0-22.17,3.52-31,9.56-8.83-6.03-19.52-9.56-31-9.56s-22.17,3.52-31,9.56c-8.83-6.03-19.52-9.56-31-9.56s-22.17,3.52-31,9.56c-8.83-6.03-19.51-9.56-31.03-9.56-16.22,0-30.83,7.04-40.88,18.22,18.5-56.23,71.45-96.82,133.92-96.82s115.41,40.62,133.95,96.88Z"/><line class="cls-2" x1="192.13" y1="26.66" x2="192.13" y2="6"/><path class="cls-2" d="M169.33,45.46c6.8-6.6,14.27-12.52,22.29-17.64"/><path class="cls-2" d="M130.39,114.81c3.92-17.4,11.09-33.57,20.84-47.84"/><path class="cls-2" d="M232.89,66.96c9.75,14.28,16.92,30.46,20.84,47.87"/><path class="cls-2" d="M192.49,27.82c8.03,5.12,15.49,11.03,22.29,17.64"/><line class="cls-2" x1="192.13" y1="114.82" x2="192.13" y2="115.92"/><line class="cls-2" x1="192.13" y1="76.19" x2="192.13" y2="114.82"/><line class="cls-2" x1="192.13" y1="27.75" x2="192.13" y2="48.65"/><path class="cls-2" d="M318.86,120.76c-6.9-9.49-19.38-15.82-33.62-15.82-12.6,0-23.84,4.96-31.03,12.68-7.19-7.73-18.43-12.68-31.03-12.68s-23.84,4.96-31.03,12.71c-7.19-7.75-18.43-12.71-31.06-12.71s-23.81,4.96-31.03,12.68c-7.19-7.73-18.43-12.68-31.03-12.68-14.24,0-26.72,6.33-33.62,15.82,8.05-52.65,61.73-93.34,126.73-93.34s118.65,40.69,126.7,93.34Z"/><line class="cls-2" x1="192.16" y1="116.95" x2="192.16" y2="140.69"/></g></svg>