<?xml version="1.0" encoding="UTF-8"?><svg id="Layer_2" xmlns="http://www.w3.org/2000/svg" viewBox="0 0 198.18 174.71"><defs><style>.cls-1{stroke:#003153;}.cls-1,.cls-2{fill:none;stroke-linecap:round;stroke-linejoin:round;stroke-width:5.64px;}.cls-2{stroke:#457ff2;}</style></defs><g id="Layer_1-2"><path class="cls-1" d="M121.59,149.35H9.1c-3.45,0-6.27-2.82-6.27-6.27V9.1c0-3.45,2.82-6.27,6.27-6.27h31.57c1.86,0,3.62.8,4.81,2.22l7.5,8.9h.03l8.83,10.46c1.19,1.43,2.95,2.22,4.81,2.22h103.44c3.45,0,6.27,2.79,6.27,6.27v67.09"/><path class="cls-1" d="M52.99,13.95h110.82c6.93,0,12.55,5.62,12.55,12.55v16.86"/><path class="cls-2" d="M156.71,133.25c-4.36,0-7.9-3.3-7.9-7.37s3.54-7.37,7.9-7.37,7.9,3.3,7.9,7.37"/><line class="cls-2" x1="156.71" y1="113.13" x2="156.71" y2="118.51"/><path class="cls-2" d="M156.71,133.25c4.36,0,7.9,3.3,7.9,7.37s-3.54,7.37-7.9,7.37-7.9-3.3-7.9-7.37"/><line class="cls-2" x1="156.71" y1="153.37" x2="156.71" y2="147.99"/><circle class="cls-2" cx="156.71" cy="133.25" r="38.64"/><rect class="cls-1" x="29.87" y="94.61" width="59.73" height="26.4"/></g></svg>