<?xml version="1.0" encoding="UTF-8"?><svg id="Layer_2" xmlns="http://www.w3.org/2000/svg" viewBox="0 0 59.5 59.5"><defs><style>.cls-1{fill:none;stroke:#fff;stroke-linecap:round;stroke-linejoin:round;stroke-width:1.5px;}</style></defs><g id="Layer_1-2"><path class="cls-1" d="M29.75,2.95c25.94,1.08,25.62,23.86,25.62,23.86-3.54-3.29-9.27-3.29-12.81,0-3.54-3.29-9.27-3.29-12.81,0-3.54-3.29-9.27-3.29-12.81,0-3.54-3.29-9.27-3.29-12.81,0"/><path class="cls-1" d="M42.56,26.81s1.35-17.98-12.81-23.86"/><path class="cls-1" d="M29.75,2.95C3.81,4.03,4.13,26.81,4.13,26.81"/><path class="cls-1" d="M16.94,26.81s-1.35-17.98,12.81-23.86v23.86"/><polyline class="cls-1" points="29.75 26.81 29.75 2.95 29.75 .75"/><path class="cls-1" d="M35.74,39.05c0,3.31-2.68,5.99-5.99,5.99s-5.99-2.68-5.99-5.99,2.68-5.99,5.99-5.99,5.99,2.68,5.99,5.99Z"/><path class="cls-1" d="M27.55,45.04h4.39c5.9,0,10.68,4.79,10.68,10.68v3.03h-25.75v-3.03c0-5.9,4.79-10.68,10.68-10.68Z"/><path class="cls-1" d="M17.37,41.4c0,2.91-2.36,5.27-5.27,5.27s-5.27-2.36-5.27-5.27,2.36-5.27,5.27-5.27,5.27,2.36,5.27,5.27Z"/><path class="cls-1" d="M19.65,48.55s-.01,0-.01,0c-1.56-1.18-3.51-1.87-5.61-1.87h-3.87c-5.19,0-9.4,4.21-9.4,9.4v2.67h22.68"/><path class="cls-1" d="M52.68,41.4c0,2.91-2.36,5.27-5.27,5.27s-5.27-2.36-5.27-5.27,2.36-5.27,5.27-5.27,5.27,2.36,5.27,5.27Z"/><path class="cls-1" d="M36.07,58.75h22.68v-2.67c0-5.19-4.21-9.4-9.4-9.4h-3.87c-2.1,0-4.05.69-5.61,1.87,0,0-.01-.01-.01,0"/></g></svg>