<svg id="visual" viewBox="0 0 960 540" width="960" height="540" xmlns="http://www.w3.org/2000/svg" xmlns:xlink="http://www.w3.org/1999/xlink" version="1.1"><rect x="0" y="0" width="960" height="540" fill="#003153"></rect><defs><linearGradient id="grad1_0" x1="43.8%" y1="0%" x2="100%" y2="100%"><stop offset="14.444444444444446%" stop-color="#b4ccfa" stop-opacity="1"></stop><stop offset="85.55555555555554%" stop-color="#b4ccfa" stop-opacity="1"></stop></linearGradient></defs><defs><linearGradient id="grad1_1" x1="43.8%" y1="0%" x2="100%" y2="100%"><stop offset="14.444444444444446%" stop-color="#b4ccfa" stop-opacity="1"></stop><stop offset="85.55555555555554%" stop-color="#9bb4e0" stop-opacity="1"></stop></linearGradient></defs><defs><linearGradient id="grad1_2" x1="43.8%" y1="0%" x2="100%" y2="100%"><stop offset="14.444444444444446%" stop-color="#829cc7" stop-opacity="1"></stop><stop offset="85.55555555555554%" stop-color="#9bb4e0" stop-opacity="1"></stop></linearGradient></defs><defs><linearGradient id="grad1_3" x1="43.8%" y1="0%" x2="100%" y2="100%"><stop offset="14.444444444444446%" stop-color="#829cc7" stop-opacity="1"></stop><stop offset="85.55555555555554%" stop-color="#6985af" stop-opacity="1"></stop></linearGradient></defs><defs><linearGradient id="grad1_4" x1="43.8%" y1="0%" x2="100%" y2="100%"><stop offset="14.444444444444446%" stop-color="#526f97" stop-opacity="1"></stop><stop offset="85.55555555555554%" stop-color="#6985af" stop-opacity="1"></stop></linearGradient></defs><defs><linearGradient id="grad1_5" x1="43.8%" y1="0%" x2="100%" y2="100%"><stop offset="14.444444444444446%" stop-color="#526f97" stop-opacity="1"></stop><stop offset="85.55555555555554%" stop-color="#3a597f" stop-opacity="1"></stop></linearGradient></defs><defs><linearGradient id="grad1_6" x1="43.8%" y1="0%" x2="100%" y2="100%"><stop offset="14.444444444444446%" stop-color="#214569" stop-opacity="1"></stop><stop offset="85.55555555555554%" stop-color="#3a597f" stop-opacity="1"></stop></linearGradient></defs><defs><linearGradient id="grad1_7" x1="43.8%" y1="0%" x2="100%" y2="100%"><stop offset="14.444444444444446%" stop-color="#214569" stop-opacity="1"></stop><stop offset="85.55555555555554%" stop-color="#003153" stop-opacity="1"></stop></linearGradient></defs><defs><linearGradient id="grad2_0" x1="0%" y1="0%" x2="56.3%" y2="100%"><stop offset="14.444444444444446%" stop-color="#b4ccfa" stop-opacity="1"></stop><stop offset="85.55555555555554%" stop-color="#b4ccfa" stop-opacity="1"></stop></linearGradient></defs><defs><linearGradient id="grad2_1" x1="0%" y1="0%" x2="56.3%" y2="100%"><stop offset="14.444444444444446%" stop-color="#9bb4e0" stop-opacity="1"></stop><stop offset="85.55555555555554%" stop-color="#b4ccfa" stop-opacity="1"></stop></linearGradient></defs><defs><linearGradient id="grad2_2" x1="0%" y1="0%" x2="56.3%" y2="100%"><stop offset="14.444444444444446%" stop-color="#9bb4e0" stop-opacity="1"></stop><stop offset="85.55555555555554%" stop-color="#829cc7" stop-opacity="1"></stop></linearGradient></defs><defs><linearGradient id="grad2_3" x1="0%" y1="0%" x2="56.3%" y2="100%"><stop offset="14.444444444444446%" stop-color="#6985af" stop-opacity="1"></stop><stop offset="85.55555555555554%" stop-color="#829cc7" stop-opacity="1"></stop></linearGradient></defs><defs><linearGradient id="grad2_4" x1="0%" y1="0%" x2="56.3%" y2="100%"><stop offset="14.444444444444446%" stop-color="#6985af" stop-opacity="1"></stop><stop offset="85.55555555555554%" stop-color="#526f97" stop-opacity="1"></stop></linearGradient></defs><defs><linearGradient id="grad2_5" x1="0%" y1="0%" x2="56.3%" y2="100%"><stop offset="14.444444444444446%" stop-color="#3a597f" stop-opacity="1"></stop><stop offset="85.55555555555554%" stop-color="#526f97" stop-opacity="1"></stop></linearGradient></defs><defs><linearGradient id="grad2_6" x1="0%" y1="0%" x2="56.3%" y2="100%"><stop offset="14.444444444444446%" stop-color="#3a597f" stop-opacity="1"></stop><stop offset="85.55555555555554%" stop-color="#214569" stop-opacity="1"></stop></linearGradient></defs><defs><linearGradient id="grad2_7" x1="0%" y1="0%" x2="56.3%" y2="100%"><stop offset="14.444444444444446%" stop-color="#003153" stop-opacity="1"></stop><stop offset="85.55555555555554%" stop-color="#214569" stop-opacity="1"></stop></linearGradient></defs><g transform="translate(960, 0)"><path d="M0 324C-28.5 290.8 -57.1 257.6 -102.9 248.5C-148.8 239.4 -212 254.4 -229.1 229.1C-246.2 203.8 -217.3 138.3 -225.4 93.4C-233.6 48.5 -278.8 24.2 -324 0L0 0Z" fill="#123b5e"></path><path d="M0 283.5C-25 254.5 -49.9 225.4 -90.1 217.5C-130.2 209.5 -185.5 222.6 -200.5 200.5C-215.4 178.3 -190.1 121 -197.2 81.7C-204.4 42.4 -243.9 21.2 -283.5 0L0 0Z" fill="#2d4f74"></path><path d="M0 243C-21.4 218.1 -42.8 193.2 -77.2 186.4C-111.6 179.6 -159 190.8 -171.8 171.8C-184.7 152.9 -163 103.7 -169.1 70C-175.2 36.4 -209.1 18.2 -243 0L0 0Z" fill="#46648b"></path><path d="M0 202.5C-17.8 181.8 -35.7 161 -64.3 155.3C-93 149.6 -132.5 159 -143.2 143.2C-153.9 127.4 -135.8 86.4 -140.9 58.4C-146 30.3 -174.2 15.2 -202.5 0L0 0Z" fill="#5d7aa3"></path><path d="M0 162C-14.3 145.4 -28.5 128.8 -51.5 124.3C-74.4 119.7 -106 127.2 -114.6 114.6C-123.1 101.9 -108.6 69.1 -112.7 46.7C-116.8 24.2 -139.4 12.1 -162 0L0 0Z" fill="#7690bb"></path><path d="M0 121.5C-10.7 109.1 -21.4 96.6 -38.6 93.2C-55.8 89.8 -79.5 95.4 -85.9 85.9C-92.3 76.4 -81.5 51.9 -84.5 35C-87.6 18.2 -104.5 9.1 -121.5 0L0 0Z" fill="#8ea8d4"></path><path d="M0 81C-7.1 72.7 -14.3 64.4 -25.7 62.1C-37.2 59.9 -53 63.6 -57.3 57.3C-61.6 51 -54.3 34.6 -56.4 23.3C-58.4 12.1 -69.7 6.1 -81 0L0 0Z" fill="#a7c0ed"></path><path d="M0 40.5C-3.6 36.4 -7.1 32.2 -12.9 31.1C-18.6 29.9 -26.5 31.8 -28.6 28.6C-30.8 25.5 -27.2 17.3 -28.2 11.7C-29.2 6.1 -34.8 3 -40.5 0L0 0Z" fill="#b4ccfa"></path></g><g transform="translate(0, 540)"><path d="M0 -324C52.8 -330.1 105.6 -336.2 124 -299.3C142.3 -262.5 126.3 -182.6 149.2 -149.2C172.1 -115.8 234.1 -128.9 269.8 -111.7C305.4 -94.6 314.7 -47.3 324 0L0 0Z" fill="#123b5e"></path><path d="M0 -283.5C46.2 -288.8 92.4 -294.2 108.5 -261.9C124.6 -229.7 110.5 -159.8 130.5 -130.5C150.6 -101.3 204.9 -112.8 236.1 -97.8C267.2 -82.8 275.4 -41.4 283.5 0L0 0Z" fill="#2d4f74"></path><path d="M0 -243C39.6 -247.6 79.2 -252.2 93 -224.5C106.8 -196.8 94.7 -136.9 111.9 -111.9C129.1 -86.9 175.6 -96.6 202.3 -83.8C229.1 -71 236 -35.5 243 0L0 0Z" fill="#46648b"></path><path d="M0 -202.5C33 -206.3 66 -210.1 77.5 -187.1C89 -164 78.9 -114.1 93.2 -93.2C107.6 -72.4 146.3 -80.5 168.6 -69.8C190.9 -59.1 196.7 -29.6 202.5 0L0 0Z" fill="#5d7aa3"></path><path d="M0 -162C26.4 -165.1 52.8 -168.1 62 -149.7C71.2 -131.2 63.1 -91.3 74.6 -74.6C86.1 -57.9 117.1 -64.4 134.9 -55.9C152.7 -47.3 157.4 -23.7 162 0L0 0Z" fill="#7690bb"></path><path d="M0 -121.5C19.8 -123.8 39.6 -126.1 46.5 -112.3C53.4 -98.4 47.3 -68.5 55.9 -55.9C64.6 -43.4 87.8 -48.3 101.2 -41.9C114.5 -35.5 118 -17.7 121.5 0L0 0Z" fill="#8ea8d4"></path><path d="M0 -81C13.2 -82.5 26.4 -84.1 31 -74.8C35.6 -65.6 31.6 -45.6 37.3 -37.3C43 -29 58.5 -32.2 67.4 -27.9C76.4 -23.7 78.7 -11.8 81 0L0 0Z" fill="#a7c0ed"></path><path d="M0 -40.5C6.6 -41.3 13.2 -42 15.5 -37.4C17.8 -32.8 15.8 -22.8 18.6 -18.6C21.5 -14.5 29.3 -16.1 33.7 -14C38.2 -11.8 39.3 -5.9 40.5 0L0 0Z" fill="#b4ccfa"></path></g></svg>