<svg id="visual" viewBox="0 0 1900 400" width="1900" height="400" xmlns="http://www.w3.org/2000/svg" xmlns:xlink="http://www.w3.org/1999/xlink" version="1.1"><rect x="0" y="0" width="1900" height="400" fill="#D9E5FC"/><defs><linearGradient id="grad1_0" x1="78.9%" y1="0%" x2="100%" y2="100%"><stop offset="-45%" stop-color="#6a99f4" stop-opacity="1"/><stop offset="145%" stop-color="#6a99f4" stop-opacity="1"/></linearGradient></defs><defs><linearGradient id="grad1_1" x1="78.9%" y1="0%" x2="100%" y2="100%"><stop offset="-45%" stop-color="#6a99f4" stop-opacity="1"/><stop offset="145%" stop-color="#7ba4f6" stop-opacity="1"/></linearGradient></defs><defs><linearGradient id="grad1_2" x1="78.9%" y1="0%" x2="100%" y2="100%"><stop offset="-45%" stop-color="#8baff7" stop-opacity="1"/><stop offset="145%" stop-color="#7ba4f6" stop-opacity="1"/></linearGradient></defs><defs><linearGradient id="grad1_3" x1="78.9%" y1="0%" x2="100%" y2="100%"><stop offset="-45%" stop-color="#8baff7" stop-opacity="1"/><stop offset="145%" stop-color="#9bbaf8" stop-opacity="1"/></linearGradient></defs><defs><linearGradient id="grad1_4" x1="78.9%" y1="0%" x2="100%" y2="100%"><stop offset="-45%" stop-color="#aac4fa" stop-opacity="1"/><stop offset="145%" stop-color="#9bbaf8" stop-opacity="1"/></linearGradient></defs><defs><linearGradient id="grad1_5" x1="78.9%" y1="0%" x2="100%" y2="100%"><stop offset="-45%" stop-color="#aac4fa" stop-opacity="1"/><stop offset="145%" stop-color="#bacffa" stop-opacity="1"/></linearGradient></defs><defs><linearGradient id="grad1_6" x1="78.9%" y1="0%" x2="100%" y2="100%"><stop offset="-45%" stop-color="#c9dafb" stop-opacity="1"/><stop offset="145%" stop-color="#bacffa" stop-opacity="1"/></linearGradient></defs><defs><linearGradient id="grad1_7" x1="78.9%" y1="0%" x2="100%" y2="100%"><stop offset="-45%" stop-color="#c9dafb" stop-opacity="1"/><stop offset="145%" stop-color="#d9e5fc" stop-opacity="1"/></linearGradient></defs><defs><linearGradient id="grad2_0" x1="0%" y1="0%" x2="21.1%" y2="100%"><stop offset="-45%" stop-color="#6a99f4" stop-opacity="1"/><stop offset="145%" stop-color="#6a99f4" stop-opacity="1"/></linearGradient></defs><defs><linearGradient id="grad2_1" x1="0%" y1="0%" x2="21.1%" y2="100%"><stop offset="-45%" stop-color="#7ba4f6" stop-opacity="1"/><stop offset="145%" stop-color="#6a99f4" stop-opacity="1"/></linearGradient></defs><defs><linearGradient id="grad2_2" x1="0%" y1="0%" x2="21.1%" y2="100%"><stop offset="-45%" stop-color="#7ba4f6" stop-opacity="1"/><stop offset="145%" stop-color="#8baff7" stop-opacity="1"/></linearGradient></defs><defs><linearGradient id="grad2_3" x1="0%" y1="0%" x2="21.1%" y2="100%"><stop offset="-45%" stop-color="#9bbaf8" stop-opacity="1"/><stop offset="145%" stop-color="#8baff7" stop-opacity="1"/></linearGradient></defs><defs><linearGradient id="grad2_4" x1="0%" y1="0%" x2="21.1%" y2="100%"><stop offset="-45%" stop-color="#9bbaf8" stop-opacity="1"/><stop offset="145%" stop-color="#aac4fa" stop-opacity="1"/></linearGradient></defs><defs><linearGradient id="grad2_5" x1="0%" y1="0%" x2="21.1%" y2="100%"><stop offset="-45%" stop-color="#bacffa" stop-opacity="1"/><stop offset="145%" stop-color="#aac4fa" stop-opacity="1"/></linearGradient></defs><defs><linearGradient id="grad2_6" x1="0%" y1="0%" x2="21.1%" y2="100%"><stop offset="-45%" stop-color="#bacffa" stop-opacity="1"/><stop offset="145%" stop-color="#c9dafb" stop-opacity="1"/></linearGradient></defs><defs><linearGradient id="grad2_7" x1="0%" y1="0%" x2="21.1%" y2="100%"><stop offset="-45%" stop-color="#d9e5fc" stop-opacity="1"/><stop offset="145%" stop-color="#c9dafb" stop-opacity="1"/></linearGradient></defs><g transform="translate(1900, 0)"><path d="M0 400C-23.1 393.9 -46.2 387.9 -66.7 378.2C-87.2 368.5 -105 355.2 -127.6 350.5C-150.1 345.8 -177.3 349.8 -195.5 338.6C-213.7 327.4 -222.9 301 -238.5 284.2C-254 267.4 -275.8 260 -295.7 248.1C-315.5 236.2 -333.4 219.7 -346.4 200C-359.4 180.3 -367.6 157.4 -368.4 134.1C-369.1 110.8 -362.3 87 -366.3 64.6C-370.4 42.2 -385.2 21.1 -400 0L0 0Z" fill="#d1e0fc"/><path d="M0 350C-20.2 344.7 -40.4 339.4 -58.3 330.9C-76.3 322.4 -91.9 310.8 -111.6 306.7C-131.3 302.6 -155.1 306.1 -171.1 296.3C-187 286.5 -195.1 263.4 -208.7 248.7C-222.3 233.9 -241.4 227.5 -258.7 217.1C-276.1 206.7 -291.7 192.2 -303.1 175C-314.5 157.8 -321.7 137.7 -322.3 117.3C-322.9 96.9 -317 76.1 -320.6 56.5C-324.1 36.9 -337 18.5 -350 0L0 0Z" fill="#c1d5fb"/><path d="M0 300C-17.3 295.4 -34.6 290.9 -50 283.6C-65.4 276.4 -78.8 266.4 -95.7 262.9C-112.6 259.4 -133 262.4 -146.6 254C-160.3 245.6 -167.2 225.8 -178.9 213.2C-190.5 200.5 -206.9 195 -221.8 186.1C-236.7 177.2 -250 164.8 -259.8 150C-269.6 135.2 -275.7 118 -276.3 100.6C-276.8 83.1 -271.7 65.3 -274.8 48.4C-277.8 31.6 -288.9 15.8 -300 0L0 0Z" fill="#b2cafa"/><path d="M0 250C-14.4 246.2 -28.9 242.4 -41.7 236.4C-54.5 230.3 -65.7 222 -79.7 219.1C-93.8 216.1 -110.8 218.6 -122.2 211.6C-133.6 204.6 -139.3 188.2 -149 177.6C-158.8 167.1 -172.4 162.5 -184.8 155.1C-197.2 147.6 -208.4 137.3 -216.5 125C-224.6 112.7 -229.8 98.4 -230.2 83.8C-230.7 69.2 -226.5 54.4 -229 40.4C-231.5 26.4 -240.7 13.2 -250 0L0 0Z" fill="#a2bff9"/><path d="M0 200C-11.5 197 -23.1 193.9 -33.3 189.1C-43.6 184.2 -52.5 177.6 -63.8 175.3C-75.1 172.9 -88.6 174.9 -97.7 169.3C-106.9 163.7 -111.5 150.5 -119.2 142.1C-127 133.7 -137.9 130 -147.8 124.1C-157.8 118.1 -166.7 109.9 -173.2 100C-179.7 90.1 -183.8 78.7 -184.2 67C-184.5 55.4 -181.2 43.5 -183.2 32.3C-185.2 21.1 -192.6 10.5 -200 0L0 0Z" fill="#93b4f8"/><path d="M0 150C-8.7 147.7 -17.3 145.4 -25 141.8C-32.7 138.2 -39.4 133.2 -47.8 131.4C-56.3 129.7 -66.5 131.2 -73.3 127C-80.1 122.8 -83.6 112.9 -89.4 106.6C-95.3 100.3 -103.4 97.5 -110.9 93C-118.3 88.6 -125 82.4 -129.9 75C-134.8 67.6 -137.9 59 -138.1 50.3C-138.4 41.5 -135.9 32.6 -137.4 24.2C-138.9 15.8 -144.4 7.9 -150 0L0 0Z" fill="#83a9f6"/><path d="M0 100C-5.8 98.5 -11.5 97 -16.7 94.5C-21.8 92.1 -26.3 88.8 -31.9 87.6C-37.5 86.5 -44.3 87.5 -48.9 84.7C-53.4 81.9 -55.7 75.3 -59.6 71.1C-63.5 66.8 -69 65 -73.9 62C-78.9 59.1 -83.3 54.9 -86.6 50C-89.9 45.1 -91.9 39.3 -92.1 33.5C-92.3 27.7 -90.6 21.8 -91.6 16.1C-92.6 10.5 -96.3 5.3 -100 0L0 0Z" fill="#739ef5"/><path d="M0 50C-2.9 49.2 -5.8 48.5 -8.3 47.3C-10.9 46.1 -13.1 44.4 -15.9 43.8C-18.8 43.2 -22.2 43.7 -24.4 42.3C-26.7 40.9 -27.9 37.6 -29.8 35.5C-31.8 33.4 -34.5 32.5 -37 31C-39.4 29.5 -41.7 27.5 -43.3 25C-44.9 22.5 -46 19.7 -46 16.8C-46.1 13.8 -45.3 10.9 -45.8 8.1C-46.3 5.3 -48.1 2.6 -50 0L0 0Z" fill="#6a99f4"/></g><g transform="translate(0, 400)"><path d="M0 -400C21.3 -385.1 42.7 -370.2 63.9 -362.4C85.1 -354.6 106.2 -354 127.9 -351.4C149.7 -348.9 172.1 -344.3 195 -337.7C217.9 -331.2 241.4 -322.5 257.1 -306.4C272.8 -290.3 280.9 -266.7 296.5 -248.8C312 -230.8 335.2 -218.4 342.9 -198C350.7 -177.6 343 -149.2 347.7 -126.5C352.4 -103.9 369.4 -87.1 380.1 -67C390.9 -46.9 395.5 -23.5 400 0L0 0Z" fill="#d1e0fc"/><path d="M0 -350C18.7 -337 37.4 -323.9 55.9 -317.1C74.5 -310.3 92.9 -309.8 111.9 -307.5C130.9 -305.3 150.6 -301.3 170.6 -295.5C190.7 -289.8 211.2 -282.2 225 -268.1C238.7 -254 245.8 -233.4 259.4 -217.7C273 -201.9 293.3 -191.1 300.1 -173.3C306.9 -155.4 300.1 -130.5 304.2 -110.7C308.3 -90.9 323.2 -76.3 332.6 -58.6C342 -41 346 -20.5 350 0L0 0Z" fill="#c1d5fb"/><path d="M0 -300C16 -288.8 32 -277.6 47.9 -271.8C63.8 -266 79.6 -265.5 95.9 -263.6C112.2 -261.7 129.1 -258.3 146.2 -253.3C163.4 -248.4 181 -241.9 192.8 -229.8C204.6 -217.7 210.7 -200.1 222.3 -186.6C234 -173.1 251.4 -163.8 257.2 -148.5C263 -133.2 257.3 -111.9 260.8 -94.9C264.3 -78 277 -65.4 285.1 -50.3C293.2 -35.2 296.6 -17.6 300 0L0 0Z" fill="#b2cafa"/><path d="M0 -250C13.3 -240.7 26.7 -231.4 39.9 -226.5C53.2 -221.7 66.4 -221.3 79.9 -219.7C93.5 -218 107.5 -215.2 121.9 -211.1C136.2 -207 150.9 -201.6 160.7 -191.5C170.5 -181.4 175.5 -166.7 185.3 -155.5C195 -144.2 209.5 -136.5 214.3 -123.8C219.2 -111 214.4 -93.2 217.3 -79.1C220.2 -65 230.9 -54.5 237.6 -41.9C244.3 -29.3 247.2 -14.7 250 0L0 0Z" fill="#a2bff9"/><path d="M0 -200C10.7 -192.5 21.3 -185.1 32 -181.2C42.6 -177.3 53.1 -177 64 -175.7C74.8 -174.4 86 -172.2 97.5 -168.9C109 -165.6 120.7 -161.3 128.6 -153.2C136.4 -145.2 140.4 -133.4 148.2 -124.4C156 -115.4 167.6 -109.2 171.5 -99C175.3 -88.8 171.5 -74.6 173.8 -63.3C176.2 -52 184.7 -43.6 190.1 -33.5C195.5 -23.5 197.7 -11.7 200 0L0 0Z" fill="#93b4f8"/><path d="M0 -150C8 -144.4 16 -138.8 24 -135.9C31.9 -133 39.8 -132.8 48 -131.8C56.1 -130.8 64.5 -129.1 73.1 -126.7C81.7 -124.2 90.5 -120.9 96.4 -114.9C102.3 -108.9 105.3 -100 111.2 -93.3C117 -86.5 125.7 -81.9 128.6 -74.3C131.5 -66.6 128.6 -55.9 130.4 -47.5C132.1 -39 138.5 -32.7 142.6 -25.1C146.6 -17.6 148.3 -8.8 150 0L0 0Z" fill="#83a9f6"/><path d="M0 -100C5.3 -96.3 10.7 -92.5 16 -90.6C21.3 -88.7 26.5 -88.5 32 -87.9C37.4 -87.2 43 -86.1 48.7 -84.4C54.5 -82.8 60.3 -80.6 64.3 -76.6C68.2 -72.6 70.2 -66.7 74.1 -62.2C78 -57.7 83.8 -54.6 85.7 -49.5C87.7 -44.4 85.8 -37.3 86.9 -31.6C88.1 -26 92.3 -21.8 95 -16.8C97.7 -11.7 98.9 -5.9 100 0L0 0Z" fill="#739ef5"/><path d="M0 -50C2.7 -48.1 5.3 -46.3 8 -45.3C10.6 -44.3 13.3 -44.3 16 -43.9C18.7 -43.6 21.5 -43 24.4 -42.2C27.2 -41.4 30.2 -40.3 32.1 -38.3C34.1 -36.3 35.1 -33.3 37.1 -31.1C39 -28.8 41.9 -27.3 42.9 -24.8C43.8 -22.2 42.9 -18.6 43.5 -15.8C44 -13 46.2 -10.9 47.5 -8.4C48.9 -5.9 49.4 -2.9 50 0L0 0Z" fill="#6a99f4"/></g></svg>