<?xml version="1.0" encoding="UTF-8"?><svg id="Layer_2" xmlns="http://www.w3.org/2000/svg" viewBox="0 0 198.18 198.18"><defs><style>.cls-1{stroke-width:3.14px;}.cls-1,.cls-2{stroke:#003153;}.cls-1,.cls-2,.cls-3{fill:none;stroke-linecap:round;stroke-linejoin:round;}.cls-2,.cls-3{stroke-width:5.64px;}.cls-3{stroke:#457ff2;}</style></defs><g id="Layer_1-2"><polyline class="cls-2" points="110.28 184.2 10.89 184.2 10.89 2.82 158.38 2.82 158.38 27.75"/><line class="cls-1" x1="158.38" y1="83.71" x2="158.38" y2="61.09"/><rect class="cls-2" x="121.39" y="92.71" width="73.96" height="102.65" rx="6.64" ry="6.64"/><line class="cls-2" x1="2.82" y1="23.62" x2="18.93" y2="23.62"/><line class="cls-2" x1="2.82" y1="51.63" x2="18.93" y2="51.63"/><line class="cls-2" x1="2.82" y1="79.64" x2="18.93" y2="79.64"/><line class="cls-2" x1="2.82" y1="107.65" x2="18.93" y2="107.65"/><line class="cls-2" x1="2.82" y1="135.66" x2="18.93" y2="135.66"/><line class="cls-2" x1="2.82" y1="163.67" x2="18.93" y2="163.67"/><line class="cls-3" x1="40.67" y1="76.32" x2="76.35" y2="76.32"/><line class="cls-3" x1="40.67" y1="93.37" x2="76.35" y2="93.37"/><path class="cls-2" d="M158.37,158.37h36.98v30.34c0,3.66-2.97,6.64-6.64,6.64h-30.34v-36.98h0Z"/><rect class="cls-2" x="121.39" y="121.39" width="36.98" height="36.98"/><polyline class="cls-2" points="158.37 158.37 158.37 121.39 195.36 121.39 195.36 158.37"/><polygon class="cls-2" points="87.91 52.07 66.49 39.92 87.91 27.76 195.36 27.76 195.36 52.07 87.91 52.07"/><line class="cls-2" x1="176.53" y1="27.76" x2="176.53" y2="52.07"/><path class="cls-3" d="M72.06,135.25l-1.76-20.68c12.03.22,21.71,10.04,21.71,22.12,0,2.93-.57,5.72-1.61,8.27l-18.34-9.71Z"/><path class="cls-3" d="M62.8,165.9c-12.22,0-22.13-9.9-22.13-22.12,0-10.8,7.75-19.8,17.98-21.73l1.97,23.16,20.55,10.88c-3.97,5.92-10.72,9.81-18.38,9.81Z"/><line class="cls-2" x1="132.51" y1="139.88" x2="147.25" y2="139.88"/><line class="cls-2" x1="139.88" y1="132.51" x2="139.88" y2="147.25"/><line class="cls-2" x1="134.67" y1="171.65" x2="145.09" y2="182.08"/><line class="cls-2" x1="145.09" y1="171.65" x2="134.67" y2="182.08"/><line class="cls-2" x1="184.23" y1="176.86" x2="169.49" y2="176.86"/><line class="cls-2" x1="184.23" y1="139.88" x2="169.49" y2="139.88"/><line class="cls-2" x1="176.86" y1="170.21" x2="176.86" y2="170.21"/><line class="cls-2" x1="176.86" y1="183.52" x2="176.86" y2="183.52"/></g></svg>