<?xml version="1.0" encoding="UTF-8"?><svg id="Layer_2" xmlns="http://www.w3.org/2000/svg" viewBox="0 0 482.01 481.99"><defs><style>.cls-1{fill:#fff;fill-rule:evenodd;}</style></defs><g id="Layer_1-2"><path class="cls-1" d="M273.54,128.16H120.53c-3.31,0-6,2.69-6,6s2.69,6,6,6h153.02c3.31,0,6-2.68,6-6s-2.69-6-6-6h0ZM159.89,374.31c0-30.96-25.19-56.15-56.16-56.15s-56.15,25.19-56.15,56.15,25.19,56.16,56.15,56.16,56.16-25.19,56.16-56.16h0ZM171.88,374.31c0,37.59-30.58,68.16-68.16,68.16s-68.15-30.57-68.15-68.16,30.57-68.15,68.15-68.15,68.16,30.57,68.16,68.15h0ZM470,362.34h-60.62v30.31c0,16.71,13.59,30.31,30.31,30.31s30.31-13.6,30.31-30.31v-30.31h0ZM410.2,422.96h-216.96c12.82-6.81,17.91-22.75,11.33-35.75-3.95-7.77-4.08-16.99-.44-24.87h93.34c1.05,0,2.1-.28,3.04-.83l49.26-29.05c.89-.53,1.63-1.28,2.15-2.17l45.45-78.72v141.08c0,11.88,4.92,22.62,12.83,30.31h0ZM193.86,392.64c3.67,7.24.78,16.13-6.44,19.83-11.45,5.87-19.51,16.95-21.54,29.65-1.29,8.01-8.86,13.51-16.88,12.26-12.71-1.99-25.74,2.25-34.85,11.32-5.75,5.73-15.11,5.73-20.86,0-7.63-7.61-18.01-11.81-28.65-11.81-2.06,0-4.14.16-6.2.48-8.02,1.26-15.59-4.24-16.87-12.26-2.04-12.7-10.09-23.78-21.54-29.65-7.23-3.7-10.12-12.59-6.45-19.83,5.82-11.48,5.82-25.17,0-36.65-3.67-7.24-.78-16.14,6.45-19.83,11.45-5.87,19.5-16.95,21.54-29.65,1.28-8.02,8.86-13.5,16.87-12.26,12.71,1.99,25.74-2.25,34.85-11.33,5.75-5.72,15.11-5.72,20.86,0,9.11,9.08,22.14,13.32,34.85,11.33,8.03-1.25,15.59,4.24,16.88,12.26,2.03,12.7,10.09,23.78,21.54,29.65,7.22,3.69,10.11,12.59,6.44,19.83-5.81,11.48-5.81,25.18,0,36.65h0ZM324.74,72.62v-30.31c0-11.88,4.93-22.62,12.84-30.31H72.46c-16.72,0-30.31,13.6-30.31,30.31v30.31h282.59ZM207.43,350.34h84.09l.41-43.54h-113.75c1.94,8.01,7.31,14.89,14.71,18.68,9.54,4.88,14.9,14.77,14.54,24.86h0ZM336.74,42.31c0-16.71,13.6-30.31,30.32-30.31s30.31,13.6,30.31,30.31v72.73l-39.65,68.67H120.53c-3.31,0-6,2.68-6,6s2.69,6,6,6h230.28l-25.14,43.54H120.53c-3.31,0-6,2.69-6,6s2.69,6,6,6h198.21l-25.14,43.55h-119.52c-5.5-8.89-15.98-14.12-26.92-12.41-8.95,1.4-18.12-1.58-24.53-7.97-10.42-10.38-27.38-10.38-37.8,0-.09.1-.19.18-.29.27V84.62h246.21c3.32,0,6-2.69,6-6v-36.31h0ZM303.91,309.49l-.34,36.29,31.26-18.44-30.92-17.85h0ZM306.19,296.96l38.34,22.13,106.36-184.23-38.33-22.13-106.37,184.23h0ZM418.56,102.34l10.73-18.58c2.37-4.11,6.22-7.05,10.84-8.29,4.62-1.23,9.42-.61,13.53,1.76l7.43,4.29c8.52,4.92,11.45,15.85,6.53,24.37l-10.73,18.58-38.33-22.13h0ZM481.99,356.34v36.31c0,23.33-18.98,42.31-42.31,42.31H180.84c-1.52,2.8-2.59,5.86-3.11,9.06-2.32,14.52-16.04,24.49-30.57,22.22-8.94-1.4-18.12,1.58-24.53,7.97-5.21,5.19-12.06,7.78-18.9,7.78s-13.69-2.59-18.89-7.78c-6.42-6.39-15.59-9.37-24.54-7.97-14.53,2.28-28.24-7.7-30.57-22.22-1.44-8.94-7.1-16.74-15.16-20.87-13.09-6.7-18.33-22.82-11.68-35.94,4.09-8.07,4.09-17.72,0-25.79-6.65-13.12-1.41-29.24,11.68-35.94,8.06-4.13,13.72-11.93,15.16-20.88,2.33-14.51,16.04-24.48,30.57-22.21,4.13.65,8.31.35,12.24-.78V84.62h-36.38c-3.32,0-6-2.69-6-6v-36.31C30.15,18.98,49.14,0,72.46,0h294.6c23.33,0,42.31,18.98,42.31,42.31v51.95l9.52-16.5c3.98-6.88,10.41-11.81,18.13-13.88,7.72-2.07,15.76-1.02,22.64,2.96l7.43,4.28c14.25,8.23,19.15,26.52,10.92,40.77l-68.64,118.89v119.56h66.62c3.31,0,6,2.69,6,6h0ZM133.34,353.92c2.35,2.34,2.35,6.14,0,8.48l-32.31,32.31c-1.17,1.17-2.71,1.76-4.24,1.76s-3.07-.59-4.24-1.76l-18.43-18.42c-2.34-2.34-2.34-6.14,0-8.49,2.34-2.34,6.14-2.34,8.49,0l14.18,14.18,28.07-28.06c2.34-2.35,6.14-2.35,8.48,0Z"/></g></svg>