<?xml version="1.0" encoding="UTF-8"?><svg id="Layer_2" xmlns="http://www.w3.org/2000/svg" viewBox="0 0 304.75 363.36"><defs><style>.cls-1{stroke:#457ff2;}.cls-1,.cls-2{fill:none;stroke-linecap:round;stroke-linejoin:round;stroke-width:12px;}.cls-2{stroke:#003153;}</style></defs><g id="Layer_1-2"><path class="cls-2" d="M6,45.09L152.38,6l146.38,39.09h0v38.96c0,99.33-56.89,189.88-146.38,232.99h0C62.89,273.94,6,183.38,6,84.05v-38.96"/><polyline class="cls-1" points="121.25 139.39 153.08 171.22 238.71 85.58"/><path class="cls-2" d="M233.17,289.16c34.35,6.85,56.68,17.96,56.68,30.51,0,20.82-61.55,37.7-137.47,37.7S14.91,340.48,14.91,319.66c0-12.44,21.96-23.47,55.82-30.33"/><path class="cls-1" d="M215.52,137.92c.08,1.3.12,2.62.12,3.94,0,35.01-28.38,63.39-63.39,63.39s-63.39-28.38-63.39-63.39,28.38-63.39,63.39-63.39c16.4,0,31.34,6.22,42.59,16.44"/></g></svg>