<?xml version="1.0" encoding="UTF-8"?><svg id="Layer_2" xmlns="http://www.w3.org/2000/svg" viewBox="0 0 502.48 298.01"><defs><style>.cls-1{fill:#003153;}.cls-2{fill:#457ff2;}</style></defs><g id="Layer_1-2"><rect class="cls-2" x="421.55" y="55.85" width="32.8" height="13" transform="translate(229.98 452.79) rotate(-70.06)"/><rect class="cls-2" x="452.85" y="82.93" width="35.18" height="13" transform="translate(36.01 290.89) rotate(-35.64)"/><rect class="cls-2" x="476.3" y="116.03" width="13" height="30.53" transform="translate(322.12 605.12) rotate(-86.48)"/><rect class="cls-2" x="390.52" y="39.61" width="13" height="30.8" transform="translate(-3.69 63.96) rotate(-9.17)"/><path class="cls-2" d="M359.83,231.26h-.05c-1.72-.01-3.37-.71-4.58-1.94l-48.35-49.08c-2.52-2.56-2.49-6.67.07-9.19l14.36-14.15c1.22-1.2,2.86-1.87,4.56-1.87h.05c1.72.01,3.37.71,4.58,1.94l48.36,49.08c2.52,2.56,2.49,6.67-.07,9.19l-14.36,14.15c-1.22,1.2-2.86,1.87-4.56,1.87ZM320.67,175.75l39.23,39.82,5.1-5.03-39.23-39.82-5.1,5.03Z"/><path class="cls-2" d="M423.78,166.84h-.05c-1.72-.01-3.37-.71-4.58-1.94l-48.35-49.08c-2.52-2.56-2.49-6.67.07-9.19l14.36-14.15c1.23-1.21,2.91-1.86,4.61-1.87,1.72.01,3.37.71,4.58,1.94l48.35,49.07c2.52,2.56,2.49,6.67-.07,9.19l-14.36,14.15c-1.22,1.2-2.86,1.87-4.56,1.87ZM384.62,111.34l39.23,39.81,5.1-5.03-39.23-39.81-5.1,5.03Z"/><path class="cls-2" d="M335.11,172.25c-1.72,0-3.44-.68-4.71-2.02-2.47-2.6-2.37-6.72.24-9.19l46.99-44.62c2.6-2.47,6.72-2.37,9.19.24,2.47,2.6,2.37,6.72-.24,9.19l-46.99,44.62c-1.26,1.19-2.87,1.79-4.48,1.79Z"/><path class="cls-2" d="M367.78,207.73c-1.72,0-3.44-.68-4.71-2.02-2.47-2.6-2.37-6.72.24-9.19l46.99-44.62c2.6-2.47,6.72-2.37,9.19.24,2.47,2.6,2.37,6.72-.24,9.19l-46.99,44.62c-1.26,1.19-2.87,1.79-4.48,1.79Z"/><path class="cls-2" d="M383.03,277.38h-76.4c-3.59,0-6.5-2.91-6.5-6.5s2.91-6.5,6.5-6.5h76.4c3.59,0,6.5,2.91,6.5,6.5s-2.91,6.5-6.5,6.5Z"/><path class="cls-2" d="M400.92,298.01h-110.11c-3.59,0-6.5-2.91-6.5-6.5s2.91-6.5,6.5-6.5h110.11c3.59,0,6.5,2.91,6.5,6.5s-2.91,6.5-6.5,6.5Z"/><path class="cls-2" d="M480.43,261.65c-2.79,0-5.37-1.81-6.22-4.62-.11-.36-12.06-37.64-55.14-58.01-3.25-1.54-4.63-5.41-3.1-8.66,1.53-3.25,5.41-4.63,8.65-3.1,48.49,22.93,61.49,64.24,62.02,65.99,1.04,3.44-.9,7.07-4.34,8.11-.63.19-1.26.28-1.89.28Z"/><path class="cls-2" d="M469.11,272.46c-.86,0-1.74-.17-2.58-.54-43.34-18.77-63.27-62.51-64.1-64.37-1.46-3.28,0-7.12,3.29-8.59,3.28-1.46,7.12,0,8.58,3.28.19.43,18.81,41.03,57.4,57.75,3.29,1.43,4.81,5.25,3.38,8.55-1.06,2.45-3.45,3.92-5.97,3.92Z"/><path class="cls-2" d="M472.66,286.28c-1.75,0-3.5-.7-4.78-2.09-2.43-2.64-2.27-6.75.37-9.19l23.32-21.5c2.64-2.43,6.75-2.27,9.18.37,2.43,2.64,2.27,6.75-.37,9.19l-23.32,21.5c-1.25,1.15-2.83,1.72-4.4,1.72Z"/><path class="cls-2" d="M407.52,210.27c-.21,0-.42,0-.64-.03l-11.43-1.12c-1.68-.16-3.23-.97-4.32-2.26l-.61-.72c-2.26-2.67-2.01-6.64.57-9l24.14-22.09c1.88-1.72,4.59-2.18,6.93-1.18,2.34,1,3.89,3.27,3.95,5.82l.3,12.05c.09,3.59-2.75,6.57-6.34,6.66-2.91.03-5.42-1.77-6.31-4.39l-4,3.66c2.71,1,4.52,3.72,4.22,6.73-.33,3.36-3.16,5.87-6.46,5.87Z"/><path class="cls-1" d="M270.88,291.45h0c-97.76-.13-264.38-.33-264.38-.33-1.73,0-3.38-.69-4.6-1.91C.68,287.99,0,286.33,0,284.6L.79,45.35c.01-3.58,2.92-6.48,6.5-6.48h0l330.41.45c1.73,0,3.38.69,4.6,1.92,1.22,1.22,1.9,2.88,1.89,4.61,0,0-.13,34.44-.31,73.25-.02,3.58-2.92,6.47-6.5,6.47h-.03c-3.59-.02-6.49-2.94-6.47-6.53.13-28.66.23-54.94.28-66.72l-317.4-.43-.75,226.25c31.67.04,171.59.2,257.87.32,3.59,0,6.5,2.92,6.49,6.51,0,3.59-2.91,6.49-6.5,6.49Z"/><path class="cls-1" d="M220.66,34.28h-.02c-3.59-.01-6.49-2.93-6.48-6.52l.05-14.75-84.19.06.09,14.67c.02,3.59-2.87,6.52-6.46,6.54h-.04c-3.57,0-6.48-2.88-6.5-6.46l-.13-21.2c-.01-1.73.67-3.39,1.89-4.62,1.22-1.23,2.88-1.92,4.61-1.92l97.25-.07h0c1.73,0,3.38.69,4.6,1.91,1.22,1.22,1.9,2.88,1.9,4.61l-.07,21.28c-.01,3.58-2.92,6.48-6.5,6.48Z"/><path class="cls-1" d="M80.76,143.51c-3.57,0-6.48-2.88-6.5-6.46l-.57-86.04c-.02-3.59,2.87-6.52,6.46-6.54h.04c3.57,0,6.48,2.88,6.5,6.46l.57,86.04c.02,3.59-2.87,6.52-6.46,6.54h-.04Z"/><path class="cls-1" d="M115.77,143.56c-3.58,0-6.49-2.9-6.5-6.48l-.3-86.32c-.01-3.59,2.89-6.51,6.48-6.52h.02c3.58,0,6.49,2.9,6.5,6.48l.3,86.32c.01,3.59-2.89,6.51-6.48,6.52h-.02Z"/><path class="cls-1" d="M229.48,143.56h-.03c-3.59-.02-6.49-2.94-6.47-6.53l.43-86.09c.02-3.58,2.92-6.47,6.5-6.47h.03c3.59.02,6.49,2.94,6.47,6.53l-.43,86.09c-.02,3.58-2.92,6.47-6.5,6.47Z"/><path class="cls-1" d="M265.76,143.28c-3.57,0-6.48-2.88-6.5-6.46l-.57-86.04c-.02-3.59,2.87-6.52,6.46-6.54h.04c3.57,0,6.48,2.88,6.5,6.46l.57,86.04c.02,3.59-2.87,6.52-6.46,6.54h-.04Z"/><path class="cls-1" d="M145.08,152.27c-3.59,0-6.5-2.9-6.5-6.49,0-3.59,2.9-6.5,6.49-6.51l54.05-.07h0c3.59,0,6.5,2.9,6.5,6.49,0,3.59-2.9,6.5-6.49,6.51l-54.05.07h0Z"/><path class="cls-1" d="M52.59,189.3c-29.02,0-51.5-20.13-52.32-46.98-.11-3.59,2.71-6.59,6.3-6.7,3.6-.1,6.59,2.71,6.7,6.3.61,19.96,17.14,34.38,39.35,34.38.11,0,.22,0,.33,0,.03,0,201.63-.42,236.25-.49h.01c3.58,0,6.49,2.9,6.5,6.49,0,3.59-2.9,6.51-6.49,6.51-34.63.07-236.23.49-236.23.49-.14,0-.27,0-.41,0Z"/><path class="cls-1" d="M129.01,227.84h-61.96c-3.57,0-6.47-2.88-6.5-6.45l-.12-13.76c-.03-3.59,2.86-6.52,6.45-6.55h.06c3.57,0,6.47,2.87,6.5,6.45l.06,7.32h48.96l-.06-7.3c-.03-3.59,2.86-6.52,6.45-6.55h.05c3.57,0,6.47,2.88,6.5,6.45l.11,13.86c.01,1.73-.67,3.4-1.89,4.63-1.22,1.23-2.88,1.92-4.61,1.92Z"/><path class="cls-1" d="M82.07,286.26c-3.57,0-6.48-2.88-6.5-6.46l-.38-56.79c-.02-3.59,2.87-6.52,6.46-6.54h.04c3.57,0,6.48,2.88,6.5,6.46l.38,56.79c.02,3.59-2.87,6.52-6.46,6.54h-.04Z"/><path class="cls-1" d="M114.42,287.3c-3.59,0-6.5-2.91-6.5-6.5l-.03-58.04c0-3.59,2.91-6.5,6.5-6.5h0c3.59,0,6.5,2.91,6.5,6.5l.03,58.04c0,3.59-2.91,6.5-6.5,6.5h0Z"/><path class="cls-1" d="M216.7,227.84c-3.56,0-6.47-2.87-6.5-6.44l-.12-13.17c-.03-3.59,2.85-6.53,6.44-6.56h.06c3.56,0,6.47,2.87,6.5,6.44l.06,6.69,49.01-.33v-7.14c0-3.59,2.91-6.5,6.5-6.5s6.5,2.91,6.5,6.5v13.6c0,3.57-2.88,6.48-6.46,6.5l-61.95.41h-.04Z"/><path class="cls-1" d="M231.71,286.26c-3.57,0-6.48-2.88-6.5-6.46l-.37-56.79c-.02-3.59,2.87-6.52,6.46-6.54h.04c3.57,0,6.48,2.88,6.5,6.46l.37,56.79c.02,3.59-2.87,6.52-6.46,6.54h-.04Z"/><path class="cls-1" d="M263.89,287.96h-.02c-3.59,0-6.49-2.93-6.48-6.52l.14-58.71c0-3.58,2.92-6.48,6.5-6.48h.02c3.59,0,6.49,2.93,6.48,6.52l-.14,58.71c0,3.59-2.92,6.48-6.5,6.48Z"/></g></svg>