<?xml version="1.0" encoding="UTF-8"?><svg id="Layer_2" xmlns="http://www.w3.org/2000/svg" viewBox="0 0 967.23 989.89"><defs><style>.cls-1{fill:#003153;}.cls-2{fill-rule:evenodd;}.cls-2,.cls-3{fill:#457ff2;}</style></defs><g id="Layer_1-2"><path class="cls-1" d="M146.35,674.2c14.1-6.79,26.16-12.86,36.83-18.27h0l.15-.07h0c61.31-31.13,82.93-42.09,178.65-27.47l58.02,8.84h0l1.83.29,2.56.44h.15l23.96,3.65,3.29.51v.15l148.4,23.38h.15l.15.07c9.21,1.17,17.76,4.09,25.35,8.48,7.82,4.46,14.69,10.52,20.17,17.54,5.41,7.09,9.57,15.2,11.98,23.89,2.27,8.4,3.07,17.39,1.9,26.52v.15l-.07.22v.07c-.15,1.24-.37,2.41-.51,3.58l227.02-103.1,2.27-.88.44-.15c7.38-1.9,14.76-2.41,21.92-1.68,7.46.73,14.62,2.78,21.19,5.99,6.58,3.21,12.64,7.6,17.83,13.01,4.97,5.19,9.14,11.4,12.13,18.41,3,6.94,4.68,14.17,5.04,21.41.44,7.38-.51,14.83-2.7,21.77-2.19,7.09-5.62,13.74-10.15,19.65-4.39,5.7-9.87,10.74-16.3,14.76l-.15.07-.15.15c-20.24,11.98-51.73,30.54-83.23,49.1h0l-.22.15h0c-29.88,17.61-59.84,35.22-92.28,54.44-30.84,18.34-61.6,36.83-92.21,55.46-24.19,14.83-45.23,23.67-67.74,28.35-22.36,4.75-46.11,5.19-75.84,3.29-27.91-1.83-57-6.43-85.05-13.08-29.59-7.01-58.16-16.22-83.15-26.67-12.42-5.19-22.29-10.01-30.47-13.96h0c-1.68-.8-4.02-1.97-6.28-3.14-17.9-8.91-30.18-15.13-51.51-1.68l3.51,6.14h0c1.9,3.29,3.07,6.79,3.58,10.38.44,3.73.22,7.45-.73,11.03-.95,3.51-2.63,6.87-4.9,9.86-2.19,2.85-4.97,5.33-8.26,7.23l-92.87,53.63c-3.29,1.9-6.79,3.07-10.37,3.51h0c-3.14.44-6.36.29-9.35-.29h-.15l-1.54-.37c-3.51-.95-6.94-2.63-9.86-4.89-2.85-2.19-5.34-4.97-7.23-8.26L3.72,754.58c-1.9-3.29-3-6.8-3.51-10.38H.22c-.44-3.73-.22-7.45.73-10.96h0v-.07h0c.95-3.58,2.63-6.94,4.9-9.87,2.19-2.85,4.97-5.33,8.26-7.23h0l92.87-53.63c3.29-1.9,6.87-3.07,10.37-3.58,3.73-.44,7.46-.22,11.04.73l.07.07c3.51.95,6.87,2.56,9.79,4.82,2.85,2.19,5.34,4.97,7.24,8.26l.88,1.46ZM255.01,862.42c31.35-21.63,48.08-13.37,77.38,1.1,2.34,1.17,4.82,2.41,7.38,3.65,3.87,1.9,8.11,3.94,13.01,6.21,4.82,2.27,10.08,4.6,16.08,7.09,23.68,9.86,50.71,18.63,78.69,25.28,26.6,6.28,54.07,10.67,80.38,12.35,27.91,1.83,49.03,1.46,68.61-2.63,19.51-4.17,37.63-12.13,59.7-25.58,30.25-18.49,60.72-36.75,91.33-54.95,29.01-17.17,60.72-35.88,92.36-54.51l.29-.15c23.97-14.1,47.93-28.28,83.08-49.03l.22-.22c3.29-2.12,6.14-4.82,8.4-7.82,2.48-3.14,4.31-6.79,5.48-10.52,1.17-3.87,1.75-7.96,1.54-12.06-.22-3.95-1.1-7.89-2.78-11.69-1.61-3.8-3.87-7.16-6.65-10.01-2.78-2.92-6.14-5.33-9.72-7.16-3.5-1.68-7.3-2.78-11.18-3.21-3.58-.44-7.3-.29-11.04.51-5.41,2.78-23.89,11.18-55.6,25.58-45.45,20.68-118.08,53.63-217.53,99.74-9.86,5.55-14.69,7.02-25.42,8.26-5.41.66-10.96.66-16.51,0l-.15-.07-159.14-25.35-.29-.07c-4.46-1.1-7.45-4.46-8.7-8.48-.65-2.05-.88-4.31-.58-6.43.29-2.26,1.1-4.46,2.34-6.36h.07c2.48-3.73,6.87-6.36,13.3-6.36l.59.07,156,24.92h0c5.48.66,10.88.22,15.85-1.17,5.26-1.46,10.08-3.94,14.39-7.23,4.24-3.29,7.82-7.38,10.52-12.06,2.34-4.02,4.02-8.55,4.82-13.3l.22-2.05c.73-5.41.29-10.67-1.1-15.64-1.39-5.11-3.87-9.86-7.09-14.03-3.21-4.17-7.24-7.67-11.84-10.38-3.51-1.97-7.38-3.51-11.47-4.38l-3.73-.59-173.24-27.25h0l-65.54-10.01c-43.62-6.72-70.22-7.6-92.65-3.29-22.51,4.31-41.29,13.81-69.05,27.91-5.99,3.07-12.42,6.36-18.12,9.21-5.19,2.56-10.89,5.41-17.39,8.48l94.48,163.67ZM121,686.99l-92.65,53.56,127.65,220.96,92.65-53.48-127.65-221.03Z"/><path class="cls-3" d="M672.66,22.8c-35.44-14.69-74.31-22.8-115.08-22.8s-79.65,8.11-115.16,22.8c-36.83,15.27-69.93,37.63-97.69,65.4-27.77,27.77-50.12,60.87-65.4,97.69-14.69,35.51-22.8,74.38-22.8,115.16,0,8.26.37,16.51,1.02,24.62h30.47c-.73-8.11-1.1-16.37-1.1-24.62,0-36.68,7.31-71.61,20.46-103.54,13.73-33.1,33.83-62.91,58.82-87.83,24.92-24.99,54.73-45.08,87.83-58.82,31.93-13.15,66.86-20.46,103.54-20.46s71.61,7.31,103.46,20.46c33.1,13.74,62.91,33.83,87.9,58.82,24.92,24.92,45.01,54.73,58.75,87.83,2.41,5.77,4.6,11.62,6.58,17.61h0c3.51,7.16,11.98,10.45,19.36,7.45,7.46-3,11.33-11.18,8.84-18.78-2.04-6.07-4.31-12.06-6.72-17.9-15.27-36.83-37.63-69.93-65.32-97.69-27.77-27.77-60.94-50.13-97.77-65.4h0Z"/><path class="cls-2" d="M211.53,285.33l51.74,51.66c2.77,2.85,6.5,4.24,10.23,4.24s7.38-1.39,10.23-4.24l51.73-51.66c5.55-5.63,5.55-14.76,0-20.31h-.08c-5.55-5.63-14.69-5.63-20.24,0l-41.65,41.65-41.65-41.65c-5.63-5.63-14.76-5.63-20.31,0h0c-5.55,5.55-5.55,14.69,0,20.31h0Z"/><path class="cls-3" d="M444.4,579.21c35.44,14.69,74.31,22.8,115.08,22.8s79.65-8.11,115.08-22.8c36.9-15.27,70-37.63,97.76-65.4,27.77-27.77,50.13-60.87,65.4-97.69,13.3-32.22,21.26-67.3,22.58-104.05l24.92,24.92c5.55,5.63,14.69,5.63,20.31,0h0c5.55-5.55,5.55-14.69,0-20.31l-51.73-51.66c-2.78-2.85-6.5-4.24-10.23-4.24s-7.45,1.39-10.23,4.24l-51.73,51.66c-5.55,5.63-5.55,14.76,0,20.31h0c5.62,5.63,14.76,5.63,20.31,0l28.06-28.06c-.95,33.76-8.11,65.98-20.38,95.57-13.66,33.1-33.76,62.91-58.75,87.83-24.92,24.99-54.73,45.08-87.83,58.82-31.93,13.15-66.85,20.46-103.54,20.46s-71.61-7.31-103.46-20.46c-33.17-13.74-62.91-33.83-87.9-58.82-24.92-24.92-45.01-54.73-58.75-87.83-2.41-5.77-4.6-11.62-6.58-17.61h0c-3.5-7.16-11.98-10.45-19.43-7.45-7.38,3-11.25,11.18-8.84,18.78,2.12,6.06,4.31,12.06,6.79,17.9,15.2,36.83,37.56,69.93,65.32,97.69,27.77,27.77,60.94,50.13,97.77,65.4h0Z"/><path class="cls-2" d="M461.79,405.46c0-.95.07-1.97.29-2.92.22-.95.51-1.9.88-2.78.36-.95.8-1.83,1.39-2.63h0c.51-.8,1.17-1.61,1.82-2.26.66-.66,1.46-1.32,2.27-1.83h0c.81-.58,1.68-1.02,2.56-1.39.95-.36,1.83-.66,2.85-.88.95-.15,1.9-.29,2.93-.29h0c.95,0,1.9.15,2.85.29,1.02.22,1.97.51,2.85.88.51.22.95.44,1.46.73.37.15.73.36,1.02.58h.51l.36.36,1.46,1.54c.73.73,1.31,1.46,1.9,2.26h0c.51.8,1.02,1.68,1.39,2.63.36.88.65,1.83.8,2.78h0c.22.95.29,1.9.29,2.92v155.27c0,2.04-.36,3.94-1.09,5.77-.81,1.82-1.9,3.51-3.29,4.89-1.39,1.39-3.07,2.48-4.9,3.29-1.83.73-3.73,1.09-5.77,1.09s-3.95-.36-5.77-1.09c-1.83-.81-3.51-1.9-4.89-3.29-1.39-1.39-2.49-3.07-3.29-4.89-.73-1.83-1.1-3.73-1.1-5.77v-1.32c0-143.07.22-10.96.22-153.95h0Z"/><path class="cls-2" d="M665.43,559.41v1.32c0,2.04-.44,3.94-1.17,5.77-.81,1.82-1.9,3.51-3.29,4.89-1.39,1.39-3.07,2.48-4.89,3.29-1.76.73-3.73,1.09-5.77,1.09s-3.95-.36-5.77-1.09c-1.83-.81-3.51-1.9-4.9-3.29-1.39-1.39-2.48-3.07-3.21-4.89-.81-1.83-1.17-3.73-1.17-5.77v-155.27c0-1.02.08-1.97.29-2.92h0c.22-.95.44-1.9.88-2.78.36-.95.8-1.83,1.38-2.63h-.07c.58-.8,1.17-1.53,1.9-2.26l1.54-1.54.36-.36h.44c.36-.22.65-.44,1.02-.58h0c.51-.29,1.02-.51,1.46-.73.95-.36,1.83-.66,2.85-.88.95-.15,1.9-.29,2.93-.29h0c.95,0,1.9.15,2.85.29,1.02.22,1.97.51,2.85.88.88.37,1.75.8,2.56,1.39h0c.88.51,1.61,1.17,2.26,1.83.74.66,1.32,1.46,1.9,2.26.51.8,1.02,1.68,1.39,2.63.36.88.65,1.83.8,2.78.22.95.29,1.97.29,2.92,0,142.99.29,10.89.29,153.95h0Z"/><path class="cls-2" d="M563.5,301.7h-54.73c-5.63,0-11.04.51-16.37,1.61-5.41,1.02-10.67,2.63-15.64,4.75-5.12,2.12-10.01,4.75-14.54,7.75-4.6,3.14-8.91,6.65-12.79,10.6-7.82,7.74-14.1,17.02-18.34,27.25-2.05,5.04-3.73,10.3-4.75,15.71-1.09,5.26-1.61,10.74-1.61,16.37v123.19-52.24,27.69c0,2.05-.44,4.02-1.17,5.77-.73,1.83-1.9,3.51-3.29,4.9-1.39,1.39-3.07,2.56-4.9,3.29-1.75.73-3.73,1.17-5.77,1.17s-3.95-.44-5.7-1.17c-1.9-.73-3.58-1.9-4.97-3.29-1.39-1.39-2.48-3.07-3.22-4.9-.8-1.75-1.17-3.73-1.17-5.77v-21.26h0v-77.38c0-3.73.15-7.45.51-11.18.36-3.73.95-7.45,1.68-11.03.73-3.65,1.61-7.23,2.7-10.81,1.1-3.65,2.34-7.16,3.8-10.52,1.46-3.51,3-6.87,4.82-10.16,1.75-3.29,3.66-6.5,5.77-9.65,2.12-3.14,4.31-6.14,6.72-9.06,2.41-2.92,4.89-5.7,7.53-8.26h0c2.63-2.63,5.41-5.19,8.33-7.53,2.85-2.41,5.92-4.6,9.06-6.72,3.07-2.12,6.28-4.02,9.57-5.85,3.29-1.75,6.65-3.36,10.16-4.75,3.43-1.46,6.94-2.7,10.52-3.8,3.58-1.1,7.16-1.97,10.82-2.7,3.58-.73,7.3-1.32,11.03-1.68s7.45-.51,11.18-.51h109.38c3.73,0,7.46.15,11.18.51,3.8.37,7.45.95,11.03,1.68,3.66.73,7.23,1.61,10.81,2.7,3.66,1.1,7.16,2.34,10.6,3.8,3.43,1.39,6.79,3,10.08,4.75,3.29,1.83,6.5,3.73,9.64,5.85,3.14,2.12,6.14,4.31,9.06,6.72,2.85,2.34,5.62,4.9,8.26,7.53h0c5.26,5.19,10.08,11.03,14.25,17.32,2.12,3.14,4.02,6.36,5.84,9.65,1.75,3.29,3.36,6.65,4.75,10.16,1.46,3.36,2.7,6.87,3.8,10.52,1.1,3.58,2.05,7.16,2.7,10.81.73,3.58,1.31,7.31,1.68,11.03.37,3.73.51,7.45.51,11.18v77.38h0v21.26c0,2.05-.37,4.02-1.1,5.77-.8,1.83-1.9,3.51-3.29,4.9-1.39,1.39-3.07,2.56-4.9,3.29-1.82.73-3.73,1.17-5.77,1.17s-4.02-.44-5.77-1.17c-1.83-.73-3.5-1.9-4.89-3.29-1.39-1.39-2.49-3.07-3.29-4.9-.73-1.75-1.1-3.73-1.1-5.77v-68.25,40.85-71.24c0-5.63-.58-11.11-1.61-16.37-1.1-5.41-2.7-10.67-4.82-15.71-2.12-5.12-4.75-9.94-7.75-14.47-3.07-4.6-6.65-8.92-10.52-12.79-3.95-3.95-8.26-7.45-12.86-10.6-4.53-3-9.35-5.63-14.46-7.75-5.05-2.12-10.31-3.73-15.71-4.75-5.26-1.09-10.74-1.61-16.37-1.61h-54.66Z"/><path class="cls-2" d="M563.5,75.55c2.85,0,5.77.15,8.62.44h0c2.92.29,5.85.73,8.62,1.24,2.85.58,5.63,1.32,8.4,2.12,2.78.88,5.55,1.83,8.19,2.92,2.7,1.17,5.33,2.41,7.89,3.73,2.56,1.39,5.04,2.92,7.46,4.53,2.48,1.61,4.82,3.36,7.01,5.19,2.27,1.83,4.46,3.8,6.43,5.85,2.05,1.97,4.02,4.17,5.84,6.43,1.83,2.19,3.58,4.53,5.19,7.01,1.61,2.41,3.14,4.9,4.53,7.45,1.32,2.56,2.56,5.19,3.73,7.89,1.09,2.63,2.04,5.41,2.92,8.18.81,2.78,1.54,5.55,2.12,8.4.51,2.78.95,5.7,1.24,8.62h0c.29,2.85.44,5.77.44,8.62s-.15,5.85-.44,8.7h0c-.29,2.92-.73,5.84-1.24,8.62-.58,2.78-1.31,5.63-2.12,8.4-.88,2.78-1.83,5.48-2.92,8.18-1.17,2.7-2.41,5.33-3.73,7.89-1.38,2.56-2.92,5.04-4.53,7.45-1.61,2.48-3.36,4.82-5.19,7.01-1.83,2.27-3.8,4.46-5.84,6.43-1.97,2.05-4.16,4.02-6.43,5.85h0c-2.19,1.83-4.53,3.58-7.01,5.19-2.41,1.61-4.9,3.14-7.46,4.46-2.56,1.39-5.19,2.63-7.89,3.73-2.63,1.17-5.41,2.12-8.19,3-2.77.8-5.55,1.53-8.4,2.05-2.77.59-5.7,1.02-8.62,1.32h0c-2.85.29-5.77.44-8.62.44s-5.84-.15-8.69-.44h0c-2.92-.29-5.77-.73-8.62-1.32-2.77-.51-5.62-1.24-8.4-2.05-2.77-.88-5.48-1.83-8.18-2.92-2.7-1.17-5.34-2.41-7.89-3.73-2.55-1.39-5.04-2.92-7.45-4.53-2.41-1.61-4.75-3.36-7.01-5.19h0c-2.27-1.83-4.39-3.8-6.43-5.85-2.05-1.97-4.02-4.16-5.84-6.43-1.83-2.19-3.59-4.53-5.19-7.01-1.61-2.41-3.14-4.9-4.46-7.45-1.39-2.56-2.63-5.19-3.73-7.89-1.17-2.7-2.12-5.41-3-8.18-.8-2.78-1.53-5.63-2.05-8.4-.58-2.78-1.02-5.7-1.31-8.62h0c-.29-2.85-.44-5.77-.44-8.7s.15-5.77.44-8.62h0c.29-2.92.73-5.85,1.31-8.62.51-2.85,1.24-5.63,2.05-8.4.88-2.78,1.83-5.55,3-8.18,1.09-2.7,2.34-5.33,3.73-7.89,1.31-2.56,2.85-5.04,4.46-7.45,1.61-2.48,3.36-4.82,5.19-7.01,1.82-2.27,3.8-4.46,5.84-6.43,2.04-2.05,4.16-4.02,6.43-5.85,2.19-1.83,4.53-3.58,7.01-5.19,2.41-1.61,4.9-3.14,7.45-4.53,2.56-1.31,5.19-2.56,7.89-3.73,2.7-1.1,5.41-2.05,8.18-2.92,2.78-.8,5.63-1.53,8.4-2.12,2.85-.51,5.7-.95,8.62-1.24h0c2.85-.29,5.77-.44,8.69-.44h0ZM604.27,123.41c-1.39-1.31-2.78-2.63-4.24-3.8-1.46-1.17-3-2.34-4.53-3.36-1.61-1.1-3.22-2.05-4.89-2.92-1.61-.88-3.29-1.68-5.04-2.41-1.68-.73-3.5-1.32-5.26-1.9-1.83-.51-3.65-1.02-5.55-1.39-1.83-.36-3.73-.58-5.55-.8-1.83-.15-3.8-.29-5.7-.29s-3.87.15-5.7.29c-1.9.22-3.8.44-5.62.8-1.9.37-3.73.88-5.48,1.39-1.83.58-3.58,1.17-5.26,1.9h0c-1.75.73-3.51,1.53-5.12,2.41-1.68.88-3.29,1.82-4.82,2.92-1.61,1.02-3.07,2.12-4.53,3.36-1.46,1.17-2.85,2.48-4.23,3.87-1.39,1.32-2.7,2.78-3.88,4.16-1.24,1.46-2.34,3-3.36,4.53-1.02,1.61-2.05,3.22-2.93,4.9-.88,1.61-1.68,3.29-2.41,5.04-.73,1.68-1.31,3.51-1.9,5.33-.51,1.75-.95,3.58-1.31,5.48-.37,1.83-.66,3.73-.88,5.55-.15,1.9-.22,3.8-.22,5.7s.08,3.87.22,5.77c.22,1.83.51,3.73.88,5.55.36,1.9.8,3.73,1.31,5.48.58,1.83,1.17,3.58,1.9,5.33h0c.74,1.75,1.54,3.44,2.41,5.04.88,1.68,1.9,3.29,2.93,4.9,1.02,1.53,2.19,3.07,3.36,4.53,1.17,1.46,2.49,2.85,3.8,4.24h.08c1.31,1.32,2.7,2.63,4.16,3.8,1.46,1.17,3,2.34,4.6,3.36,1.54,1.1,3.14,2.05,4.82,2.92,1.61.88,3.36,1.68,5.12,2.41h0c1.68.73,3.43,1.31,5.26,1.9,1.75.51,3.58.95,5.48,1.32,1.82.37,3.73.66,5.62.88,1.83.15,3.73.22,5.7.22s3.87-.07,5.7-.22c1.83-.22,3.73-.51,5.55-.88,1.9-.37,3.73-.8,5.48-1.32h0c1.83-.58,3.65-1.17,5.33-1.9,1.76-.73,3.43-1.54,5.04-2.41,1.68-.88,3.29-1.83,4.89-2.92,1.54-1.02,3.07-2.12,4.53-3.36,1.39-1.17,2.85-2.48,4.24-3.87,2.63-2.7,5.12-5.63,7.16-8.77,2.12-3.07,3.87-6.43,5.33-9.86.74-1.75,1.32-3.51,1.9-5.33h0c.51-1.75,1.02-3.58,1.39-5.48.36-1.83.58-3.73.8-5.55.15-1.9.29-3.8.29-5.77s-.15-3.8-.29-5.7c-.22-1.83-.44-3.73-.8-5.55-.37-1.9-.88-3.73-1.39-5.48h0c-.58-1.83-1.17-3.65-1.9-5.33-.73-1.75-1.53-3.43-2.41-5.04-.88-1.68-1.82-3.29-2.92-4.9-1.02-1.53-2.12-3.07-3.36-4.53-1.17-1.46-2.48-2.85-3.8-4.16v-.07Z"/></g></svg>