<?xml version="1.0" encoding="UTF-8"?><svg id="Layer_2" xmlns="http://www.w3.org/2000/svg" viewBox="0 0 197.83 187.38"><defs><style>.cls-1{stroke:#003153;}.cls-1,.cls-2{fill:none;stroke-linecap:round;stroke-linejoin:round;stroke-width:5.64px;}.cls-2{stroke:#457ff2;}</style></defs><g id="Layer_1-2"><path class="cls-1" d="M103.24,155.2H2.82v-20.48c0-36.42,29.51-65.93,65.96-65.93h13.54c21.41,0,40.4,10.19,52.42,25.99"/><circle class="cls-1" cx="75.55" cy="35.8" r="32.98" transform="translate(23.35 101.1) rotate(-76.72)"/><path class="cls-2" d="M153.35,142.9c-4.7,0-8.52-3.56-8.52-7.95s3.81-7.95,8.52-7.95,8.52,3.56,8.52,7.95"/><line class="cls-2" x1="153.35" y1="121.21" x2="153.35" y2="127.01"/><path class="cls-2" d="M153.35,142.9c4.7,0,8.52,3.56,8.52,7.95s-3.81,7.95-8.52,7.95-8.52-3.56-8.52-7.95"/><line class="cls-2" x1="153.35" y1="164.6" x2="153.35" y2="158.8"/><circle class="cls-2" cx="153.35" cy="142.9" r="41.66" transform="translate(-56.13 150.29) rotate(-45)"/></g></svg>