<?xml version="1.0" encoding="UTF-8"?><svg id="Layer_2" xmlns="http://www.w3.org/2000/svg" viewBox="0 0 59.51 55.19"><defs><style>.cls-1{stroke:#457ff2;}.cls-1,.cls-2{fill:none;stroke-linecap:round;stroke-linejoin:round;stroke-width:1.5px;}.cls-2{stroke:#003153;}</style></defs><g id="Layer_1-2"><path class="cls-2" d="M37.64,14.99h16.75c2.41,0,4.37,1.96,4.37,4.37v30.72c0,2.42-1.96,4.37-4.37,4.37H5.12c-2.41,0-4.37-1.95-4.37-4.37v-30.72c0-2.41,1.96-4.37,4.37-4.37h16.76"/><path class="cls-1" d="M14.28,34.29h.95c3.87,0,7.01,3.14,7.01,7.01v1.97H7.26v-1.97c0-3.87,3.14-7.01,7.01-7.01Z"/><path class="cls-1" d="M18.81,30.23c0,2.24-1.82,4.06-4.06,4.06s-4.06-1.82-4.06-4.06,1.82-4.06,4.06-4.06,4.06,1.82,4.06,4.06Z"/><line class="cls-2" x1="28.46" y1="33.1" x2="51.99" y2="33.1"/><line class="cls-2" x1="28.46" y1="38.75" x2="51.99" y2="38.75"/><line class="cls-2" x1="28.46" y1="33.1" x2="51.99" y2="33.1"/><line class="cls-2" x1="28.46" y1="27.45" x2="51.99" y2="27.45"/><line class="cls-2" x1="28.46" y1="44.4" x2="51.99" y2="44.4"/><polygon class="cls-2" points="37.64 .75 37.64 18.65 29.76 21.77 21.88 18.65 21.88 .75 37.64 .75"/><path class="cls-2" d="M32.61,12.78c0,1.58-1.28,2.85-2.85,2.85s-2.85-1.28-2.85-2.85,1.28-2.85,2.85-2.85,2.85,1.28,2.85,2.85Z"/><line class="cls-2" x1="37.64" y1=".75" x2="21.88" y2=".75"/></g></svg>