<?xml version="1.0" encoding="UTF-8"?><svg id="Layer_2" xmlns="http://www.w3.org/2000/svg" viewBox="0 0 54.55 54.7"><defs><style>.cls-1{stroke:#457ff2;}.cls-1,.cls-2{fill:none;stroke-linecap:round;stroke-linejoin:round;stroke-width:1.5px;}.cls-2{stroke:#003153;}</style></defs><g id="Layer_1-2"><path class="cls-2" d="M5.4,24.21h33.68v4.38c0,2.88-2.34,5.23-5.23,5.23H7.32c-1.06,0-1.92-.86-1.92-1.92v-7.68h0Z" transform="translate(11.26 -5.86) rotate(20)"/><polyline class="cls-2" points="28.77 36.5 27.26 40.67 26.41 43 4.9 35.17 7.26 28.67"/><polyline class="cls-2" points="27.26 40.67 31.19 42.11 32.78 37.76"/><polyline class="cls-2" points="16.75 39.49 15.66 42.48 8.31 39.81 9.4 36.81"/><circle class="cls-2" cx="11.58" cy="50.73" r="3.22"/><line class="cls-2" x1="11.59" y1="47.51" x2="11.95" y2="41.13"/><line class="cls-2" x1="8.38" y1="50.48" x2=".75" y2="50.48"/><polyline class="cls-2" points="53.8 6.05 53.8 .94 48.61 .94"/><polyline class="cls-2" points="48.61 28.68 53.8 28.68 53.8 23.49"/><polyline class="cls-2" points="31.06 .75 25.87 .75 25.87 5.93"/><path class="cls-1" d="M39.52,13.91h.92c3.75,0,6.79,3.04,6.79,6.79v1.91h-14.49v-1.91c0-3.75,3.04-6.79,6.79-6.79Z"/><path class="cls-1" d="M43.91,9.98c0,2.17-1.76,3.93-3.93,3.93s-3.93-1.76-3.93-3.93,1.76-3.93,3.93-3.93,3.93,1.76,3.93,3.93Z"/></g></svg>