<?xml version="1.0" encoding="UTF-8"?><svg id="Layer_2" xmlns="http://www.w3.org/2000/svg" viewBox="0 0 59.12 59.5"><defs><style>.cls-1{stroke:#457ff2;}.cls-1,.cls-2{fill:none;stroke-linecap:round;stroke-linejoin:round;stroke-width:1.5px;}.cls-2{stroke:#003153;}</style></defs><g id="Layer_1-2"><path class="cls-2" d="M8.28,50.74l-7.53,5.09.12-9.35L26.49,1.89c.63-1.09,2.02-1.46,3.1-.84l3.47,1.99c1.09.63,1.46,2.02.84,3.1L8.28,50.74Z"/><path class="cls-2" d="M23.82,6.54l9.41,5.4c.99.57,1.33,1.83.76,2.81l-6.94,12.08"/><line class="cls-2" x1="8.28" y1="50.74" x2=".87" y2="46.48"/><line class="cls-2" x1="15.78" y1="37.7" x2="8.36" y2="33.44"/><path class="cls-1" d="M4.58,58.16c7.78,1.83,16.44-.68,22.03-6.4-.23,1.22-.46,2.48-.17,3.69.28,1.21,1.22,2.36,2.46,2.47.63.06,1.25-.15,1.82-.41,1.74-.82,3.16-2.19,4.53-3.53-.06.66.45,1.26,1.05,1.52.6.27,1.28.28,1.94.29,6.68.07,10.93.04,20.14-5.96"/><path class="cls-1" d="M26.61,51.76s8.44-6.19,7.66-13.31c-.78-7.11-7.8,3.61-7.92,14.99"/></g></svg>