<?xml version="1.0" encoding="UTF-8"?> <svg xmlns="http://www.w3.org/2000/svg" id="b" data-name="Layer 1" viewBox="0 0 936.4 200.82"><g><polygon points="324.16 130.94 333.77 130.94 333.77 73.62 318.62 73.62 318.62 85.71 306.07 85.71 306.07 61.75 376.39 61.75 376.39 85.71 363.84 85.71 363.84 73.62 348.58 73.62 348.58 130.94 358.3 130.94 358.3 142.01 324.16 142.01 324.16 130.94" style="fill: #d9e5fc;"></polygon><path d="M406.58,83c16.62,0,25.66,12.1,25.66,27.36,0,.79,0,2.03-.11,3.05l-.23,1.81h-39.9c.9,10.51,8.59,16.05,17.3,16.05,4.86,0,8.81-1.36,11.87-3.05,1.81-.91,3.39-1.93,4.86-3.06l5.54,10.17c-1.69,1.47-3.84,2.71-6.22,3.96-4.07,2.15-9.84,4.07-17.07,4.07-19.11,0-30.98-13.9-30.98-30.18,0-17.75,11.98-30.19,29.28-30.19M417.44,106.74c-.34-8.03-4.98-12.66-11.19-12.66-7.35,0-12.55,4.98-13.9,12.66h25.1Z" style="fill: #d9e5fc;"></path><path d="M438.14,122.79h12.21v3.39c0,3.95,5.31,5.99,11.31,5.99s9.83-1.92,9.83-5.88c0-4.74-5.43-6.22-13.11-8.93-8.36-3.05-18.2-6.78-18.2-17.86,0-12.21,12.32-16.5,22.72-16.5,8.37,0,20.8,3.28,20.8,11.98v7.35h-12.32v-3.28c0-3.06-3.39-4.75-8.48-4.75-4.52,0-8.36,1.59-8.36,5.2,0,4.75,5.65,6.79,12.09,8.59,8.82,2.71,19.22,6.45,19.22,17.75s-11.08,17.52-24.31,17.52c-10.4,0-23.4-4.52-23.4-13.9v-6.67Z" style="fill: #d9e5fc;"></path><path d="M498.73,95.1h-8.82v-10.74h9.27v-15.71h13.91v15.71h13.11v10.74h-13.11v24.3c0,9.95,7.46,11.2,11.53,11.2.79,0,1.47-.12,1.92-.12h.68v11.76l-1.24.22c-.79.11-1.81.11-3.17.11-8.14,0-24.08-2.37-24.08-21.71v-25.77Z" style="fill: #d9e5fc;"></path><path d="M534.13,130.94h9.61v-58h-9.61v-11.19h38.44c4.86,0,9.61.34,13.57,2.03,8.7,3.62,14.35,12.44,14.35,23.74s-5.88,21.14-15.27,24.42c-3.73,1.24-7.8,1.59-12.32,1.59h-14.35v17.41h9.72v11.08h-34.14v-11.08ZM570.98,101.66c3.27,0,5.99-.57,8.14-1.59,4.41-2.15,6.56-6.67,6.56-12.55,0-5.54-2.15-9.84-5.88-11.98-2.15-1.25-4.97-1.93-8.71-1.93h-12.54v28.04h12.44Z" style="fill: #d9e5fc;"></path><path d="M606.37,131.27h8.37v-33.69c0-1.69-.79-2.48-2.49-2.48h-6.44v-10.74h15.03c5.09,0,7.69,2.38,7.69,7.01v3.39c0,1.02,0,1.81-.11,2.6-.12.34-.12.68-.12,1.02h.23c2.71-8.26,9.38-14.81,18.31-14.81.79,0,1.36,0,1.81.11.34.11.56.11.79.11v14.13c-.35,0-.68,0-1.02-.11-.79-.12-1.47-.12-2.49-.12-11.64,0-16.84,10.18-16.84,21.03v12.55h8.25v10.74h-30.98v-10.74Z" style="fill: #d9e5fc;"></path><path d="M682.46,83c16.61,0,25.66,12.1,25.66,27.36,0,.79,0,2.03-.11,3.05l-.23,1.81h-39.9c.91,10.51,8.59,16.05,17.29,16.05,4.86,0,8.82-1.36,11.87-3.05,1.81-.91,3.39-1.93,4.86-3.06l5.54,10.17c-1.69,1.47-3.85,2.71-6.22,3.96-4.07,2.15-9.84,4.07-17.07,4.07-19.11,0-30.98-13.9-30.98-30.18,0-17.75,11.99-30.19,29.29-30.19M693.31,106.74c-.34-8.03-4.98-12.66-11.2-12.66-7.34,0-12.54,4.98-13.9,12.66h25.1Z" style="fill: #d9e5fc;"></path><path d="M722.26,153.88v-56.3c0-1.69-.79-2.48-2.48-2.48h-6.44v-10.74h14.8c5.32,0,7.13,2.38,7.13,5.43v2.15c0,.34,0,.57-.12.79h.22c1.02-1.81,2.5-3.39,4.19-4.86,3.05-2.6,7.57-4.87,14.36-4.87,15.6,0,25.55,12.32,25.55,30.19s-11.2,30.18-26.34,30.18c-5.77,0-9.84-1.92-12.55-4.07-1.58-1.24-2.94-2.6-4.07-4.07h-.22l.22,1.36c.12.91.12,2.15.12,3.62v13.68h8.36v10.74h-31.08v-10.74h8.36ZM750.53,131.27c7.91,0,14.47-6.44,14.47-17.86s-5.77-18.09-14.35-18.09c-7.58,0-14.47,5.54-14.47,18.2,0,8.92,4.86,17.74,14.36,17.74" style="fill: #d9e5fc;"></path><path d="M784,112.4l34.7-50.65h17.29v48.16h10.29v11.42h-10.29v20.69h-14.47v-20.69h-37.53v-8.93ZM799.15,109.68v.23h22.39v-26.79c0-1.69.11-3.16.34-4.52l.34-2.37h-.34l-.9,2.03c-.57,1.24-1.36,2.6-2.26,4.07l-19.56,27.36Z" style="fill: #d9e5fc;"></path><path d="M861.56,72.94h-9.61v-11.19h34.14v11.19h-9.73v38.89c0,4.52,1.02,8.59,2.72,11.42,2.83,4.52,8.37,7.12,15.14,7.12s11.99-2.37,15.04-7.24c1.81-3.05,2.72-6.9,2.72-11.41v-38.78h-9.62v-11.19h34.03v11.19h-9.61v38.89c0,7.8-2.15,15.04-5.88,20.12-5.87,7.69-15.82,11.42-26.68,11.42-11.42,0-21.14-4.07-26.68-11.3-4.19-5.31-5.99-12.1-5.99-20.23v-38.89Z" style="fill: #d9e5fc;"></path></g><g><path d="M125.48,8.32c-9.05,0-15.41,9.05-16.39,17.86-8.81,54.79-55.77,52.35-77.29,49.41-21.53-2.94-31.8-.49-31.8,7.34s15.41,21.65,37.52,34.31c21.36,12.23,50.54,36.39,50.54,52.77,0,19.08-29.35,30.82-29.35,30.82,73.38-25.93,86.59-130.37,86.59-154.35s-8.07-38.16-19.81-38.16" style="fill: #d9e5fc;"></path><path d="M22.01,60.35c2.76,1.55,12.3,7.19,15.15,9.63,1.73,1.53,3.2,3.14,4.05,4.17.03.03.06.06.09.09.53.47,1.14.15,1.35-.53l.68-2.38c.15-.47-.06-.97-.47-1.23-.79-.53-2.32-1.38-4.7-2.2-2.03-.72-6.6-2.87-10.43-4.72-2.44-1.17-4.14-2.57-4.9-3.26l19.84-4.34,6.28-1.38c2.87,8.28,10.77,14.24,20.02,14.24,11.71,0,21.23-9.51,21.23-21.22,0-6.22-2.67-11.8-6.96-15.67-.88-.8-1.83-1.51-2.84-2.16-.34-.22-.72-.39-1.08-.6-.68-.38-1.37-.75-2.1-1.06-.46-.2-.94-.35-1.42-.51-.67-.23-1.35-.44-2.05-.6-.23-.05-.44-.15-.67-.2,4.15.44,8.09,1.39,11.45,3L102.38,0l-55.77,12.12-24.94,48.02-.03.03.36.18ZM72.79,26.37c-.21-.04-.43-.03-.64-.06-.32-.05-.63-.14-.96-.18.55.03,1.05.18,1.59.24" style="fill: #d9e5fc;"></path><path d="M155.33,48.43v-15.41l33.02-17.37s5.17,91.24-85.96,172.45c0,0,59.06-67.02,68.35-147.25l-15.41,7.58Z" style="fill: #b4ccfa;"></path><path d="M189.35,73.17l3.39-14.43,34.74-8.99s-15.25,86.56-118.44,142.53c0,0,70.05-49.75,96.41-122.82l-16.1,3.71Z" style="fill: #8fb2f7;"></path><path d="M211.83,115.6l6.45-11.03,35.11,1.63s-34.51,67.45-133.73,87.39c0,0,70.32-23.22,110.57-76.74l-18.41-1.26Z" style="fill: #6a99f4;"></path><path d="M231.15,154.65l8.8-10.05,34.29,12.25s-45.69,46.18-131.94,36.76c0,0,62.35.05,109.12-33.25l-20.27-5.71Z" style="fill: #457ff2;"></path></g></svg> 