<?xml version="1.0" encoding="UTF-8"?><svg id="Layer_2" xmlns="http://www.w3.org/2000/svg" viewBox="0 0 199.71 198.18"><defs><style>.cls-1{stroke:#003153;}.cls-1,.cls-2{fill:none;stroke-linecap:round;stroke-linejoin:round;stroke-width:5.64px;}.cls-2{stroke:#457ff2;}</style></defs><g id="Layer_1-2"><circle class="cls-1" cx="42.69" cy="109.87" r="18.57" transform="translate(-75.12 105.94) rotate(-66.85)"/><path class="cls-1" d="M2.82,195.36l11.88-47.05c1.7-6.69,7.72-11.37,14.61-11.37,4.1,0,8.01,1.15,11.37,3.24,3.36,2.08,6.12,5.06,7.94,8.74l6.79,13.71h20.63c6.02,0,10.92,4.9,10.92,10.92,0,3.01-1.22,5.73-3.2,7.72-1.99,1.99-4.71,3.2-7.72,3.2h-24.98l-9.45-9.93-3.78,20.82"/><line class="cls-1" x1="116.53" y1="195.36" x2="116.53" y2="184.46"/><line class="cls-1" x1="76.04" y1="184.46" x2="196.89" y2="184.46"/><polygon class="cls-1" points="160.21 169.94 96.47 169.94 106.55 128.44 170.28 128.44 160.21 169.94"/><line class="cls-1" x1="133.38" y1="169.94" x2="137.08" y2="184.46"/><path class="cls-2" d="M99.09,45.27c-4.79,0-8.68-3.63-8.68-8.1s3.89-8.1,8.68-8.1,8.68,3.63,8.68,8.1"/><line class="cls-2" x1="99.09" y1="23.17" x2="99.09" y2="29.07"/><path class="cls-2" d="M99.09,45.27c4.79,0,8.68,3.63,8.68,8.1s-3.89,8.1-8.68,8.1-8.68-3.63-8.68-8.1"/><line class="cls-2" x1="99.09" y1="67.38" x2="99.09" y2="61.47"/><circle class="cls-2" cx="99.09" cy="45.27" r="42.45"/></g></svg>