<?xml version="1.0" encoding="UTF-8"?><svg id="Layer_2" xmlns="http://www.w3.org/2000/svg" viewBox="0 0 274.56 248.08"><defs><style>.cls-1{fill:#003153;}.cls-2{fill:#457ff2;}</style></defs><g id="Layer_1-2"><path class="cls-1" d="M26.15,204.35v-6.58c0-3.86-6-3.87-6,0v6.58c0,3.86,6,3.87,6,0h0Z"/><path class="cls-1" d="M46.29,204.35v-6.58c0-3.86-6-3.87-6,0v6.58c0,3.86,6,3.87,6,0h0Z"/><path class="cls-1" d="M66.44,204.35v-6.58c0-3.86-6-3.87-6,0v6.58c0,3.86,6,3.87,6,0h0Z"/><path class="cls-1" d="M86.58,204.35v-6.58c0-3.86-6-3.87-6,0v6.58c0,3.86,6,3.87,6,0h0Z"/><path class="cls-1" d="M106.73,204.35v-6.58c0-3.86-6-3.87-6,0v6.58c0,3.86,6,3.87,6,0h0Z"/><path class="cls-1" d="M126.87,204.35v-6.58c0-3.86-6-3.87-6,0v6.58c0,3.86,6,3.87,6,0h0Z"/><path class="cls-1" d="M0,2.9v201.45c0,1.62,1.37,3,3,3h138.41c3.86,0,3.87-6,0-6H3l3,3V2.9C6-.96,0-.97,0,2.9h0Z"/><path class="cls-1" d="M3,26.04h6.58c3.86,0,3.87-6,0-6H3c-3.86,0-3.87,6,0,6h0Z"/><path class="cls-1" d="M3,46.19h6.58c3.86,0,3.87-6,0-6H3c-3.86,0-3.87,6,0,6h0Z"/><path class="cls-1" d="M3,66.33h6.58c3.86,0,3.87-6,0-6H3c-3.86,0-3.87,6,0,6h0Z"/><path class="cls-1" d="M3,86.48h6.58c3.86,0,3.87-6,0-6H3c-3.86,0-3.87,6,0,6h0Z"/><path class="cls-1" d="M3,106.62h6.58c3.86,0,3.87-6,0-6H3c-3.86,0-3.87,6,0,6h0Z"/><path class="cls-1" d="M3,126.77h6.58c3.86,0,3.87-6,0-6H3c-3.86,0-3.87,6,0,6h0Z"/><path class="cls-1" d="M3,146.92h6.58c3.86,0,3.87-6,0-6H3c-3.86,0-3.87,6,0,6h0Z"/><path class="cls-1" d="M3,167.06h6.58c3.86,0,3.87-6,0-6H3c-3.86,0-3.87,6,0,6h0Z"/><path class="cls-1" d="M3,187.21h6.58c3.86,0,3.87-6,0-6H3c-3.86,0-3.87,6,0,6h0Z"/><path class="cls-1" d="M20.84,102.94c6.19,3.66,12.37,7.32,18.56,10.98.85.5,2.2.62,3.03,0,11.74-8.71,23.48-17.42,35.22-26.13l-4.1-1.08c3.53,5.93,7.07,11.87,10.6,17.8.95,1.6,3.38,2.05,4.71.61,10.23-11.11,20.45-22.22,30.68-33.33l-2.92.77c7.07,1.51,14.14,3.03,21.21,4.54,1.02.22,2.18.05,2.92-.77,11.11-12.37,22.22-24.74,33.33-37.11l-3.64.47c5.93,3.51,11.87,7.02,17.8,10.53,3.33,1.97,6.35-3.21,3.03-5.18-5.93-3.51-11.87-7.02-17.8-10.53-1.09-.65-2.76-.51-3.64.47-11.11,12.37-22.22,24.74-33.33,37.11l2.92-.77c-6.25-1.34-12.5-2.68-18.75-4.02-2.05-.44-3.63-1.05-5.45.33-1.48,1.12-2.73,2.97-3.98,4.32-8.87,9.64-17.75,19.28-26.62,28.92l4.71.61c-3.53-5.93-7.07-11.87-10.6-17.8-.76-1.28-2.79-2.05-4.1-1.08-11.74,8.71-23.48,17.42-35.22,26.13h3.03c-6.19-3.66-12.37-7.32-18.56-10.98-3.33-1.97-6.35,3.21-3.03,5.18h0Z"/><path class="cls-1" d="M32.15,154.89c5.74,2.71,11.48,5.42,17.22,8.12,1.91.9,3.63.1,4.41-1.79,4.77-11.59,9.53-23.18,14.3-34.77l-5.48.72c5.31,7.58,10.62,15.17,15.92,22.75.88,1.25,2.68,2.05,4.1,1.08,3.79-2.6,7.58-5.2,11.37-7.8h-3.03c5.85,4.22,11.7,8.45,17.55,12.67,1.33.96,3.33.2,4.1-1.08,7.58-12.46,15.17-24.91,22.75-37.37l-2.59,1.49c12.57-1.45,25.15-2.88,37.72-4.35,4.05-.47,5.03-2.48,7.19-5.73,4.39-6.61,8.78-13.22,13.17-19.82,3.28-4.94,6.56-9.87,9.84-14.81,2.14-3.23-3.05-6.23-5.18-3.03-8.56,12.88-17.12,25.77-25.67,38.65l2.59-1.49c-12.32,1.42-24.65,2.84-36.97,4.26-1.58.18-3.54.12-4.79,1.19-1.05.89-1.76,2.73-2.45,3.86-3.82,6.27-7.63,12.54-11.45,18.81-3.11,5.1-6.21,10.2-9.32,15.31l4.1-1.08c-5.85-4.22-11.7-8.45-17.55-12.67-.8-.58-2.22-.55-3.03,0-3.79,2.6-7.58,5.2-11.37,7.8l4.1,1.08c-5.31-7.58-10.62-15.17-15.92-22.75-1.58-2.25-4.49-1.7-5.48.72-4.77,11.59-9.53,23.18-14.3,34.77l4.41-1.79c-5.74-2.71-11.48-5.42-17.22-8.12-3.47-1.64-6.52,3.53-3.03,5.18h0Z"/><path class="cls-2" d="M242.5,152.33c14.13,14.58,17.4,36.96,7.05,54.63-9.04,15.43-26.7,24.12-44.44,22.02s-32.86-15.1-37.78-32.14.88-36.17,14.77-47.56c17.86-14.64,43.99-12.85,60.4,3.05,2.77,2.69,7.02-1.55,4.24-4.24-16.5-15.98-41.9-19.7-61.9-7.99-17.66,10.34-27.52,30.72-24.81,50.97s17.18,36.65,36.38,42.22,42-1.47,54.68-17.92c15.62-20.29,13.34-49.03-4.33-67.27-2.69-2.78-6.93,1.47-4.24,4.24h0Z"/><path class="cls-2" d="M268.56,184.21c-.27,24.09-15.25,46.2-38.1,54.46s-48.78,1.23-64.33-17.32-17.74-46.06-5.21-66.95,37.39-31.87,61.18-27.01c26.94,5.51,46.15,29.48,46.46,56.81.04,3.86,6.04,3.87,6,0-.3-26.64-16.81-50.69-41.88-60.02-25.23-9.4-54.7-1.25-71.62,19.64s-19.06,50.36-5.32,73.21c13.81,22.98,41,34.97,67.29,29.89,29.84-5.76,51.19-32.64,51.53-62.72.04-3.86-5.96-3.86-6,0Z"/><path class="cls-2" d="M222.39,165.62c-7-5.84-17.86-9.44-23.58.16-3.54,5.94-.93,12.7,4.73,16.03,5.36,3.15,15.47,3.98,16.3,11.6.27,2.51-.97,4.95-3.12,6.75-4.94,4.11-11.75,1.85-16.84-.67-3.45-1.7-6.49,3.47-3.03,5.18,8.1,4,18.32,6.08,25.19-1.33,4.33-4.68,5.19-11.55,1.48-16.93-4.2-6.08-11.9-6.29-17.57-10.17-2.57-1.76-3.58-4.62-1.95-7.44,3.41-5.92,10.31-2.16,14.16,1.05,2.94,2.46,7.21-1.76,4.24-4.24h0Z"/><path class="cls-2" d="M207.62,156.05v6.55c0,3.86,6,3.87,6,0v-6.55c0-3.86-6-3.87-6,0h0Z"/><path class="cls-2" d="M207.62,205.82v6.55c0,3.86,6,3.87,6,0v-6.55c0-3.86-6-3.87-6,0h0Z"/></g></svg>