<?xml version="1.0" encoding="UTF-8"?><svg id="Layer_2" xmlns="http://www.w3.org/2000/svg" viewBox="0 0 58.38 57.17"><defs><style>.cls-1{stroke:#457ff2;}.cls-1,.cls-2{fill:none;stroke-linecap:round;stroke-linejoin:round;stroke-width:1.5px;}.cls-2{stroke:#003153;}</style></defs><g id="Layer_1-2"><line class="cls-1" x1="29.19" y1="22.98" x2="29.19" y2="40.64"/><path class="cls-2" d="M17.28,40.65H5.03c-2.38,0-4.28,1.9-4.28,4.28v11.49"/><line class="cls-2" x1="5.65" y1="56.42" x2="5.42" y2="46.71"/><line class="cls-2" x1="16.89" y1="46.36" x2="16.66" y2="56.42"/><circle class="cls-2" cx="11.15" cy="33.21" r="4.95"/><path class="cls-2" d="M16.89,40.64h12c1.58,0,2.85,1.28,2.85,2.85h0c0,1.58-1.28,2.85-2.85,2.85h-12"/><path class="cls-2" d="M35.53,56.42v-11.23c0-2.53,2.01-4.54,4.54-4.54h13.01c2.51,0,4.55,2.01,4.55,4.54v11.23"/><line class="cls-2" x1="40.71" y1="56.42" x2="40.49" y2="47.08"/><line class="cls-2" x1="52.66" y1="47.08" x2="52.44" y2="56.42"/><circle class="cls-2" cx="46.57" cy="33.21" r="4.95"/><path class="cls-1" d="M29.19.75C5.02,1.76,5.31,22.98,5.31,22.98c3.3-3.07,8.64-3.07,11.94,0,3.3-3.07,8.64-3.07,11.94,0,3.3-3.07,8.64-3.07,11.94,0,3.3-3.07,8.64-3.07,11.94,0,0,0,.29-21.23-23.88-22.23Z"/></g></svg>