<?xml version="1.0" encoding="UTF-8"?><svg id="Layer_2" xmlns="http://www.w3.org/2000/svg" viewBox="0 0 92.17 82.09"><defs><style>.cls-1{fill:none;}.cls-2{fill:#457ff2;}</style></defs><g id="Glyph"><path class="cls-2" d="M39.02,55.34c-.24-.04-.48-.06-.72-.04v4.24c0,3.87,3.14,7,7,7h3.52c3.87,0,7-3.14,7-7v-4.37c-.32.11-.66.17-1,.17h-15.81Z"/><path class="cls-2" d="M74.07,29.5h-3.91c-.55.01-.99.47-.98,1.02.01.54.44.97.98.98h3.91c.55-.01.99-.47.98-1.02-.01-.54-.44-.97-.98-.98Z"/><path class="cls-2" d="M70.89,43.12l-3.38-1.95c-.48-.27-1.09-.09-1.36.39-.26.47-.1,1.06.36,1.34.31.12,3.6,2.23,3.88,2.09.56-.01,1-.47.99-1.03,0-.35-.19-.66-.49-.84Z"/><path class="cls-2" d="M67.14,19.93c.18,0,.35-.05.5-.13l3.38-1.95c.48-.28.64-.89.36-1.37-.28-.48-.89-.64-1.36-.37l-3.38,1.95c-.48.29-.63.91-.34,1.38.18.3.5.48.84.49Z"/><path class="cls-2" d="M24.96,30.5c0-.55-.45-1-1-1h-3.91c-.55,0-1,.45-1,1,0,.55.45,1,1,1h3.91c.55,0,1-.45,1-1h0Z"/><path class="cls-2" d="M26.62,41.17l-3.38,1.95c-.47.29-.63.9-.34,1.37.28.46.87.62,1.34.36l3.38-1.95c.47-.29.62-.9.34-1.37-.28-.46-.87-.62-1.34-.36Z"/><path class="cls-2" d="M23.1,17.84l3.38,1.95c.48.28,1.09.11,1.37-.37.27-.48.11-1.09-.37-1.36l-3.38-1.95c-.48-.27-1.09-.09-1.36.39-.26.47-.1,1.06.36,1.34Z"/><path class="cls-2" d="M58.17,15.75c-11.68-9.12-29.24-.42-29.58,14.29-.14,5.93,2.57,11.56,7.27,15.16,2.09,1.65,1.95,4.99,2.45,7.3.08.48.49.83.98.84h15.54c.51,0,.94-.39,1-.89l.68-4.02c.25-1.42,1.03-2.7,2.17-3.58,9.3-7.22,9.04-22.23-.51-29.1ZM47.06,43.51c-7.18,0-13-5.83-13-13,.71-17.25,25.3-17.25,26.01,0,0,7.18-5.83,13-13,13Z"/><path class="cls-2" d="M47.06,19.5c-6.07,0-11,4.93-11,11,.62,14.6,21.4,14.6,22.01,0,0-6.08-4.93-11-11-11ZM47.06,38.81c-.55-.01-.99-.47-.98-1.02.01-.54.44-.97.98-.98.55.01.99.47.98,1.02-.01.54-.44.97-.98.98ZM48.44,31.6c-.24.1-.39.33-.38.58v1.92c0,.55-.45,1-1,1-.55,0-1-.45-1-1v-1.92c-.01-1.11.68-2.1,1.73-2.47,1.19-.4,1.83-1.69,1.43-2.88-.4-1.19-1.69-1.83-2.88-1.43-.92.31-1.55,1.18-1.55,2.15,0,.55-.47.99-1.02.98-.54,0-.97-.44-.98-.98,0-2.36,1.92-4.28,4.28-4.28,2.36,0,4.28,1.92,4.28,4.28,0,1.83-1.17,3.46-2.9,4.05h0Z"/><rect class="cls-1" width="92.17" height="82.09"/></g></svg>