<?xml version="1.0" encoding="UTF-8"?><svg id="Layer_2" xmlns="http://www.w3.org/2000/svg" viewBox="0 0 229.11 217.63"><defs><style>.cls-1{stroke:#003153;}.cls-1,.cls-2{fill:none;stroke-linecap:round;stroke-linejoin:round;stroke-width:6px;}.cls-2{stroke:#457ff2;}</style></defs><g id="Layer_1-2"><path class="cls-2" d="M114.56,154.99c60.66-32.03,63.54-36.39,63.54-110.52,0-7.03-.34-13.91-.98-20.6-39.81,9.3-62.56-20.87-62.56-20.87,0,0-22.75,30.17-62.56,20.87-.64,6.69-.98,13.57-.98,20.6,0,74.12,2.88,78.49,63.54,110.52Z"/><path class="cls-2" d="M154.32,65.31l-39.36,39.36c-3.59,3.59-9.41,3.59-13,0l-21.75-21.75,13.15-13.15,15.1,15.11h0l32.7-32.71,13.15,13.14Z"/><path class="cls-1" d="M200.74,129.98l12.12-49.36c2.47-10.64,14.5-8.46,13.15,1.42l-9.82,79.8c-1.07,10.22-6.16,19.38-14.26,25.65l-6.52,5.05c-5.03,3.9-9.87,8.53-11.35,14.56"/><path class="cls-1" d="M143.42,214.63c-.83-6.13-2.03-15.28-2.49-19.82-1.41-13.86,6.36-26.51,17.5-34.5l4.7-3.37s.04-.03.06-.04c2.66-1.9,5-4.2,7.1-6.71l15.82-18.95c3.46-4.14,9.91-4.7,14.65-1.26,2.09,1.53,3.74,3.46,3.74,3.46-2.64,3.59-24.57,33.04-24.57,33.04"/><path class="cls-1" d="M28.38,129.98l-12.12-49.36c-2.47-10.64-14.5-8.46-13.15,1.42l9.82,79.8c1.07,10.22,6.16,19.38,14.26,25.65l6.52,5.05c5.03,3.9,9.87,8.53,11.35,14.56"/><path class="cls-1" d="M85.7,214.63c.83-6.13,2.03-15.28,2.49-19.82,1.41-13.86-6.36-26.51-17.5-34.5l-4.7-3.37s-.04-.03-.06-.04c-2.66-1.9-5-4.2-7.1-6.71l-15.82-18.95c-3.46-4.14-9.91-4.7-14.65-1.26-2.09,1.53-3.74,3.46-3.74,3.46,2.64,3.59,24.57,33.04,24.57,33.04"/></g></svg>