<?xml version="1.0" encoding="UTF-8"?><svg id="Layer_2" xmlns="http://www.w3.org/2000/svg" viewBox="0 0 151.06 160.89"><defs><style>.cls-1{stroke:#003153;}.cls-1,.cls-2{fill:none;stroke-linecap:round;stroke-linejoin:round;stroke-width:4.03px;}.cls-2{stroke:#457ff2;}</style></defs><g id="Layer_1-2"><path class="cls-2" d="M121.02,158.88c15.91-7.18,23.65-18.53,23.65-29.57v-15.52c-8.67-.51-16.59-3.57-23.65-9.51-7.06,5.94-14.98,9-23.65,9.51v15.52c0,11.03,7.75,22.38,23.65,29.57"/><polyline class="cls-2" points="111.47 131.2 119.84 139.43 133.06 124.96"/><path class="cls-1" d="M149.04,70.92c-9.78-38.88-40.82-60-73.52-60"/><path class="cls-1" d="M2.01,70.92C11.8,32.04,42.83,10.93,75.53,10.93"/><line class="cls-1" x1="75.53" y1="9.34" x2="75.53" y2="2.01"/><path class="cls-1" d="M102.57,70.04c7.23-5.56,16.33-9.08,25.9-8.13,7.9.79,14.97,4.06,20.57,9.01"/><path class="cls-1" d="M48.8,70.28c-7.28-5.69-16.5-9.34-26.21-8.37-7.9.79-14.97,4.06-20.57,9.01"/><path class="cls-1" d="M48.8,70.28c7.53-5.67,16.89-9.03,27.05-9.03s19.25,3.27,26.72,8.79"/><path class="cls-1" d="M102.57,58.15c-.08-4.95-1.51-25.55-19.45-38.13"/><path class="cls-1" d="M48.49,58.15c.08-4.95,1.51-25.55,19.45-38.13"/><path class="cls-1" d="M98.63,156.01l-53.28-.07c-2.16,0-3.9-1.94-3.88-4.31l.12-7.49c-.23-9.05,5.05-17.77,12.12-20.52,4.56-1.77,10.1-2.76,18.38-2.73,6.73.03,11.65.71,15.69,1.94"/><line class="cls-1" x1="57.37" y1="155.65" x2="57.33" y2="141.07"/><line class="cls-1" x1="86.63" y1="141.2" x2="86.48" y2="155.65"/><path class="cls-1" d="M57.76,96.03c.03,7.87,6.42,14.22,14.29,14.19s14.22-6.42,14.19-14.29c-.03-7.87-6.42-14.22-14.29-14.19-7.87.03-14.22,6.42-14.19,14.29Z"/></g></svg>