<svg xmlns="http://www.w3.org/2000/svg" version="1.1" xmlns:xlink="http://www.w3.org/1999/xlink" xmlns:svgjs="http://svgjs.dev/svgjs" viewBox="0 0 800 800"><defs><linearGradient x1="50%" y1="0%" x2="50%" y2="100%" id="nnneon-grad"><stop stop-color="#457ff2" stop-opacity="1" offset="0%"/><stop stop-color="#d9e5fc" stop-opacity="1" offset="100%"/></linearGradient><filter id="nnneon-filter" x="-100%" y="-100%" width="400%" height="400%" filterUnits="objectBoundingBox" primitiveUnits="userSpaceOnUse" color-interpolation-filters="sRGB"><feGaussianBlur stdDeviation="17 8" x="0%" y="0%" width="100%" height="100%" in="SourceGraphic" edgeMode="none" result="blur"/></filter><filter id="nnneon-filter2" x="-100%" y="-100%" width="400%" height="400%" filterUnits="objectBoundingBox" primitiveUnits="userSpaceOnUse" color-interpolation-filters="sRGB"><feGaussianBlur stdDeviation="10 17" x="0%" y="0%" width="100%" height="100%" in="SourceGraphic" edgeMode="none" result="blur"/></filter></defs><g stroke-width="11.5" stroke="url(#nnneon-grad)" fill="none" transform="rotate(39, 400, 400)"><path d="M392.8023766801184 296.1908363435448C397.25626599046115 293.61984529368306 402.74373400953885 293.61984529368306 407.1976233198816 296.19155610587677L486.30238265470814 341.8626353575213C490.7562719650508 344.43362640738303 493.50000597458967 349.18621708550086 493.50000597458967 354.32891894755625V445.67107745084536C493.50000597458967 450.8137793129008 490.7562719650508 455.56636999101863 486.30238265470814 458.13808080321223L407.1976233198816 503.8091600548569C402.74373400953885 506.38015110471855 397.25626599046115 506.38015110471855 392.8023766801184 503.8084402925249L313.6976173452919 458.1373610408803C309.2437280349492 455.56636999101863 306.49999402541033 450.8137793129008 306.49999402541033 445.67107745084536V354.32891894755625C306.49999402541033 349.18621708550086 309.2437280349492 344.43362640738303 313.6976173452919 341.8619155951894L392.8023766801184 296.1908363435448Z " filter="url(#nnneon-filter)"/><path d="M404.8023766801184 296.1908363435448C409.25626599046115 293.61984529368306 414.74373400953885 293.61984529368306 419.1976233198816 296.19155610587677L498.30238265470814 341.8626353575213C502.7562719650508 344.43362640738303 505.50000597458967 349.18621708550086 505.50000597458967 354.32891894755625V445.67107745084536C505.50000597458967 450.8137793129008 502.7562719650508 455.56636999101863 498.30238265470814 458.13808080321223L419.1976233198816 503.8091600548569C414.74373400953885 506.38015110471855 409.25626599046115 506.38015110471855 404.8023766801184 503.8084402925249L325.6976173452919 458.1373610408803C321.2437280349492 455.56636999101863 318.49999402541033 450.8137793129008 318.49999402541033 445.67107745084536V354.32891894755625C318.49999402541033 349.18621708550086 321.2437280349492 344.43362640738303 325.6976173452919 341.8619155951894L404.8023766801184 296.1908363435448Z " filter="url(#nnneon-filter2)" opacity="0.25"/><path d="M380.8023766801184 296.1908363435448C385.25626599046115 293.61984529368306 390.74373400953885 293.61984529368306 395.1976233198816 296.19155610587677L474.30238265470814 341.8626353575213C478.7562719650508 344.43362640738303 481.50000597458967 349.18621708550086 481.50000597458967 354.32891894755625V445.67107745084536C481.50000597458967 450.8137793129008 478.7562719650508 455.56636999101863 474.30238265470814 458.13808080321223L395.1976233198816 503.8091600548569C390.74373400953885 506.38015110471855 385.25626599046115 506.38015110471855 380.8023766801184 503.8084402925249L301.6976173452919 458.1373610408803C297.2437280349492 455.56636999101863 294.49999402541033 450.8137793129008 294.49999402541033 445.67107745084536V354.32891894755625C294.49999402541033 349.18621708550086 297.2437280349492 344.43362640738303 301.6976173452919 341.8619155951894L380.8023766801184 296.1908363435448Z " filter="url(#nnneon-filter2)" opacity="0.25"/><path d="M392.8023766801184 296.1908363435448C397.25626599046115 293.61984529368306 402.74373400953885 293.61984529368306 407.1976233198816 296.19155610587677L486.30238265470814 341.8626353575213C490.7562719650508 344.43362640738303 493.50000597458967 349.18621708550086 493.50000597458967 354.32891894755625V445.67107745084536C493.50000597458967 450.8137793129008 490.7562719650508 455.56636999101863 486.30238265470814 458.13808080321223L407.1976233198816 503.8091600548569C402.74373400953885 506.38015110471855 397.25626599046115 506.38015110471855 392.8023766801184 503.8084402925249L313.6976173452919 458.1373610408803C309.2437280349492 455.56636999101863 306.49999402541033 450.8137793129008 306.49999402541033 445.67107745084536V354.32891894755625C306.49999402541033 349.18621708550086 309.2437280349492 344.43362640738303 313.6976173452919 341.8619155951894L392.8023766801184 296.1908363435448Z "/></g></svg>