<?xml version="1.0" encoding="UTF-8"?><svg id="Layer_2" xmlns="http://www.w3.org/2000/svg" viewBox="0 0 134.47 160.11"><defs><style>.cls-1{stroke:#003153;}.cls-1,.cls-2{fill:none;stroke-linecap:round;stroke-linejoin:round;stroke-width:4.03px;}.cls-2{stroke:#457ff2;}</style></defs><g id="Layer_1-2"><path class="cls-2" d="M95.68,131.38c24.73-11.17,36.78-28.82,36.78-45.97v-21.78c-14.76-.37-27.91-6.06-36.78-18.33-8.87,12.28-22.02,17.97-36.78,18.33v21.78c0,17.15,12.04,34.8,36.78,45.97"/><polyline class="cls-2" points="80.83 88.34 93.85 101.13 114.4 78.64"/><line class="cls-1" x1="59.03" y1="113.74" x2="58.41" y2="149.17"/><path class="cls-1" d="M42.12,42.37c-8.86.09-14.18.56-18.99,1.6-5.81,1.26-14.26,3.98-14.26,20.28s.79,29.65.79,29.65c0,3.69,2.55,7.17,6.16,7.9,0,0,.65.13,1.11.13"/><path class="cls-1" d="M72.44,51.2c-2.87-4.83-7.33-6.45-10.94-7.23-4.8-1.04-10.53-1.5-19.39-1.6"/><line class="cls-1" x1="25.78" y1="149.17" x2="24.34" y2="68.38"/><line class="cls-1" x1="42.12" y1="97.23" x2="42.12" y2="149.17"/><circle class="cls-1" cx="41.76" cy="16.48" r="14.47" transform="translate(.58 34.35) rotate(-45)"/><line class="cls-1" x1="2.01" y1="158.1" x2="129.8" y2="158.1"/></g></svg>