<svg xmlns="http://www.w3.org/2000/svg" viewBox="0 0 480 480"><path d="M450 210c-12.9 0-16.4-17.7-4.5-22.6a30 30 0 1 0-23-55.4c-11.9 4.8-21.9-10.2-12.8-19.3a30 30 0 1 0-42.4-42.4c-9.1 9-24.1-1-19.2-12.9a30 30 0 1 0-55.4-23c-5 12-22.7 8.5-22.7-4.4a30 30 0 0 0-60 0c0 12.9-17.7 16.4-22.6 4.5a30 30 0 1 0-55.4 23c4.8 11.9-10.2 22-19.3 12.8a30 30 0 1 0-42.4 42.4c9 9.1-1 24.2-12.9 19.2a30 30 0 1 0-23 55.4c12 5 8.5 22.7-4.4 22.7a30 30 0 1 0 0 60c12.9 0 16.4 17.7 4.5 22.7a30 30 0 1 0 23 55.4c11.8-5 21.9 10.1 12.8 19.2a30 30 0 1 0 42.4 42.4c9.1-9 24.1 1 19.2 12.9a30 30 0 1 0 55.4 23c5-12 22.7-8.5 22.7 4.4a30 30 0 1 0 60 0c0-12.9 17.7-16.4 22.6-4.5a30 30 0 1 0 55.4-23c-4.8-11.8 10.2-21.9 19.3-12.8a30 30 0 1 0 42.4-42.4c-9-9.1 1-24.1 12.8-19.2a30 30 0 1 0 23-55.4c-11.9-5-8.4-22.7 4.5-22.7a30 30 0 1 0 0-60Z" fill="#457FF2"/></svg>