<?xml version="1.0" encoding="UTF-8"?><svg id="Layer_2" xmlns="http://www.w3.org/2000/svg" viewBox="0 0 185.75 226.67"><defs><style>.cls-1{stroke:#003153;}.cls-1,.cls-2{fill:none;stroke-linecap:round;stroke-linejoin:round;stroke-width:6px;}.cls-2{stroke:#457ff2;}</style></defs><g id="Layer_1-2"><polyline class="cls-1" points="50.19 29.81 3 29.81 3 223.67 182.75 223.67 182.75 29.81 148.24 29.81"/><path class="cls-1" d="M136.1,36.03v12.73H48.64v-12.73c0-7.34,5.95-13.29,13.29-13.29h14.45l1.34-7.48c1.27-7.1,7.44-12.26,14.65-12.26h0c7.21,0,13.38,5.17,14.65,12.26l1.34,7.48h14.44c7.34,0,13.29,5.95,13.29,13.29Z"/><line class="cls-1" x1="92.37" y1="16.74" x2="92.37" y2="16.74"/><line class="cls-1" x1="130.69" y1="192.94" x2="147.02" y2="192.94"/><line class="cls-1" x1="37.73" y1="192.94" x2="114.48" y2="192.94"/><line class="cls-1" x1="86.33" y1="169.83" x2="130.69" y2="169.83"/><line class="cls-1" x1="37.73" y1="169.83" x2="66.78" y2="169.83"/><line class="cls-1" x1="131.32" y1="123.61" x2="147.02" y2="123.61"/><line class="cls-1" x1="122.58" y1="146.72" x2="147.02" y2="146.72"/><line class="cls-1" x1="136.1" y1="100.5" x2="147.02" y2="100.5"/><line class="cls-1" x1="122.58" y1="77.4" x2="147.02" y2="77.4"/><path class="cls-2" d="M70.83,153.58s42.96-21.09,43.16-49.53c.1-13.48-11.06-24.55-23.92-24.94-7.6-.23-14.48,2.75-19.24,7.82-4.76-5.07-11.64-8.05-19.24-7.82-12.87.39-24.02,11.46-23.92,24.94.21,28.44,43.16,49.53,43.16,49.53Z"/></g></svg>