<!--?xml version="1.0" encoding="UTF-8"?--><svg id="Layer_1" xmlns="http://www.w3.org/2000/svg" xmlns:xlink="http://www.w3.org/1999/xlink" viewBox="0 0 1600 1600"><defs><style>.cls-1{clip-path:url(#clippath);}.cls-2,.cls-3,.cls-4{stroke-width:0px;}.cls-2,.cls-5{fill:none;}.cls-3,.cls-6{fill:#003153;}.cls-7{fill:#B4CCFA;}.cls-7,.cls-5,.cls-8,.cls-6{stroke:#003153;stroke-linecap:round;stroke-linejoin:round;stroke-width:2px;}.cls-4,.cls-8{fill:#fff;}</style><clipPath id="clippath"><rect class="cls-2" x="452.64" y="342.07" width="694.72" height="915.85"/></clipPath></defs><rect class="cls-6" x="578.54" y="652.26" width="568.82" height="444.94"/><g class="cls-1"><circle class="cls-8" cx="775.21" cy="804.55" r="27.76"/><circle id="C" class="cls-4" cx="828.61" cy="813.03" r="11.82"/><circle id="C-2" class="cls-8" cx="828.61" cy="813.03" r="32.72"/><path class="cls-4" d="M765.54,830.57c10.22,3.2,25.21,7.18,34.38,9.44,12.82,3.16,22.37,5.12,22.37,5.12l11.19-64.47s-40.52-7.12-57.98-3.88c-1.01,6.6-10.63,48.59-9.96,53.79Z"/><path class="cls-8" d="M833.48,780.66s-38.98-5.38-57.98-3.88"/><path class="cls-8" d="M765.54,830.57c13.41,5.28,24.71,8.48,33.88,10.74,12.82,3.16,22.87,3.83,22.87,3.83"/><path class="cls-8" d="M684.33,898.5s9.75,7.94,32.35,12.52c18.79,3.81,36.53,2.95,36.53,2.95,0,0,13.6-12.49,7.91-21.52-5.69-9.03-20.84-19.62-20.84-19.62"/><path class="cls-8" d="M688.7,956.67s17.43,5.48,39.75,6.64c22.33,1.15,32.81-.21,32.81-.21,0,0,9.45,3.71,12.42-16.81,2.97-20.52-20.47-32.32-20.47-32.32"/><path class="cls-8" d="M711.02,1001.69s17.62,2.03,37.28,1.16c12.92-.57,18.51-1.68,18.51-1.68,0,0,18.12-3.69,15.02-18.45-3.1-14.76-20.56-19.62-20.56-19.62"/><ellipse id="C-3" class="cls-8" cx="686.45" cy="882.12" rx="27.15" ry="27.38" transform="translate(-72.11 61.18) rotate(-4.85)"/><circle id="C-4" class="cls-8" cx="902.4" cy="908.93" r="113.15"/><path class="cls-4" d="M912.03,796.18l-43.04-8.86-35.51-6.66-25.77,49.68-25.89,2.95-11.82,2.04-61.95,9.07s-31.16,4.73-34.3,18.86c-4.22,18.97,8.04,46.05,8.04,46.05,0,0-9.69.15-9.64,17,.05,16.84,17.73,30.11,17.73,30.11,0,0-4.02,11.64-.89,25.65,3.13,14.01,22.04,19.62,22.04,19.62,0,0-8.14,16.26,2.31,30.11,10.45,13.85,38.17,16.1,75.04,13.21,36.87-2.9,138.7-25.63,138.7-25.63l-15.04-223.19Z"/><polyline class="cls-8" points="790.84 821.32 780.55 828.89 770 835.32"/><polyline class="cls-8" points="912.03 796.18 872.75 788.42 833.48 780.66"/><path class="cls-8" d="M680.91,908.91c15.36,53.77,48.3,133.55,55.98,135.07,13.43,2.65,31.05,2.63,51.48,1.03,36.87-2.9,138.7-25.63,138.7-25.63"/><path class="cls-8" d="M770,835.32l-61.95,9.07s-28.2,7.01-34.63,13.69"/><path class="cls-8" d="M790.84,821.32s21.41,46.46,38.72,61.36c20.03,17.24,42.38,18.49,42.38,18.49"/><path class="cls-8" d="M731.13,604.2h69.62v571.91c0,19.21-15.6,34.81-34.81,34.81h0c-19.21,0-34.81-15.6-34.81-34.81v-571.91h0Z" transform="translate(-196.32 211.58) rotate(-13.96)"/><polygon class="cls-6" points="658.98 621.56 695.13 766.98 771.8 786.85 726.54 604.77 658.98 621.56"/><circle class="cls-8" cx="679.47" cy="559.68" r="192.39"/><circle class="cls-7" cx="679.47" cy="559.68" r="147.76"/><path class="cls-3" d="M679.51,625.35c-4.97,1.23-10.41.57-15.14-2.27l-74.81-45.02,20.63-34.27,57.67,34.71,57.75-95.97,34.27,20.63-68.07,113.1c-2.85,4.73-7.34,7.86-12.31,9.1Z"/><ellipse id="C-5" class="cls-8" cx="726.79" cy="1019.55" rx="21.93" ry="22.11" transform="translate(-83.58 65.09) rotate(-4.85)"/><path class="cls-8" d="M731.04,997.86c3.06.51,12.6,2.16,15.93,2.57,26.25,3.27,54.38,12.6,51.85,27.11-2.28,13.1-17.46,22.24-66.37,14.74-3.43-.53-6.71-.65-9.94-1.01"/><ellipse id="C-6" class="cls-8" cx="708.7" cy="981.19" rx="24.29" ry="24.49" transform="translate(-80.4 63.42) rotate(-4.85)"/><path class="cls-8" d="M713.4,957.17c3.39.57,13.96,2.39,17.65,2.85,29.08,3.63,60.24,13.96,57.44,30.04-2.53,14.52-19.34,24.64-73.52,16.33-3.8-.58-7.44-.72-11.01-1.12"/><ellipse id="C-7" class="cls-8" cx="694.85" cy="932.72" rx="26.76" ry="26.98" transform="translate(-76.36 62.07) rotate(-4.85)"/><path class="cls-8" d="M700.03,906.25c3.73.62,15.38,2.63,19.44,3.14,32.04,3.99,66.36,15.38,63.28,33.09-2.79,15.99-21.31,27.14-80.99,17.99-4.19-.64-8.19-.79-12.13-1.23"/><ellipse id="C-8" class="cls-2" cx="686.45" cy="882.12" rx="10.09" ry="10.17" transform="translate(-72.11 61.18) rotate(-4.85)"/><path class="cls-8" d="M721.64,864.14c30.81-1.92,57.13,9.91,54,27.88-2.83,16.23-21.62,27.54-82.18,18.25-4.25-.65-9.92-1.23-15.95-2.32"/><path class="cls-8" d="M776.87,832.26c-15.31.92-28.46-10.75-29.37-26.05-.92-15.31,10.75-28.46,26.05-29.37"/><circle id="C-9" class="cls-4" cx="775.21" cy="804.55" r="9.95"/><path class="cls-8" d="M747.47,805.68c1.45,25.46,5.61,50.47,23.26,50.95,15.85.44,23.47-19.58,31.52-45.77"/><circle class="cls-2" cx="902.4" cy="908.93" r="60.29"/><path class="cls-8" d="M874.4,799.84l238.53-93.09s108.53,272.18,44.07,285.6c-64.46,13.42-233.32,27.29-233.32,27.29"/><path class="cls-6" d="M975.43,908.05c4.1,21.01,15.53,84.01,18.7,105.18,3.22,21.58,122.12-12.39,162.88-20.88,64.46-13.42-44.07-285.6-44.07-285.6l-198.68,77.54c.7.97,43.38,32.54,61.18,123.76Z"/><path class="cls-7" d="M932.76,754.62l243.77-92.89s109.93,333.56,68.99,346.19c-43.55,13.43-245.66,27.54-245.66,27.54,0,0-10.04-18.73-13.75-110.57-5.29-130.63-53.35-170.27-53.35-170.27Z"/><line class="cls-5" x1="1147.36" y1="652.26" x2="1147.36" y2="1068.9"/></g></svg>