<?xml version="1.0" encoding="UTF-8"?><svg id="Layer_2" xmlns="http://www.w3.org/2000/svg" viewBox="0 0 376.22 345.47"><defs><style>.cls-1{stroke:#457ff2;}.cls-1,.cls-2{fill:none;stroke-linecap:round;stroke-linejoin:round;stroke-width:12px;}.cls-2{stroke:#003153;}</style></defs><g id="Layer_1-2"><polyline class="cls-2" points="158.79 181.97 185.25 208.43 245 148.69"/><path class="cls-2" d="M93.93,104.6l100.86-26.94,100.86,26.94h0v26.84c0,68.44-39.2,130.83-100.86,160.54h0c-61.66-29.7-100.86-92.1-100.86-160.54v-26.84"/><path class="cls-1" d="M119.3,24.02c22.66-11.53,48.31-18.02,75.48-18.02,92.09,0,166.73,74.65,166.73,166.73,0,27.26-6.54,53-18.15,75.72"/><path class="cls-1" d="M279.17,316.57c-24.75,14.55-53.6,22.9-84.39,22.9-92.09,0-166.73-74.65-166.73-166.73,0-30.21,8.03-58.54,22.08-82.98"/><polyline class="cls-1" points="54.94 143.5 50.13 89.76 6 120.8"/><polyline class="cls-1" points="337.95 214.32 343.36 248.46 370.22 226.71"/></g></svg>