<?xml version="1.0" encoding="UTF-8"?><svg id="Layer_2" xmlns="http://www.w3.org/2000/svg" viewBox="0 0 482.02 426.09"><defs><style>.cls-1{fill:#003153;fill-rule:evenodd;}</style></defs><g id="Layer_1-2"><path class="cls-1" d="M128.27,222.75l-48.23,48.23c-1.18,1.17-2.7,1.76-4.25,1.76-1.47,0-2.94-.54-4.12-1.63l-25.24-23.83c-2.41-2.27-2.53-6.07-.24-8.48,2.29-2.41,6.04-2.52,8.45-.25l21.03,19.83,44.11-44.11c2.33-2.34,6.17-2.34,8.49,0,2.33,2.34,2.33,6.14,0,8.49h0ZM378.45,242.62c0,3.31-2.65,6-6,6h-105.61c-3.31,0-6-2.69-6-6s2.7-6,6-6h105.61c3.35,0,6,2.68,6,6h0ZM378.45,360.93c0,3.32-2.65,6-6,6h-243.32c-3.31,0-6-2.69-6-6s2.7-6,6-6h243.32c3.35,0,6,2.69,6,6h0ZM378.45,124.31c0,3.31-2.65,6-6,6h-61.01c-3.31,0-6-2.69-6-6s2.7-6,6-6h61.01c3.35,0,6,2.69,6,6h0ZM277.95,124.31c0,3.31-2.7,6-6,6h-142.81c-3.31,0-6-2.69-6-6s2.7-6,6-6h142.81c3.31,0,6,2.69,6,6h0ZM378.45,65.15c0,3.32-2.65,6-6,6h-243.32c-3.31,0-6-2.69-6-6s2.7-6,6-6h243.32c3.35,0,6,2.69,6,6h0ZM470.01,389.24c0,13.7-11.15,24.85-24.87,24.85s-24.83-11.14-24.83-24.85v-82.7h49.7v82.7h0ZM93.27,389.24c0,13.7,11.15,24.85,24.87,24.85h299.84c-6-6.55-9.68-15.28-9.68-24.85V12H93.27v128.63c24.18,14.41,48.92,22.12,75.59,23.51,3.19.16,5.72,2.8,5.72,5.99v7.34h197.86c3.35,0,6,2.69,6,6s-2.65,6-6,6h-197.86v29.19c0,6.03-.45,12.03-1.23,17.97h53.99c3.31,0,6,2.68,6,6s-2.7,6-6,6h-56.15c-3.84,16.76-10.74,32.78-20.26,47.16h221.51c3.35,0,6,2.69,6,6s-2.65,6-6,6h-230.41c-8.82,10.7-19.23,20.19-30.96,27.95-5.8,3.83-11.76,7.03-17.81,9.56v43.95h0ZM12.01,218.66c0,42.32,22.26,83.34,58.11,107.07,5.59,3.7,11.35,6.75,17.15,9.07,5.8-2.32,11.56-5.37,17.19-9.07,35.82-23.73,58.11-64.75,58.11-107.07v-42.93c-26.46-2.23-51.21-10.33-75.31-24.69-24.09,14.36-48.8,22.47-75.27,24.69v42.93h0ZM476.01,294.54h-55.7V6c0-3.31-2.7-6-6-6H87.27c-3.31,0-6,2.69-6,6v134.63c-24.14,14.41-48.88,22.12-75.59,23.51-3.19.16-5.68,2.8-5.68,5.99v48.53c0,46.29,24.34,91.16,63.5,117.08,5.8,3.83,11.76,7.03,17.76,9.56v43.95c0,20.32,16.54,36.85,36.88,36.85h326.99c20.34,0,36.88-16.53,36.88-36.85v-88.7c0-3.31-2.7-6-6-6Z"/></g></svg>