<?xml version="1.0" encoding="UTF-8"?><svg id="Layer_2" xmlns="http://www.w3.org/2000/svg" viewBox="0 0 382.26 329.09"><defs><style>.cls-1{stroke:#457ff2;}.cls-1,.cls-2{fill:none;stroke-linecap:round;stroke-linejoin:round;stroke-width:12px;}.cls-2{stroke:#003153;}</style></defs><g id="Layer_1-2"><polyline class="cls-2" points="251.41 295.84 251.41 323.09 6 323.09 6 6 251.41 6 251.41 172.07"/><line class="cls-2" x1="49.29" y1="124.5" x2="210.6" y2="124.5"/><line class="cls-2" x1="82.45" y1="74.96" x2="177.44" y2="74.96"/><line class="cls-2" x1="49.29" y1="156.26" x2="210.6" y2="156.26"/><line class="cls-2" x1="49.29" y1="188.02" x2="210.6" y2="188.02"/><path class="cls-2" d="M217.7,283.36c-6.18,7.18-13.85,13.15-22.7,17.41h0c-24.26-11.69-39.68-36.23-39.68-63.16v-10.56"/><polyline class="cls-2" points="155.32 227.05 195 216.46 212.99 221.26"/><path class="cls-1" d="M290.24,211.99c9.17-6.87,17.63-16.98,23.83-29.46,5.62-11.33,8.57-22.96,9.02-33.59.05-1.3.07-2.6.05-3.87-.07-4.42.6-8.86,2.32-12.93.27-.65.57-1.29.88-1.93,7.31-14.71,23.61-21.47,36.42-15.11,12.83,6.37,17.29,23.45,9.98,38.16-.02.04-.04.07-.06.11-2.28,4.55-5.75,8.38-9.84,11.4-1.03.76-2.04,1.55-3.06,2.39-8.2,6.78-15.68,16.16-21.31,27.49-6.2,12.48-9.16,25.32-9.09,36.78"/><polyline class="cls-1" points="339.75 196.2 365.84 231.59 360.74 270.21 296.07 248.33 241.16 210.83 268.85 183.42 310.56 182.14"/><polyline class="cls-1" points="360.74 270.21 350.98 289.85 287.39 269.06 231.41 230.47 241.16 210.83"/><path class="cls-1" d="M320.37,302.03l-44.94-14.59-36.45-25.82c-4.04-2.01-5.69-6.91-3.68-10.95l6.48-13.04,44.93,31.27,51.37,16.74-6.76,12.71c-2.01,4.04-6.91,5.69-10.95,3.68Z"/><polyline class="cls-2" points="183.74 257.8 192.01 266.08 211.13 246.96"/><line class="cls-2" x1="49.29" y1="242.41" x2="118" y2="242.41"/><line class="cls-2" x1="49.29" y1="274.17" x2="118" y2="274.17"/></g></svg>