<?xml version="1.0" encoding="UTF-8"?><svg id="Layer_2" xmlns="http://www.w3.org/2000/svg" viewBox="0 0 386.57 386.25"><defs><style>.cls-1{fill:none;stroke:#fff;stroke-linecap:round;stroke-linejoin:round;stroke-width:12px;}</style></defs><g id="Layer_1-2"><path class="cls-1" d="M240.06,249.73l70.25-18.76,70.25,18.76h0v18.7c0,47.67-27.3,91.13-70.25,111.82h0,0,0c-42.95-20.69-70.25-64.15-70.25-111.82v-18.7"/><polyline class="cls-1" points="281.69 303.17 302.74 324.21 350.25 276.7"/><path class="cls-1" d="M200.12,17.28c4.01,2.56,6.97,6.48,9.18,11.45"/><path class="cls-1" d="M215.35,51.09c-5.74,2.07-15.31,8.24-22.09,11.89"/><path class="cls-1" d="M231.8,120.12c12.04-22.63,15.08-100.29-28.09-100.29-11.46-8.72-25.37-13.84-40.37-13.84-92.66,0-69.97,96.66-65.02,115.3"/><path class="cls-1" d="M120.98,56.96c5.78,11.69,23.88,31.63,76.06,4.06,26.87-14.2,36.14,8.73,35.68,42.22"/><path class="cls-1" d="M232.72,103.23l-1.92,35.1c-1.29,23.62-14.01,45.92-35.1,56.64-9.16,4.65-19.52,7.28-30.49,7.28-8.55,0-16.72-1.59-24.24-4.49-23.73-9.15-39.08-32.41-41.07-57.77l-2.22-28.37c-.61-10.35.7-20.77,4.21-30.51,3.62-10.04,9.66-20.08,19.32-20.08"/><polyline class="cls-1" points="126.51 270.74 162.51 236.53 122.69 196.09 104.65 220.98"/><polyline class="cls-1" points="203.75 270.74 167.75 236.53 207.57 196.09 225.61 220.98"/><path class="cls-1" d="M104.65,218.34l-37.01,10.54c-37.29,10.61-62.65,45.15-61.61,83.91l1.78,31.61"/><line class="cls-1" x1="225.61" y1="218.34" x2="249.48" y2="225.13"/><line class="cls-1" x1="104.65" y1="220.98" x2="165.13" y2="358.68"/><line class="cls-1" x1="225.61" y1="220.98" x2="165.13" y2="358.68"/><path class="cls-1" d="M190.59,258.23c-3.9,10.26-13.83,17.55-25.46,17.55s-21.56-7.29-25.46-17.55"/><line class="cls-1" x1="157.12" y1="274.88" x2="144.21" y2="306"/><line class="cls-1" x1="173.14" y1="274.88" x2="186.05" y2="306"/></g></svg>