<?xml version="1.0" encoding="UTF-8"?><svg id="Layer_2" xmlns="http://www.w3.org/2000/svg" viewBox="0 0 482.01 425.45"><defs><style>.cls-1{fill:#003153;fill-rule:evenodd;}</style></defs><g id="Layer_1-2"><path class="cls-1" d="M324.8,247.22c0-5.6-4.56-10.16-10.16-10.16s-10.16,4.56-10.16,10.16,4.56,10.16,10.16,10.16,10.16-4.56,10.16-10.16h0ZM336.8,247.22c0,12.22-9.94,22.16-22.16,22.16s-22.16-9.94-22.16-22.16,9.94-22.16,22.16-22.16,22.16,9.94,22.16,22.16h0ZM351.28,227.95c3.04,5.76,4.78,12.31,4.78,19.27s-1.74,13.51-4.78,19.28c8.25-4.84,16.31-11.28,24.05-19.28-7.74-7.99-15.8-14.44-24.05-19.27h0ZM278,266.5c-3.04-5.77-4.78-12.32-4.78-19.28s1.74-13.51,4.78-19.27c-8.25,4.83-16.32,11.28-24.05,19.27,7.74,8,15.8,14.44,24.05,19.28h0ZM344.06,247.22c0,16.22-13.2,29.41-29.42,29.41s-29.42-13.19-29.42-29.41,13.2-29.42,29.42-29.42,29.42,13.2,29.42,29.42h0ZM314.64,205.34c25.74,0,51.11,13.1,73.35,37.87,2.05,2.28,2.05,5.74,0,8.02-22.24,24.78-47.61,37.87-73.35,37.87s-51.11-13.09-73.36-37.87c-2.04-2.28-2.04-5.74,0-8.02,22.25-24.77,47.62-37.87,73.36-37.87h0ZM466.87,384.25l-56-56.01-15.21,15.21,56.01,56c4.19,4.19,11.01,4.19,15.2,0,4.19-4.19,4.19-11.01,0-15.2h0ZM377.89,325.67c2.76-2.23,5.44-4.63,8-7.2,2.57-2.56,4.97-5.24,7.2-8l9.29,9.29-15.2,15.2-9.29-9.29h0ZM333.81,346.12v43.93c0,12.9-10.5,23.4-23.4,23.4H35.4c-12.9,0-23.4-10.5-23.4-23.4V66.92c0-12.9,10.5-23.4,23.4-23.4h70.79v17.57H35.57c-3.31,0-6,2.69-6,6v322.79c0,3.31,2.69,6,6,6h274.67c3.31,0,6-2.69,6-6v-41.96c5.89-.09,11.77-.69,17.57-1.8h0ZM107.04,73.09H41.57v310.79h262.67v-36.48c-20.93-2.15-41.31-10.82-57.8-26.01h-78.9c-3.31,0-6-2.69-6-6s2.69-6,6-6h67.79c-12.34-15.73-19.35-34.31-21.02-53.27h-46.77c-3.31,0-6-2.69-6-6s2.69-6,6-6h46.43c.19-6.13.93-12.23,2.22-18.24h-48.65c-3.31,0-6-2.69-6-6s2.69-6,6-6h52.02c4.83-13.86,12.77-26.86,23.82-37.91,17.01-17.01,38.62-26.64,60.86-28.93v-73.95h-65.47c-2.62,9.13-11.03,15.83-20.98,15.83h-89.77c-9.95,0-18.37-6.7-20.98-15.83h0ZM118.19,67.09c0,5.42,4.41,9.83,9.83,9.83h89.77c5.42,0,9.82-4.41,9.82-9.83v-23.57h-12.87c-8.11,0-15.07-5.24-17.3-13.04-3.12-10.88-13.21-18.48-24.54-18.48s-21.41,7.6-24.53,18.48c-2.23,7.8-9.19,13.04-17.3,13.04h-12.88v23.57h0ZM310.41,43.52h-70.8v17.57h70.63c3.31,0,6,2.69,6,6v79.43c5.88.09,11.77.69,17.57,1.8v-81.4c0-12.9-10.5-23.4-23.4-23.4h0ZM377.41,184.45c34.61,34.61,34.61,90.93,0,125.54-17.31,17.31-40.04,25.96-62.77,25.96s-45.47-8.66-62.77-25.96c-34.61-34.61-34.61-90.93,0-125.54,34.61-34.61,90.93-34.61,125.54,0h0ZM475.36,407.94c-4.44,4.43-10.26,6.65-16.09,6.65s-11.65-2.22-16.09-6.65l-75.2-75.21c-7.03,4.38-14.48,7.82-22.17,10.3v47.02c0,19.52-15.88,35.4-35.4,35.4H35.4c-19.52,0-35.4-15.88-35.4-35.4V66.92C0,47.4,15.88,31.52,35.4,31.52h95.67c2.75,0,5.01-1.71,5.77-4.35,4.58-15.99,19.41-27.17,36.06-27.17s31.49,11.18,36.07,27.17c.76,2.64,3.02,4.35,5.77,4.35h95.67c19.52,0,35.4,15.88,35.4,35.4v84.49c14.67,4.74,28.45,12.93,40.08,24.56,33.76,33.75,38.51,85.71,14.26,124.59l75.21,75.2c8.87,8.87,8.87,23.31,0,32.18h0ZM167.54,351.63h55.91c3.31,0,6-2.68,6-6s-2.69-6-6-6h-55.91c-3.31,0-6,2.69-6,6s2.69,6,6,6h0ZM114.46,313.27l-26.69,26.68-9.27-9.27c-2.35-2.34-6.14-2.35-8.49,0-2.34,2.34-2.34,6.14,0,8.48l13.52,13.52c1.17,1.17,2.71,1.76,4.24,1.76s3.07-.59,4.25-1.76l30.92-30.93c2.34-2.34,2.34-6.14,0-8.48-2.34-2.34-6.14-2.34-8.48,0h0ZM114.46,217.75l-26.69,26.69-9.27-9.28c-2.35-2.34-6.14-2.34-8.49,0-2.34,2.35-2.34,6.14,0,8.49l13.52,13.51c1.17,1.17,2.71,1.76,4.24,1.76s3.07-.59,4.25-1.76l30.92-30.92c2.34-2.34,2.34-6.14,0-8.49-2.34-2.34-6.14-2.34-8.48,0h0ZM167.54,160.6h55.91c3.31,0,6-2.69,6-6s-2.69-6-6-6h-55.91c-3.31,0-6,2.69-6,6s2.69,6,6,6h0ZM167.54,130.36h104.01c3.32,0,6-2.69,6-6s-2.68-6-6-6h-104.01c-3.31,0-6,2.68-6,6s2.69,6,6,6h0ZM87.77,148.92l-9.27-9.27c-2.35-2.35-6.14-2.35-8.49,0-2.34,2.34-2.34,6.14,0,8.48l13.52,13.52c1.17,1.17,2.71,1.75,4.24,1.75s3.07-.58,4.25-1.75l30.92-30.93c2.34-2.34,2.34-6.14,0-8.48-2.34-2.35-6.14-2.35-8.48,0l-26.69,26.68Z"/></g></svg>