<?xml version="1.0" encoding="UTF-8"?><svg id="Layer_2" xmlns="http://www.w3.org/2000/svg" viewBox="0 0 397.11 482.02"><defs><style>.cls-1{fill:#003153;fill-rule:evenodd;}</style></defs><g id="Layer_1-2"><path class="cls-1" d="M148.41,107.36c-2.33-2.34-2.33-6.14,0-8.49,2.33-2.34,6.13-2.34,8.49,0l29.12,29.11,54.23-54.25c2.33-2.34,6.13-2.34,8.49,0,2.33,2.34,2.33,6.14,0,8.48l-58.52,58.49c-1.1,1.12-2.65,1.76-4.21,1.76s-3.14-.63-4.25-1.76l-33.36-33.35h0ZM198.56,12c-65.59,0-118.96,42.71-118.96,95.22,0,24.68,11.76,48.1,33.2,65.94,2.04,1.71,2.7,4.57,1.63,7.02l-12.37,28.22,44.15-14.28c1.27-.4,2.61-.38,3.88.06,15.27,5.48,31.61,8.26,48.48,8.26,65.63,0,119-42.71,119-95.22S264.18,12,198.56,12h0ZM101.69,179.41l-16.01,36.39c-.94,2.16-.53,4.68,1.06,6.44,1.14,1.28,2.78,1.98,4.45,1.98.61,0,1.23-.09,1.84-.29l54.93-17.76c16.05,5.5,33.04,8.29,50.6,8.29,72.24,0,131.01-48.1,131.01-107.22S270.8,0,198.56,0,67.59,48.1,67.59,107.22c0,26.94,12.05,52.42,34.1,72.19h0ZM385.11,399.86c0,.68-.57,1.25-1.23,1.25h-36.26v-99.81h36.26c.65,0,1.23.57,1.23,1.25v97.31h0ZM322.3,399.86v-97.31c0-.68.57-1.25,1.27-1.25h12.05v99.81h-12.05c-.69,0-1.27-.57-1.27-1.25h0ZM303.92,386.62c-1.59-4.4-4.57-8.35-8.74-11.14l-69.02-46,9.68-5.98c2.82-1.74,3.68-5.44,1.92-8.26-1.72-2.81-5.43-3.69-8.25-1.94l-19.07,11.8c-11.39,7.03-32.71,9.44-40.31-2.79l-.33-.54,41.86-30.74c4.61-3.38,9.72-4.31,15.23-2.76,12.95,3.65,25.28,8.09,37.2,12.39,16.01,5.77,31.24,11.26,46.19,14.14v71.83h-6.37ZM291.5,400.35c3.27-4.92,1.92-11.6-2.98-14.89l-73.67-49.08c-7.11,3.92-16.58,6.53-25.85,6.53-11.43,0-22.67-3.96-29.04-14.29l-.98-1.55c-2.94-4.8-1.76-10.94,2.78-14.28l26.95-19.81-22.13-4.19c-8.13-1.54-15.19-.94-22.95,1.93l-56.81,21.06v79.59c27.81,33.36,50.35,53.52,100.09,76.33,10.66,4.9,15.03,1.02,17.64-2.91,3.72-5.57,2.21-13.12-3.35-16.84l-28.22-18.79c-2.74-1.83-3.47-5.56-1.63-8.32,1.84-2.75,5.55-3.5,8.33-1.66l28.18,18.79h0s9.47,6.31,9.47,6.31c4.9,3.28,11.6,1.95,14.87-2.98,3.31-4.92,1.96-11.6-2.98-14.89l-37.65-25.1c-2.74-1.84-3.51-5.56-1.67-8.32,1.84-2.76,5.6-3.51,8.33-1.66l37.65,25.09h0s.04.02.04.02l14.01,9.34c2.37,1.58,5.23,2.14,8.05,1.57,2.82-.56,5.27-2.18,6.82-4.55,3.31-4.93,1.96-11.6-2.94-14.88l-51.7-34.47c-2.78-1.83-3.51-5.56-1.67-8.32,1.84-2.76,5.55-3.5,8.33-1.66l51.66,34.43h0s.04.03.04.04l8.09,5.38c4.94,3.28,11.6,1.95,14.91-2.98h0ZM74.82,399.86c0,.68-.57,1.25-1.23,1.25h-12.05v-99.81h12.05c.65,0,1.23.57,1.23,1.25v97.31h0ZM12.01,399.86v-97.31c0-.68.61-1.25,1.27-1.25h36.26v99.81H13.27c-.65,0-1.27-.57-1.27-1.25h0ZM383.88,289.3h-60.32c-7.31,0-13.27,5.94-13.27,13.24-13.35-2.82-27.4-7.87-42.1-13.18-12.13-4.37-24.67-8.89-38.06-12.66-8.98-2.53-18.05-.88-25.56,4.64l-2.61,1.92-33.12-6.27c-10.25-1.94-19.6-1.15-29.36,2.47l-53.09,19.68c-1.51-5.66-6.66-9.85-12.78-9.85H13.27c-7.31,0-13.27,5.94-13.27,13.25v97.31c0,7.31,5.96,13.25,13.27,13.25h60.32c4.57,0,8.62-2.33,10.99-5.86,25.65,29.49,50.07,49.68,97.32,71.36,5.35,2.44,9.92,3.41,13.89,3.41,9.88,0,15.76-6.06,18.79-10.57,2.82-4.26,4.12-9.1,4.04-13.86,1.55.32,3.1.49,4.66.49,7.35,0,14.58-3.56,18.95-10.12,2.21-3.31,3.39-6.98,3.72-10.68,3.1,1.51,6.45,2.29,9.88,2.29,1.51,0,3.02-.15,4.53-.45,5.96-1.2,11.11-4.63,14.46-9.67,2.61-3.9,3.84-8.31,3.8-12.68,1.31.23,2.61.36,3.92.36,7.35,0,14.58-3.56,18.95-10.12,1.76-2.62,2.9-5.47,3.43-8.39h5.39v1.24c0,7.31,5.96,13.25,13.27,13.25h60.32c7.27,0,13.23-5.94,13.23-13.25v-97.31c0-7.31-5.96-13.25-13.23-13.25Z"/></g></svg>