<?xml version="1.0" encoding="UTF-8"?><svg id="Layer_2" xmlns="http://www.w3.org/2000/svg" viewBox="0 0 1357.65 955.89"><defs><style>.cls-1{fill:#e3edff;}</style></defs><g id="Layer_1-2"><path class="cls-1" d="M310.03,0C138.8,0,0,138.8,0,310.03s138.8,310.03,310.03,310.03c24.24,0,47.82-2.78,70.46-8.04-62.29,152.84-181.73,276.31-331.77,343.88,321.37-35.48,571.34-307.92,571.34-638.74,0-1.19-.01-2.37-.02-3.56.01-1.19.02-2.37.02-3.56C620.05,138.8,481.25,0,310.03,0Z"/><path class="cls-1" d="M1357.65,310.03C1357.65,138.8,1218.85,0,1047.62,0s-310.03,138.8-310.03,310.03,138.8,310.03,310.03,310.03c24.24,0,47.82-2.78,70.46-8.04-62.29,152.84-181.73,276.31-331.77,343.88,321.37-35.48,571.34-307.92,571.34-638.74,0-1.19-.01-2.37-.02-3.56.01-1.19.02-2.37.02-3.56Z"/></g></svg>