<?xml version="1.0" encoding="UTF-8"?><svg id="Layer_2" xmlns="http://www.w3.org/2000/svg" viewBox="0 0 198.18 184.28"><defs><style>.cls-1{fill:none;stroke:#fff;stroke-linecap:round;stroke-linejoin:round;stroke-width:5.64px;}</style></defs><g id="Layer_1-2"><path class="cls-1" d="M158.34,59.37h27.05c5.5,0,9.96,4.46,9.96,9.96v102.18c0,5.5-4.46,9.96-9.96,9.96H12.78c-5.5,0-9.96-4.46-9.96-9.96v-102.18c0-5.5,4.46-9.96,9.96-9.96h106.49"/><line class="cls-1" x1="23.95" y1="157.61" x2="117.87" y2="157.61"/><path class="cls-1" d="M33.95,108.72c-5.52,0-10-4.18-10-9.33s4.48-9.33,10-9.33,10,4.18,10,9.33"/><line class="cls-1" x1="33.95" y1="83.24" x2="33.95" y2="90.05"/><path class="cls-1" d="M33.95,108.72c5.52,0,10,4.18,10,9.33s-4.48,9.33-10,9.33-10-4.18-10-9.33"/><line class="cls-1" x1="33.95" y1="134.19" x2="33.95" y2="127.38"/><line class="cls-1" x1="136.48" y1="157.61" x2="174.22" y2="157.61"/><line class="cls-1" x1="136.48" y1="140.04" x2="174.22" y2="140.04"/><polygon class="cls-1" points="109.02 108.69 82.03 116.14 89.48 89.16 175.82 2.82 195.36 22.36 109.02 108.69"/><line class="cls-1" x1="160.69" y1="17.95" x2="180.23" y2="37.49"/></g></svg>