<?xml version="1.0" encoding="UTF-8"?><svg id="Layer_2" xmlns="http://www.w3.org/2000/svg" viewBox="0 0 48.64 63.96"><defs><style>.cls-1{stroke:#457ff2;}.cls-1,.cls-2{fill:none;stroke-linecap:round;stroke-linejoin:round;stroke-width:1.5px;}.cls-2{stroke:#003153;}</style></defs><g id="Layer_1-2"><path class="cls-1" d="M.75,53.95l10.5-10.5c.69-.69,1.7-.98,2.65-.77l15.26,3.46c1.3.3,2.23,1.45,2.23,2.79h0c0,1.68-1.44,2.99-3.11,2.85l-9.36-.82"/><path class="cls-1" d="M30.24,51.26l13.66-6.86c1.28-.64,2.83-.2,3.58,1.02h0c.79,1.29.4,2.98-.89,3.78l-13.45,8.36c-.81.5-1.74.76-2.68.76l-15.73-.05-4.71,4.94"/><path class="cls-2" d="M16.2,40.82l1.78-5.76s-.27-5.76-.27-8.33c0-.41.01-.73.02-.94,0-.03.01-.04.01-.07"/><line class="cls-2" x1="23.98" y1="35.79" x2="21.16" y2="41.79"/><path class="cls-2" d="M37.66,5.01c0,2.35-1.91,4.26-4.26,4.26s-4.26-1.91-4.26-4.26,1.91-4.26,4.26-4.26,4.26,1.91,4.26,4.26Z"/><path class="cls-2" d="M27.18,16.33v5.79c0,.43.11.83.31,1.18"/><path class="cls-2" d="M24.55,42.45l-.25-6.29-.31-.38-4.19-5.07c-1.17-1.41-1.89-3.14-2.06-4.94-.09-1-.03-2.01.22-3.01,1.33-5.3,2.71-8.32,4.04-10.42,1.68-2.61,4.65-3.3,6.75-2.27l.39.19c1.87.91,3.05,2.8,3.05,4.87v4.57h5.21c1.33,0,2.41,1.07,2.41,2.41,0,.66-.27,1.27-.71,1.71-.38.39-.89.64-1.46.7-.07.01-.16.01-.24.01h-7.8c-.9,0-1.69-.5-2.1-1.25l-.95,3.92,3.31,7.69-.59,8.47"/><path class="cls-2" d="M41.66,42.59v-16.2c0-1.03-.83-1.85-1.85-1.85h-2.51"/></g></svg>