<?xml version="1.0" encoding="UTF-8"?><svg id="Layer_2" xmlns="http://www.w3.org/2000/svg" viewBox="0 0 185.7 198.18"><defs><style>.cls-1{stroke:#003153;}.cls-1,.cls-2{fill:none;stroke-linecap:round;stroke-linejoin:round;stroke-width:5.64px;}.cls-2{stroke:#457ff2;}</style></defs><g id="Layer_1-2"><rect class="cls-1" x="2.82" y="173.14" width="179.59" height="22.21"/><line class="cls-1" x1="146.82" y1="173.13" x2="146.82" y2="65.9"/><line class="cls-1" x1="169.92" y1="173.13" x2="169.92" y2="65.9"/><line class="cls-1" x1="102.97" y1="73.26" x2="102.97" y2="65.89"/><line class="cls-1" x1="102.97" y1="173.11" x2="102.97" y2="165.78"/><line class="cls-1" x1="126.08" y1="84.85" x2="126.08" y2="65.89"/><line class="cls-1" x1="126.08" y1="173.11" x2="126.08" y2="154.19"/><line class="cls-1" x1="59.15" y1="88.13" x2="59.15" y2="65.89"/><line class="cls-1" x1="59.15" y1="173.11" x2="59.15" y2="150.91"/><line class="cls-1" x1="82.26" y1="73.99" x2="82.26" y2="65.89"/><line class="cls-1" x1="82.26" y1="173.11" x2="82.26" y2="165.05"/><line class="cls-1" x1="15.32" y1="173.13" x2="15.32" y2="65.9"/><line class="cls-1" x1="38.42" y1="173.13" x2="38.42" y2="65.9"/><circle class="cls-1" cx="92.62" cy="36.15" r="10.02" transform="translate(36.08 117.92) rotate(-76.66)"/><polygon class="cls-1" points="182.42 49.38 93.04 2.82 2.82 49.38 2.82 65.9 182.87 65.9 182.87 49.38 182.42 49.38"/><path class="cls-1" d="M94.25,119.51c-4.19,0-7.59-3.17-7.59-7.08s3.4-7.08,7.59-7.08,7.59,3.17,7.59,7.08"/><line class="cls-1" x1="94.25" y1="100.18" x2="94.25" y2="105.34"/><path class="cls-1" d="M94.25,119.51c4.19,0,7.59,3.17,7.59,7.08s-3.4,7.08-7.59,7.08-7.59-3.17-7.59-7.08"/><line class="cls-1" x1="94.25" y1="138.85" x2="94.25" y2="133.68"/><circle class="cls-2" cx="94.25" cy="119.51" r="37.13"/></g></svg>