<svg id="visual" viewBox="0 0 1600 500" width="1600" height="500" xmlns="http://www.w3.org/2000/svg" xmlns:xlink="http://www.w3.org/1999/xlink" version="1.1"><rect x="0" y="0" width="1600" height="500" fill="#003153"/><defs><linearGradient id="grad1_0" x1="68.8%" y1="100%" x2="100%" y2="0%"><stop offset="-14.000000000000007%" stop-color="#457ff2" stop-opacity="1"/><stop offset="114.00000000000001%" stop-color="#457ff2" stop-opacity="1"/></linearGradient></defs><defs><linearGradient id="grad1_1" x1="68.8%" y1="100%" x2="100%" y2="0%"><stop offset="-14.000000000000007%" stop-color="#457ff2" stop-opacity="1"/><stop offset="114.00000000000001%" stop-color="#3174db" stop-opacity="1"/></linearGradient></defs><defs><linearGradient id="grad1_2" x1="68.8%" y1="100%" x2="100%" y2="0%"><stop offset="-14.000000000000007%" stop-color="#1d69c3" stop-opacity="1"/><stop offset="114.00000000000001%" stop-color="#3174db" stop-opacity="1"/></linearGradient></defs><defs><linearGradient id="grad1_3" x1="68.8%" y1="100%" x2="100%" y2="0%"><stop offset="-14.000000000000007%" stop-color="#1d69c3" stop-opacity="1"/><stop offset="114.00000000000001%" stop-color="#095eac" stop-opacity="1"/></linearGradient></defs><defs><linearGradient id="grad1_4" x1="68.8%" y1="100%" x2="100%" y2="0%"><stop offset="-14.000000000000007%" stop-color="#005395" stop-opacity="1"/><stop offset="114.00000000000001%" stop-color="#095eac" stop-opacity="1"/></linearGradient></defs><defs><linearGradient id="grad1_5" x1="68.8%" y1="100%" x2="100%" y2="0%"><stop offset="-14.000000000000007%" stop-color="#005395" stop-opacity="1"/><stop offset="114.00000000000001%" stop-color="#00477e" stop-opacity="1"/></linearGradient></defs><defs><linearGradient id="grad1_6" x1="68.8%" y1="100%" x2="100%" y2="0%"><stop offset="-14.000000000000007%" stop-color="#003c68" stop-opacity="1"/><stop offset="114.00000000000001%" stop-color="#00477e" stop-opacity="1"/></linearGradient></defs><defs><linearGradient id="grad1_7" x1="68.8%" y1="100%" x2="100%" y2="0%"><stop offset="-14.000000000000007%" stop-color="#003c68" stop-opacity="1"/><stop offset="114.00000000000001%" stop-color="#003153" stop-opacity="1"/></linearGradient></defs><defs><linearGradient id="grad2_0" x1="0%" y1="100%" x2="31.3%" y2="0%"><stop offset="-14.000000000000007%" stop-color="#457ff2" stop-opacity="1"/><stop offset="114.00000000000001%" stop-color="#457ff2" stop-opacity="1"/></linearGradient></defs><defs><linearGradient id="grad2_1" x1="0%" y1="100%" x2="31.3%" y2="0%"><stop offset="-14.000000000000007%" stop-color="#3174db" stop-opacity="1"/><stop offset="114.00000000000001%" stop-color="#457ff2" stop-opacity="1"/></linearGradient></defs><defs><linearGradient id="grad2_2" x1="0%" y1="100%" x2="31.3%" y2="0%"><stop offset="-14.000000000000007%" stop-color="#3174db" stop-opacity="1"/><stop offset="114.00000000000001%" stop-color="#1d69c3" stop-opacity="1"/></linearGradient></defs><defs><linearGradient id="grad2_3" x1="0%" y1="100%" x2="31.3%" y2="0%"><stop offset="-14.000000000000007%" stop-color="#095eac" stop-opacity="1"/><stop offset="114.00000000000001%" stop-color="#1d69c3" stop-opacity="1"/></linearGradient></defs><defs><linearGradient id="grad2_4" x1="0%" y1="100%" x2="31.3%" y2="0%"><stop offset="-14.000000000000007%" stop-color="#095eac" stop-opacity="1"/><stop offset="114.00000000000001%" stop-color="#005395" stop-opacity="1"/></linearGradient></defs><defs><linearGradient id="grad2_5" x1="0%" y1="100%" x2="31.3%" y2="0%"><stop offset="-14.000000000000007%" stop-color="#00477e" stop-opacity="1"/><stop offset="114.00000000000001%" stop-color="#005395" stop-opacity="1"/></linearGradient></defs><defs><linearGradient id="grad2_6" x1="0%" y1="100%" x2="31.3%" y2="0%"><stop offset="-14.000000000000007%" stop-color="#00477e" stop-opacity="1"/><stop offset="114.00000000000001%" stop-color="#003c68" stop-opacity="1"/></linearGradient></defs><defs><linearGradient id="grad2_7" x1="0%" y1="100%" x2="31.3%" y2="0%"><stop offset="-14.000000000000007%" stop-color="#003153" stop-opacity="1"/><stop offset="114.00000000000001%" stop-color="#003c68" stop-opacity="1"/></linearGradient></defs><g transform="translate(1600, 500)"><path d="M-450 0C-442.2 -54.8 -434.3 -109.7 -415.7 -172.2C-397.1 -234.8 -367.8 -305 -310.4 -310.4C-253.1 -315.8 -167.8 -256.4 -111.4 -268.8C-55 -281.3 -27.5 -365.7 0 -450L0 0Z" fill="#00375e"/><path d="M-393.7 0C-386.9 -48 -380.1 -96 -363.8 -150.7C-347.5 -205.4 -321.8 -266.9 -271.6 -271.6C-221.4 -276.4 -146.8 -224.3 -97.4 -235.2C-48.1 -246.1 -24 -319.9 0 -393.7L0 0Z" fill="#004273"/><path d="M-337.5 0C-331.6 -41.1 -325.8 -82.2 -311.8 -129.2C-297.9 -176.1 -275.8 -228.8 -232.8 -232.8C-189.8 -236.9 -125.8 -192.3 -83.5 -201.6C-41.2 -211 -20.6 -274.2 0 -337.5L0 0Z" fill="#004d8a"/><path d="M-281.2 0C-276.4 -34.3 -271.5 -68.5 -259.8 -107.6C-248.2 -146.7 -229.9 -190.6 -194 -194C-158.2 -197.4 -104.8 -160.2 -69.6 -168C-34.4 -175.8 -17.2 -228.5 0 -281.2L0 0Z" fill="#0058a0"/><path d="M-225 0C-221.1 -27.4 -217.2 -54.8 -207.9 -86.1C-198.6 -117.4 -183.9 -152.5 -155.2 -155.2C-126.5 -157.9 -83.9 -128.2 -55.7 -134.4C-27.5 -140.7 -13.7 -182.8 0 -225L0 0Z" fill="#1464b7"/><path d="M-168.7 0C-165.8 -20.6 -162.9 -41.1 -155.9 -64.6C-148.9 -88 -137.9 -114.4 -116.4 -116.4C-94.9 -118.4 -62.9 -96.1 -41.8 -100.8C-20.6 -105.5 -10.3 -137.1 0 -168.7L0 0Z" fill="#276fcf"/><path d="M-112.5 0C-110.5 -13.7 -108.6 -27.4 -103.9 -43.1C-99.3 -58.7 -91.9 -76.3 -77.6 -77.6C-63.3 -79 -41.9 -64.1 -27.8 -67.2C-13.7 -70.3 -6.9 -91.4 0 -112.5L0 0Z" fill="#3b7ae6"/><path d="M-56.2 0C-55.3 -6.9 -54.3 -13.7 -52 -21.5C-49.6 -29.3 -46 -38.1 -38.8 -38.8C-31.6 -39.5 -21 -32 -13.9 -33.6C-6.9 -35.2 -3.4 -45.7 0 -56.2L0 0Z" fill="#457ff2"/></g><g transform="translate(0, 0)"><path d="M450 0C446.1 69.4 442.3 138.8 391.7 162.3C341.2 185.7 244 163.3 207.9 207.9C171.8 252.5 196.7 364.2 172.2 415.7C147.7 467.3 73.9 458.6 0 450L0 0Z" fill="#00375e"/><path d="M393.8 0C390.4 60.7 387 121.4 342.8 142C298.5 162.5 213.5 142.9 181.9 181.9C150.3 220.9 172.1 318.7 150.7 363.8C129.3 408.9 64.6 401.3 0 393.8L0 0Z" fill="#004273"/><path d="M337.5 0C334.6 52 331.7 104.1 293.8 121.7C255.9 139.3 183 122.5 155.9 155.9C128.8 189.4 147.5 273.2 129.2 311.8C110.8 350.5 55.4 344 0 337.5L0 0Z" fill="#004d8a"/><path d="M281.3 0C278.8 43.4 276.4 86.7 244.8 101.4C213.2 116.1 152.5 102 129.9 129.9C107.4 157.8 122.9 227.6 107.6 259.8C92.3 292 46.2 286.6 0 281.3L0 0Z" fill="#0058a0"/><path d="M225 0C223.1 34.7 221.1 69.4 195.9 81.1C170.6 92.9 122 81.6 103.9 103.9C85.9 126.3 98.3 182.1 86.1 207.9C73.9 233.6 36.9 229.3 0 225L0 0Z" fill="#1464b7"/><path d="M168.8 0C167.3 26 165.8 52 146.9 60.8C127.9 69.6 91.5 61.2 78 78C64.4 94.7 73.8 136.6 64.6 155.9C55.4 175.2 27.7 172 0 168.8L0 0Z" fill="#276fcf"/><path d="M112.5 0C111.5 17.3 110.6 34.7 97.9 40.6C85.3 46.4 61 40.8 52 52C42.9 63.1 49.2 91.1 43.1 103.9C36.9 116.8 18.5 114.7 0 112.5L0 0Z" fill="#3b7ae6"/><path d="M56.3 0C55.8 8.7 55.3 17.3 49 20.3C42.6 23.2 30.5 20.4 26 26C21.5 31.6 24.6 45.5 21.5 52C18.5 58.4 9.2 57.3 0 56.3L0 0Z" fill="#457ff2"/></g></svg>