<svg id="visual" viewBox="0 0 960 540" width="960" height="540" xmlns="http://www.w3.org/2000/svg" xmlns:xlink="http://www.w3.org/1999/xlink" version="1.1"><rect x="0" y="0" width="960" height="540" fill="#457FF2"/><defs><linearGradient id="grad1_0" x1="43.8%" y1="0%" x2="100%" y2="100%"><stop offset="14.444444444444446%" stop-color="#d9e5fc" stop-opacity="1"/><stop offset="85.55555555555554%" stop-color="#d9e5fc" stop-opacity="1"/></linearGradient></defs><defs><linearGradient id="grad1_1" x1="43.8%" y1="0%" x2="100%" y2="100%"><stop offset="14.444444444444446%" stop-color="#d9e5fc" stop-opacity="1"/><stop offset="85.55555555555554%" stop-color="#a9c3fb" stop-opacity="1"/></linearGradient></defs><defs><linearGradient id="grad1_2" x1="43.8%" y1="0%" x2="100%" y2="100%"><stop offset="14.444444444444446%" stop-color="#7aa1f8" stop-opacity="1"/><stop offset="85.55555555555554%" stop-color="#a9c3fb" stop-opacity="1"/></linearGradient></defs><defs><linearGradient id="grad1_3" x1="43.8%" y1="0%" x2="100%" y2="100%"><stop offset="14.444444444444446%" stop-color="#7aa1f8" stop-opacity="1"/><stop offset="85.55555555555554%" stop-color="#457ff2" stop-opacity="1"/></linearGradient></defs><defs><linearGradient id="grad2_0" x1="0%" y1="0%" x2="56.3%" y2="100%"><stop offset="14.444444444444446%" stop-color="#d9e5fc" stop-opacity="1"/><stop offset="85.55555555555554%" stop-color="#d9e5fc" stop-opacity="1"/></linearGradient></defs><defs><linearGradient id="grad2_1" x1="0%" y1="0%" x2="56.3%" y2="100%"><stop offset="14.444444444444446%" stop-color="#a9c3fb" stop-opacity="1"/><stop offset="85.55555555555554%" stop-color="#d9e5fc" stop-opacity="1"/></linearGradient></defs><defs><linearGradient id="grad2_2" x1="0%" y1="0%" x2="56.3%" y2="100%"><stop offset="14.444444444444446%" stop-color="#a9c3fb" stop-opacity="1"/><stop offset="85.55555555555554%" stop-color="#7aa1f8" stop-opacity="1"/></linearGradient></defs><defs><linearGradient id="grad2_3" x1="0%" y1="0%" x2="56.3%" y2="100%"><stop offset="14.444444444444446%" stop-color="#457ff2" stop-opacity="1"/><stop offset="85.55555555555554%" stop-color="#7aa1f8" stop-opacity="1"/></linearGradient></defs><g transform="translate(960, 0)"><path d="M0 351C-32.9 336.6 -65.7 322.3 -102 313.8C-138.2 305.4 -177.9 303 -206.3 284C-234.7 264.9 -251.8 229.3 -272.6 198.1C-293.5 166.9 -318.2 140.1 -331.9 107.8C-345.6 75.6 -348.3 37.8 -351 0L0 0Z" fill="#6190f5"/><path d="M0 263.3C-24.6 252.5 -49.3 241.7 -76.5 235.4C-103.7 229.1 -133.5 227.3 -154.7 213C-176 198.7 -188.8 172 -204.5 148.6C-220.1 125.2 -238.7 105.1 -248.9 80.9C-259.2 56.7 -261.2 28.3 -263.2 0L0 0Z" fill="#91b2f9"/><path d="M0 175.5C-16.4 168.3 -32.9 161.1 -51 156.9C-69.1 152.7 -89 151.5 -103.2 142C-117.3 132.5 -125.9 114.6 -136.3 99C-146.8 83.4 -159.1 70.1 -166 53.9C-172.8 37.8 -174.2 18.9 -175.5 0L0 0Z" fill="#c1d4fc"/><path d="M0 87.8C-8.2 84.2 -16.4 80.6 -25.5 78.5C-34.6 76.4 -44.5 75.8 -51.6 71C-58.7 66.2 -62.9 57.3 -68.2 49.5C-73.4 41.7 -79.6 35 -83 27C-86.4 18.9 -87.1 9.4 -87.7 0L0 0Z" fill="#d9e5fc"/></g><g transform="translate(0, 540)"><path d="M0 -351C35.7 -346 71.3 -341.1 107.8 -331.9C144.4 -322.8 181.7 -309.5 206.3 -284C230.9 -258.5 242.7 -220.7 261.3 -189.9C279.9 -159 305.4 -134.9 321.5 -104.4C337.5 -73.9 344.3 -37 351 0L0 0Z" fill="#6190f5"/><path d="M0 -263.2C26.7 -259.5 53.5 -255.8 80.9 -248.9C108.3 -242.1 136.3 -232.1 154.7 -213C173.2 -193.8 182 -165.5 196 -142.4C209.9 -119.2 229 -101.2 241.1 -78.3C253.2 -55.5 258.2 -27.7 263.3 0L0 0Z" fill="#91b2f9"/><path d="M0 -175.5C17.8 -173 35.7 -170.5 53.9 -166C72.2 -161.4 90.9 -154.7 103.2 -142C115.4 -129.2 121.3 -110.4 130.7 -94.9C140 -79.5 152.7 -67.5 160.7 -52.2C168.8 -37 172.1 -18.5 175.5 0L0 0Z" fill="#c1d4fc"/><path d="M0 -87.7C8.9 -86.5 17.8 -85.3 27 -83C36.1 -80.7 45.4 -77.4 51.6 -71C57.7 -64.6 60.7 -55.2 65.3 -47.5C70 -39.7 76.3 -33.7 80.4 -26.1C84.4 -18.5 86.1 -9.2 87.8 0L0 0Z" fill="#d9e5fc"/></g></svg>