<?xml version="1.0" encoding="UTF-8"?><svg id="Layer_2" xmlns="http://www.w3.org/2000/svg" viewBox="0 0 197.99 228.46"><defs><style>.cls-1{stroke:#457ff2;}.cls-1,.cls-2{fill:none;stroke-linecap:round;stroke-linejoin:round;stroke-width:6px;}.cls-2{stroke:#003153;}</style></defs><g id="Layer_1-2"><g><path class="cls-2" d="M99,225.46c91.64-48.39,96-47.81,96-159.8,0-10.62-.51-21.02-1.48-31.13C133.37,48.59,99,3,99,3c0,0-34.37,45.59-94.52,31.53-.97,10.11-1.48,20.51-1.48,31.13,0,111.99,4.35,111.41,96,159.8Z"/><g><g><path class="cls-1" d="M60.61,152.2c-.03-.98-.01-1.98,.05-2.99,.26-4.26,1.12-8.39,3.11-12.2,4.69-9.03,13.95-13.69,23.26-15.7"/><path class="cls-1" d="M110.97,121.3c9.3,2.01,18.56,6.66,23.26,15.7,1.99,3.81,2.85,7.94,3.11,12.2,.06,1.01,.09,2.01,.05,2.99"/><path class="cls-1" d="M98.99,128.19c7.47,0,13.55-6.03,14.96-14.96,.28-1.75,.57-3.68,.68-5.46,.66-10.95-5.93-20.33-15.64-20.33s-16.3,9.37-15.64,20.33c.11,1.77,.4,3.7,.68,5.46,1.42,8.94,7.49,14.96,14.96,14.96Z"/></g><path class="cls-1" d="M81.33,165.26s0,0-.01,0"/><path class="cls-1" d="M68.97,159.11c-.82-.55-1.63-1.13-2.43-1.73-23.83-17.93-28.61-51.77-10.69-75.6,17.93-23.83,51.77-28.61,75.6-10.69,23.83,17.93,28.61,51.77,10.69,75.6-11.36,15.1-29.12,22.56-46.67,21.42"/></g></g></g></svg>