<?xml version="1.0" encoding="UTF-8"?><svg id="Layer_2" xmlns="http://www.w3.org/2000/svg" viewBox="0 0 211.79 228.15"><defs><style>.cls-1{stroke:#457ff2;}.cls-1,.cls-2{fill:none;stroke-linecap:round;stroke-linejoin:round;stroke-width:6px;}.cls-2{stroke:#003153;}</style></defs><g id="Layer_1-2"><g><g><path class="cls-1" d="M92.16,225.15c-33.32,0-50.25-22.41-50.25-46.63,0-20.86,6.77-33.04,14.29-40.16,8.71-8.24,20.52-13.06,30.08-15.49"/><path class="cls-1" d="M71.93,175.07c-.48,2.39-.76,5.08-.76,8.12,0,12.58,8.63,24.23,25.61,24.64"/><path class="cls-1" d="M124.94,122.88c9.54,2.42,21.36,7.24,30.07,15.47,2.58,2.45,5.08,5.5,7.24,9.29"/><path class="cls-1" d="M105.6,134.07c12.01,0,21.78-9.69,24.06-24.06,.45-2.82,.92-5.92,1.09-8.77,1.07-17.61-9.53-32.68-25.14-32.68s-26.21,15.07-25.14,32.68c.17,2.85,.64,5.95,1.09,8.77,2.28,14.37,12.04,24.06,24.06,24.06Z"/><path class="cls-1" d="M157.91,205.08c4.5,1.19,9.12-1.47,11.41-6.63,.45-1.01,.93-2.13,1.28-3.18,2.15-6.49-.33-13.2-6.18-14.75-5.85-1.55-11.32,3.05-12.67,9.75-.22,1.08-.35,2.29-.46,3.39-.57,5.61,2.12,10.21,6.63,11.41Z"/><polyline class="cls-1" points="102.7 185.69 112.86 147.64 173.26 147.64 168.17 166.67"/><polyline class="cls-1" points="157.9 205.09 152.56 225.15 92.16 225.15 99.15 198.96"/></g><g><path class="cls-2" d="M23.86,180.17C4.51,157.76,3,128.37,3,65.19c0-10.53,.55-20.86,1.59-30.88C69.05,48.24,105.9,3,105.9,3c0,0,36.83,45.24,101.31,31.3,1.04,10.02,1.58,20.35,1.58,30.88,0,63.19-1.51,92.57-20.86,114.98"/><g><path class="cls-2" d="M33.58,62.12c-.21,0-.43-.01-.64-.02"/><path class="cls-2" d="M93.06,42.84c-8.48,6.05-21.95,13.7-39.44,17.29"/></g></g></g></g></svg>