<?xml version="1.0" encoding="UTF-8"?><svg id="Layer_2" xmlns="http://www.w3.org/2000/svg" viewBox="0 0 258.19 206.06"><defs><style>.cls-1{stroke-dasharray:0 0 .91 17.25;}.cls-1,.cls-2,.cls-3,.cls-4{fill:none;stroke-linecap:round;stroke-linejoin:round;stroke-width:6px;}.cls-1,.cls-3,.cls-4{stroke:#003153;}.cls-2{stroke:#457ff2;}.cls-3{stroke-dasharray:0 0 1.07 20.39;}</style></defs><g id="Layer_1-2"><g><polygon class="cls-2" points="255.19 176.5 255.19 145.22 228.62 145.22 228.62 118.66 197.35 118.66 197.35 145.22 170.78 145.22 170.78 176.5 197.35 176.5 197.35 203.06 228.62 203.06 228.62 176.5 255.19 176.5"/><path class="cls-2" d="M48.48,198.55s45.27-22.22,45.48-52.19c.1-14.21-11.65-25.87-25.21-26.28-8.01-.24-15.26,2.89-20.27,8.24-5.02-5.35-12.26-8.48-20.27-8.24-13.56,.42-25.31,12.07-25.21,26.28,.22,29.97,45.48,52.19,45.48,52.19Z"/><g><line class="cls-4" x1="68.97" y1="68.27" x2="68.47" y2="68.27"/><polyline class="cls-4" points="48.98 68.27 48.48 68.27 48.48 68.77"/><line class="cls-3" x1="48.48" y1="89.16" x2="48.48" y2="100.43"/><line class="cls-4" x1="48.48" y1="110.62" x2="48.48" y2="111.12"/></g><g><line class="cls-4" x1="212.99" y1="104.68" x2="212.99" y2="104.18"/><line class="cls-1" x1="212.99" y1="86.93" x2="212.99" y2="77.39"/><polyline class="cls-4" points="212.99 68.77 212.99 68.27 212.49 68.27"/><line class="cls-4" x1="194.65" y1="68.27" x2="194.15" y2="68.27"/></g><g><path class="cls-4" d="M148.19,46.17c11.85,2.56,23.66,8.5,29.64,20.02,2.53,4.86,3.64,10.13,3.96,15.56,1.23,20.71-10.5,20.72-48.88,20.72s-50.1-.01-48.87-20.72c.32-5.43,1.43-10.7,3.95-15.56,5.99-11.52,17.79-17.46,29.65-20.02"/><path class="cls-4" d="M132.92,54.95c9.53,0,17.27-7.68,19.08-19.08,.35-2.24,.73-4.7,.86-6.96,.84-13.97-7.56-25.92-19.94-25.92s-20.79,11.95-19.94,25.92c.14,2.26,.51,4.72,.86,6.96,1.81,11.39,9.55,19.08,19.08,19.08Z"/></g></g></g></svg>