<?xml version="1.0" encoding="UTF-8"?><svg id="Layer_2" xmlns="http://www.w3.org/2000/svg" viewBox="0 0 256.7 241.24"><defs><style>.cls-1{fill:#003153;}.cls-2{fill:#457ff2;}</style></defs><g id="Layer_1-2"><path class="cls-2" d="M92.96,41.88c-.26,14.87-9.29,28.46-23.4,33.67-14.17,5.23-30.38.86-40.08-10.68s-10.95-28.4-3.3-41.29S49.08,3.77,63.77,6.6c16.96,3.27,28.89,18.18,29.19,35.27.07,3.86,6.07,3.87,6,0-.31-17.65-11.12-33.37-27.8-39.46s-35.33-.64-46.33,12.72-12.81,33.51-3.49,48.63c9.05,14.69,26.43,22.32,43.37,19.3,19.87-3.54,33.91-21.32,34.26-41.19.07-3.86-5.93-3.86-6,0Z"/><path class="cls-2" d="M66.38,27.49c-5.27-4.31-12.66-7.18-17.82-1.04-3.27,3.89-2.9,9.63.94,12.98,3.58,3.13,10.85,3.19,13.16,7.57,1.11,2.1.6,4.03-.99,5.68-3.35,3.48-8.47,1.77-12.22-.04-3.46-1.68-6.51,3.49-3.03,5.18,6.03,2.93,13.48,4.65,18.95-.38,3.51-3.23,4.84-7.93,2.95-12.42-2.13-5.08-7.32-6.42-11.91-8.46-2.05-.91-4.76-2.14-4.03-4.89,1.34-5.1,7.35-1.9,9.76.07,2.96,2.43,7.23-1.79,4.24-4.24h0Z"/><path class="cls-2" d="M54.07,20.89v4.88c0,1.57,1.38,3.07,3,3s3-1.32,3-3v-4.88c0-1.57-1.38-3.07-3-3s-3,1.32-3,3h0Z"/><path class="cls-2" d="M54.07,57.99v4.88c0,1.57,1.38,3.07,3,3s3-1.32,3-3v-4.88c0-1.57-1.38-3.07-3-3s-3,1.32-3,3h0Z"/><path class="cls-1" d="M184.39,179.41c5.74-5.71,12.02-10.94,18.65-15.57,7.13-4.98,15.14-10.03,23.81-11.66,6.74-1.27,17.32-.85,21.99,4.95s-4.71,10.53-9.07,13.31c-5.19,3.32-10.3,6.75-15.37,10.24-10.43,7.19-20.68,14.63-30.85,22.18-8.47,6.29-17.09,12.91-27.08,16.6-8.17,3.01-16.62,5.32-25.01,7.61-9.73,2.66-19.57-1.15-28.91-4.18-5.55-1.8-10.9-3.86-15.9-6.89-4.67-2.82-9.1-6.07-14.09-8.33-10.31-4.66-18.64-1.98-28.4,2.52-3.5,1.62-.46,6.79,3.03,5.18,5.4-2.49,10.82-5.27,16.92-4.22s11.28,4.82,16.34,8.04c9.39,5.97,19.58,9.46,30.27,12.38,4.24,1.16,8.68,2.69,13.1,2.83,5.14.16,10.34-1.82,15.23-3.21,8.94-2.53,18.16-4.95,26.47-9.18,11.8-6.01,22.14-14.84,32.81-22.59,11.52-8.37,23.17-16.56,35.17-24.23,3.98-2.54,9.05-5.37,11.81-9.34s1.1-8.58-1.5-12.04c-4.98-6.64-14.05-8.09-21.83-8.05-10.37.05-19.92,5-28.43,10.52s-16.31,11.84-23.39,18.89c-2.74,2.73,1.5,6.97,4.24,4.24h0Z"/><path class="cls-1" d="M119.32,188.93c16.27-3.56,32.21,3.45,48.36.62,12.83-2.25,23.12-12.75,16.95-26.09-6.62-14.32-23.78-12.58-36.92-11.66-8.94.62-18.09,1.68-26.98.05-7.81-1.44-14.17-6.03-21.51-8.72-16.4-6.01-31.31,1.72-45.06,10.28-3.27,2.04-.26,7.23,3.03,5.18,6.95-4.33,14.07-8.87,22.12-10.82,8.63-2.1,16.54,0,24.32,3.88,7.35,3.67,14.24,6.29,22.51,6.88,9.14.66,18.32-.66,27.44-1.09,8.11-.39,18.65-1.47,24.12,5.94,2.32,3.14,3.67,7.58,2.38,11.41-1.67,4.98-6.9,7.33-11.6,8.49-8.18,2.01-16.61.33-24.79-.7-8.74-1.09-17.3-1.32-25.95.58-3.77.83-2.17,6.61,1.6,5.79h0Z"/><path class="cls-1" d="M31.71,149.54h9.99c4.82,0,10.24-.85,10.97,5.59.54,4.79,0,9.95,0,14.77,0,15.16.93,30.64,0,45.78-.35,5.65-4.34,5.93-8.71,5.93h-12.25c-3.86,0-3.87,6,0,6,7.43,0,19.46,2.44,24.57-4.4,3.82-5.11,2.39-13.87,2.39-19.85v-32.15c0-5.98,1.03-13.03-.36-18.93-2.76-11.72-17.68-8.74-26.6-8.74-3.86,0-3.87,6,0,6h0Z"/><path class="cls-1" d="M2.9,136.32h13.59c6.16,0,11.85.62,12.22,8.57.32,6.7,0,13.49,0,20.19,0,20.13.61,40.36,0,60.48-.19,6.43-3.9,9.27-9.82,9.27H2.9c-3.86,0-3.87,6,0,6,10.06,0,25.62,3.23,30.53-8.3,2.95-6.92,1.29-17.05,1.29-24.31,0-21.07.86-42.33,0-63.39-.35-8.55-6.04-14.42-14.56-14.5-5.75-.06-11.51,0-17.26,0-3.86,0-3.87,6,0,6h0Z"/><path class="cls-1" d="M178.77,118.55v-58l-3,3h25.22l-3-3v57.68l3-3c-8.41.11-16.81.21-25.22.32-3.86.05-3.87,6.05,0,6,8.41-.11,16.81-.21,25.22-.32,1.62-.02,3-1.36,3-3v-57.68c0-1.62-1.37-3-3-3h-25.22c-1.62,0-3,1.37-3,3v58c0,3.86,6,3.87,6,0Z"/><path class="cls-1" d="M141.7,118.55v-45.44l-3,3h25.22l-3-3v45.12l3-3c-8.41.11-16.81.21-25.22.32-3.86.05-3.87,6.05,0,6,8.41-.11,16.81-.21,25.22-.32,1.62-.02,3-1.36,3-3v-45.12c0-1.62-1.37-3-3-3h-25.22c-1.62,0-3,1.37-3,3v45.44c0,3.86,6,3.87,6,0Z"/><path class="cls-1" d="M104.64,118.55v-32.87l-3,3h25.22l-3-3v32.56l3-3c-8.41.11-16.81.21-25.22.32-3.86.05-3.87,6.05,0,6,8.41-.11,16.81-.21,25.22-.32,1.62-.02,3-1.36,3-3v-32.56c0-1.62-1.37-3-3-3h-25.22c-1.62,0-3,1.37-3,3v32.87c0,3.86,6,3.87,6,0Z"/><path class="cls-1" d="M223.32,16.88c-7.73,9.66-15.46,19.32-23.19,28.98-1.55,1.94-.68,5.12,2.12,5.12h10.58l-3-3v70.56c0,1.61,1.37,3.02,3,3,8.41-.11,16.81-.21,25.22-.32,1.62-.02,3-1.36,3-3V47.98l-3,3h10.58c2.82,0,3.67-3.18,2.12-5.12-7.73-9.66-15.46-19.32-23.19-28.98-2.41-3.01-6.63,1.26-4.24,4.24,7.73,9.66,15.46,19.32,23.19,28.98l2.12-5.12h-10.58c-1.62,0-3,1.37-3,3v70.25l3-3c-8.41.11-16.81.21-25.22.32l3,3V47.98c0-1.62-1.37-3-3-3h-10.58l2.12,5.12c7.73-9.66,15.46-19.32,23.19-28.98,2.39-2.99-1.83-7.26-4.24-4.24Z"/><path class="cls-1" d="M86.37,133.8h166.95c3.86,0,3.87-6,0-6H86.37c-3.86,0-3.87,6,0,6h0Z"/></g></svg>