<?xml version="1.0" encoding="UTF-8"?><svg id="Layer_2" xmlns="http://www.w3.org/2000/svg" viewBox="0 0 227.32 255.42"><defs><style>.cls-1{fill:#fff;}</style></defs><g id="Layer_1-2"><path class="cls-1" d="M60.37,137.24V3l-3,3h112.57l-3-3v134.24c0,3.86,6,3.87,6,0V3c0-1.62-1.37-3-3-3H57.37c-1.62,0-3,1.37-3,3v134.24c0,3.86,6,3.87,6,0h0Z"/><path class="cls-1" d="M42.53,28.7C28.87,37.14,15.22,45.58,1.56,54.02c-1.35.84-1.95,2.7-1.08,4.1,13.47,21.79,26.94,43.58,40.41,65.37,2.03,3.28,7.22.27,5.18-3.03-13.47-21.79-26.94-43.58-40.41-65.37l-1.08,4.1c13.65-8.44,27.31-16.88,40.96-25.32,3.28-2.03.27-7.22-3.03-5.18h0Z"/><path class="cls-1" d="M181.76,33.88c13.65,8.44,27.31,16.88,40.96,25.32l-1.08-4.1c-13.47,21.79-26.94,43.58-40.41,65.37-2.04,3.29,3.15,6.31,5.18,3.03,13.47-21.79,26.94-43.58,40.41-65.37.87-1.4.28-3.27-1.08-4.1-13.65-8.44-27.31-16.88-40.96-25.32-3.29-2.04-6.31,3.15-3.03,5.18h0Z"/><path class="cls-1" d="M160.79,149.22V41.19c0-1.77-1.39-2.8-3-3-10.47-1.32-18.64-9.66-20.03-20.02-.17-1.28-1.71-2.2-2.89-2.2h-42.43c-1.17,0-2.72.92-2.89,2.2-1.39,10.36-9.57,18.7-20.03,20.02-1.61.2-3,1.21-3,3,0,31.51,0,63.03,0,94.54v13.48c0,3.86,6,3.87,6,0,0-31.51,0-63.03,0-94.54v-13.48l-3,3c12.93-1.63,24.03-11.18,25.82-24.43l-2.89,2.2h42.43l-2.89-2.2c1.78,13.25,12.88,22.79,25.82,24.43l-3-3v108.02c0,3.86,6,3.87,6,0h0Z"/><path class="cls-1" d="M113.66,125.15c-11.68-.25-25.88-7.13-25.96-20.54s14.39-20.56,25.96-20.54,25.96,7.3,25.96,20.54-14.34,20.29-25.96,20.54c-3.86.08-3.87,6.08,0,6,12.2-.26,25.23-5.92,30.16-17.81,4.45-10.71-.13-22.16-9.22-28.76-10.63-7.72-25.59-8.45-37.28-2.78-10.22,4.96-17.49,15.7-15.16,27.3,2.89,14.41,18,21.75,31.5,22.04,3.86.08,3.86-5.92,0-6Z"/><path class="cls-1" d="M113.66,39.69c-7.06.38-13.03,5.66-13.03,13.03s5.95,13.03,13.03,13.03,12.72-5.62,13-12.48c.31-7.58-5.71-13.18-13-13.58-3.86-.21-3.85,5.79,0,6,9.01.49,9.08,14.06,0,14.06s-9.01-13.57,0-14.06c3.84-.21,3.86-6.21,0-6Z"/><path class="cls-1" d="M21.69,106.63c-5.75,0-11.18.05-15.8,4.06-3.86,3.36-5.65,7.93-5.81,12.97-.18,5.57,0,11.17,0,16.74v93.07c0,7.1.47,13.95,6.89,18.61,4.53,3.28,9.45,3.2,14.66,3.2h151.43c12.3,0,24.65.34,36.95,0,9.66-.26,16.89-7.11,17.23-16.87.19-5.38,0-10.79,0-16.17,0-22.46,0-44.92,0-67.39v-25.96c0-7-.21-13.71-6.28-18.59-4.57-3.67-9.79-3.67-15.33-3.67-3.86,0-3.87,6,0,6,6.24,0,13.09.41,15.17,7.64.52,1.8.44,3.64.44,5.49v20.05c0,21.45,0,42.9,0,64.35v23.3c0,7.42-1.22,15.29-10.69,15.81s-18.39,0-27.51,0H18.9c-6.76,0-12.56-3.43-12.82-10.97-.17-4.87,0-9.78,0-14.65,0-20.94,0-41.87,0-62.81v-27.16c0-4.13-.78-9.37.44-13.42,2.17-7.2,8.89-7.64,15.17-7.64,3.86,0,3.87-6,0-6h0Z"/><path class="cls-1" d="M9.29,250.46c25.4-24.4,50.8-48.81,76.19-73.21,6.37-6.12,12.55-13.76,21.37-16.16s18.16.27,24.92,6.51c3.12,2.88,6.13,5.89,9.2,8.83,11.76,11.3,23.53,22.61,35.29,33.91,13.92,13.37,27.83,26.74,41.75,40.12,2.78,2.68,7.03-1.56,4.24-4.24-25.61-24.61-51.22-49.21-76.83-73.82-7.76-7.46-14.96-15.73-26.12-17.7-8.21-1.45-16.88.34-23.74,5.13-4.59,3.2-8.47,7.56-12.49,11.42-11.5,11.05-23,22.1-34.5,33.14-14.51,13.94-29.02,27.89-43.54,41.83-2.79,2.68,1.46,6.92,4.24,4.24h0Z"/><path class="cls-1" d="M217.65,111.07c-22.31,17.78-44.62,35.57-66.93,53.35-3.25,2.59-6.49,5.17-9.74,7.76-3.02,2.41,1.25,6.63,4.24,4.24,22.31-17.78,44.62-35.57,66.93-53.35,3.25-2.59,6.49-5.17,9.74-7.76,3.02-2.41-1.25-6.63-4.24-4.24h0Z"/><path class="cls-1" d="M86.34,172.19c-22.31-17.78-44.62-35.57-66.93-53.35-3.25-2.59-6.49-5.17-9.74-7.76-2.99-2.38-7.26,1.84-4.24,4.24,22.31,17.78,44.62,35.57,66.93,53.35,3.25,2.59,6.49,5.17,9.74,7.76,2.99,2.38,7.26-1.84,4.24-4.24h0Z"/></g></svg>