<?xml version="1.0" encoding="UTF-8"?><svg id="Layer_2" xmlns="http://www.w3.org/2000/svg" viewBox="0 0 231.54 211.54"><defs><style>.cls-1{stroke:#003153;}.cls-1,.cls-2{fill:none;stroke-linecap:round;stroke-linejoin:round;stroke-width:6px;}.cls-2{stroke:#457ff2;}</style></defs><g id="Layer_1-2"><path class="cls-1" d="M177.92,103.72s50.37-24.73,50.61-58.08c.12-15.81-12.97-28.79-28.05-29.25-8.92-.27-16.98,3.22-22.56,9.17-5.58-5.95-13.64-9.44-22.56-9.17-15.09.46-28.17,13.43-28.05,29.25.24,33.35,50.61,58.08,50.61,58.08Z"/><polyline class="cls-2" points="154.05 59.14 165.2 59.14 172.51 41.66 180.5 78.24 187.59 59.14 198.65 59.14"/><polyline class="cls-1" points="15.84 106.76 15.84 87.77 32.68 84 42.23 60.95 32.97 46.4 58.77 20.6 73.34 29.85 96.39 20.3 100.14 3.46 136.61 3.46 137.87 9.1"/><polyline class="cls-1" points="218.18 89.01 220.92 89.62 220.92 124.24 204.08 128 194.53 151.05 203.79 165.61 177.99 191.4 163.42 182.16 140.37 191.71 136.62 208.54 100.15 208.54 96.38 191.71 91.72 189.77"/><path class="cls-1" d="M148.32,155.26c-.17.1-.34.2-.51.3"/><path class="cls-1" d="M175.96,102.7c.34,5.84-.22,11.82-1.76,17.79-2.47,9.5-7.17,17.83-13.38,24.57"/><path class="cls-1" d="M62.54,120.37c-2.38-9.18-2.52-19.06.04-28.88,6.42-24.72,27.93-41.5,52.09-43.05,0,0,8.53-.64,12.81.27"/><path class="cls-1" d="M85.74,153.55c5.37,3.69,11.47,6.53,18.15,8.26,9.46,2.46,18.99,2.42,27.89.28"/><path class="cls-1" d="M18.17,29.22c7.58-9.95,16.67-18.82,27.05-26.22"/><path class="cls-1" d="M5.09,50.43c.1-.2.2-.41.3-.61"/><path class="cls-1" d="M44.49,207.05c39.61-20.92,41.49-23.77,41.49-72.17,0-4.59-.22-9.08-.64-13.45-26,6.07-40.85-13.63-40.85-13.63,0,0-14.86,19.7-40.85,13.63-.42,4.37-.64,8.86-.64,13.45,0,48.4,1.88,51.25,41.49,72.17Z"/><polyline class="cls-2" points="32.81 161.7 42.52 171.41 64.44 149.49"/></g></svg>