<?xml version="1.0" encoding="UTF-8"?><svg id="Layer_2" xmlns="http://www.w3.org/2000/svg" viewBox="0 0 188.93 251.28"><defs><style>.cls-1{fill:#003153;}.cls-2{fill:#457ff2;}</style></defs><g id="Layer_1-2"><path class="cls-2" d="M107.21,26.5c-5.42-4.46-13.14-7.39-18.34-.92-3.27,4.06-2.76,9.86,1.24,13.21,3.7,3.1,11.71,3.35,13.65,8.18.85,2.12.24,3.93-1.33,5.54-3.48,3.56-8.8,1.78-12.65-.09-3.46-1.68-6.5,3.49-3.03,5.18,6.14,2.98,13.79,4.78,19.38-.33,3.66-3.35,5.08-8.37,2.96-13.01-2.43-5.29-8.01-6.43-12.79-8.7-2.05-.97-4.29-2.34-3.48-4.99,1.57-5.13,7.61-1.91,10.15.19,2.96,2.43,7.23-1.79,4.24-4.24h0Z"/><path class="cls-2" d="M94.68,19.64v5.03c0,1.57,1.38,3.07,3,3s3-1.32,3-3v-5.03c0-1.57-1.38-3.07-3-3s-3,1.32-3,3h0Z"/><path class="cls-2" d="M94.68,57.86v5.03c0,1.57,1.38,3.07,3,3s3-1.32,3-3v-5.03c0-1.57-1.38-3.07-3-3s-3,1.32-3,3h0Z"/><path class="cls-1" d="M113.57,162.98c7.62,7.62,15.24,15.24,22.87,22.87,5.54,5.54,11.08,11.08,16.62,16.62l6.11,6.11c.87.87,2.84,2.18,3.33,3.33.8,1.87-1.41,3.15-2.73,4.47-2.35,2.35-4.77,5.71-7.54,7.54s-5.68-3.03-7.69-5.04c-10.73-10.73-21.46-21.46-32.2-32.2l-7.19-7.19c-.94-.94-3.3-2.51-3.78-3.78-.8-2.07,2.67-4.29,4.07-5.7,1.48-1.48,6.37-8.29,8.74-6.57,3.13,2.26,6.13-2.94,3.03-5.18-7.14-5.15-14.54,6.04-18.93,10.43-4.6,4.6-3.51,8.91.66,13.07,11.88,11.88,23.76,23.76,35.64,35.64,3.77,3.77,7.39,7.91,11.42,11.42,6.71,5.85,12.68-2.87,17.07-7.26,2.29-2.29,5.66-4.73,5.94-8.22.23-2.73-1.24-4.58-2.96-6.39-4.55-4.77-9.33-9.33-13.99-13.99-11.41-11.41-22.83-22.83-34.24-34.24-2.73-2.73-6.98,1.51-4.24,4.24Z"/><path class="cls-1" d="M139.54,201.42c2.79-2.79,5.57-5.57,8.36-8.36s-1.51-6.98-4.24-4.24-5.57,5.57-8.36,8.36,1.51,6.98,4.24,4.24h0Z"/><path class="cls-1" d="M128.62,190.5c2.79-2.79,5.57-5.57,8.36-8.36s-1.51-6.98-4.24-4.24-5.57,5.57-8.36,8.36,1.51,6.98,4.24,4.24h0Z"/><path class="cls-1" d="M117.7,179.58c2.79-2.79,5.57-5.57,8.36-8.36s-1.51-6.98-4.24-4.24-5.57,5.57-8.36,8.36,1.51,6.98,4.24,4.24h0Z"/><path class="cls-1" d="M97.12,204.85H32.63c-1.22,0-3.55.46-4.7,0-1.89-.76-1.23-3.23-1.23-5.09,0-3.32-.67-7.41,0-10.67s6.16-1.88,9-1.88h55.7c1.33,0,4.11-.55,5.35,0,2.03.9,1.15,4.92,1.15,6.91,0,2.13,1.37,10.36-1.57,10.84-3.8.61-2.19,6.4,1.6,5.79,8.65-1.4,5.97-14.58,5.97-20.75,0-6.52-3.81-8.78-9.71-8.78h-50.4c-5.34,0-10.82-.37-16.15,0-8.88.61-6.94,10.99-6.94,17.2s.32,12.24,8.22,12.44c6.58.17,13.19,0,19.78,0h48.42c3.86,0,3.87-6,0-6Z"/><path class="cls-1" d="M51.58,196.03v11.82c0,3.86,6,3.87,6,0v-11.82c0-3.86-6-3.87-6,0h0Z"/><path class="cls-1" d="M67.02,196.03v11.82c0,3.86,6,3.87,6,0v-11.82c0-3.86-6-3.87-6,0h0Z"/><path class="cls-1" d="M82.45,196.03v11.82c0,3.86,6,3.87,6,0v-11.82c0-3.86-6-3.87-6,0h0Z"/><path class="cls-1" d="M113.06,228.49H48.57c-1.22,0-3.55.46-4.7,0-1.89-.76-1.23-3.23-1.23-5.09,0-3.32-.67-7.41,0-10.67s6.16-1.88,9-1.88h55.7c1.33,0,4.11-.55,5.35,0,2.03.9,1.15,4.92,1.15,6.91,0,2.13,1.37,10.36-1.57,10.84-3.8.61-2.19,6.4,1.6,5.79,8.65-1.39,5.97-14.58,5.97-20.75,0-6.52-3.81-8.78-9.71-8.78h-50.4c-5.34,0-10.82-.37-16.15,0-8.88.61-6.94,10.99-6.94,17.2s.32,12.24,8.22,12.44c6.58.17,13.19,0,19.78,0h48.42c3.86,0,3.87-6,0-6Z"/><path class="cls-1" d="M67.52,219.67v11.82c0,3.86,6,3.87,6,0v-11.82c0-3.86-6-3.87-6,0h0Z"/><path class="cls-1" d="M82.96,219.67v11.82c0,3.86,6,3.87,6,0v-11.82c0-3.86-6-3.87-6,0h0Z"/><path class="cls-1" d="M98.39,219.67v11.82c0,3.86,6,3.87,6,0v-11.82c0-3.86-6-3.87-6,0h0Z"/><path class="cls-1" d="M22.18,82.11c-4.24,6.34-8.53,12.65-12.73,19.01C2.98,110.95-.13,122.17,0,133.91c.19,16.38.52,32.77.79,49.15.23,14.7.13,29.44.71,44.13.47,12.03,9.12,22.38,21.35,23.75,3.56.4,7.24.17,10.82.17h111.99c12.91,0,27.79,2.21,36.77-9.37,4.55-5.87,5.01-12.5,5.12-19.52.13-7.88.25-15.76.38-23.64.31-19.33.62-38.67.93-58,.1-6.51.3-12.89-.96-19.33-2.3-11.74-8.98-21.02-15.48-30.71-1.88-2.8-3.75-5.61-5.63-8.41-2.14-3.19-7.34-.19-5.18,3.03,4.15,6.2,8.33,12.38,12.45,18.6,6.12,9.24,9.04,19.35,8.9,30.41-.19,15.47-.49,30.94-.74,46.41s-.37,30.52-.73,45.77c-.25,10.41-7.57,18.44-18.18,18.78-3.28.1-6.57,0-9.85,0-36,0-72.01,0-108.01,0-11.53,0-28.21,2.91-35.27-8.62-3.1-5.06-2.7-10.71-2.79-16.37-.13-8.12-.26-16.24-.39-24.36-.29-18.4-.59-36.79-.88-55.19-.1-6.23-.39-12.4.91-18.55,2.32-11.03,8.87-19.73,14.99-28.87,1.79-2.67,3.57-5.34,5.36-8.01,2.15-3.22-3.04-6.22-5.18-3.03h0Z"/><path class="cls-1" d="M147.29,52.07h16.91l-3-3v34.55l3-3h-33.52c-3.86,0-3.87,6,0,6h33.52c1.62,0,3-1.37,3-3v-34.55c0-1.62-1.37-3-3-3h-16.91c-3.86,0-3.87,6,0,6h0Z"/><path class="cls-1" d="M47.07,46.07h-22.3c-1.62,0-3,1.37-3,3v34.55c0,1.62,1.37,3,3,3h37.52c3.86,0,3.87-6,0-6H24.78l3,3v-34.55l-3,3h22.3c3.86,0,3.87-6,0-6h0Z"/><path class="cls-1" d="M13.91,69.35h21.73c3.86,0,3.87-6,0-6H13.91c-3.86,0-3.87,6,0,6h0Z"/><path class="cls-1" d="M153.33,69.35h21.73c3.86,0,3.87-6,0-6h-21.73c-3.86,0-3.87,6,0,6h0Z"/><path class="cls-2" d="M132.98,41.26c-.27,14.74-9.29,28.23-23.36,33.23s-29.67.64-39.1-10.68-10.72-27.72-3.31-40.37S89.87,3.73,104.43,6.61c16.6,3.28,28.24,17.9,28.54,34.65.07,3.86,6.07,3.87,6,0-.31-17.26-10.82-32.75-27.13-38.79s-35.49-.64-46.4,13.01-11.97,32.03-3.42,46.62,26.31,22.82,43.34,19.73c19.52-3.55,33.26-21.05,33.61-40.57.07-3.86-5.93-3.86-6,0Z"/></g></svg>