<?xml version="1.0" encoding="UTF-8"?><svg id="Layer_2" xmlns="http://www.w3.org/2000/svg" viewBox="0 0 156 138"><defs><style>.cls-1{fill:none;}.cls-2{fill:#457ff2;}</style></defs><g id="Layer_1-2"><path class="cls-2" d="M139.54,71.39c.36,32.78-25.85,60.51-60.41,60.7-34.43.19-60.5-29.11-60.43-60.77.07-32.46,27.71-60.79,61.14-60.37,32.98.4,60.4,28.32,59.7,60.44ZM111.84,53.51c-.02-3.11-2.25-5.66-5.35-6.14-2.87-.44-5.03.75-7.02,2.75-9.41,9.49-18.89,18.93-28.35,28.38-2.85,2.84-3.1,2.77-6.08-.04-2.94-2.78-5.38-6.12-8.86-8.29-2.86-1.78-6.23-1.08-8.26,1.46-2.07,2.58-1.92,6.33.44,8.68,4.88,4.88,9.77,9.75,14.71,14.56,3.41,3.32,6.7,3.38,10.07.03,12.19-12.12,24.32-24.3,36.47-36.46,1.37-1.37,2.27-2.94,2.23-4.95Z"/><rect class="cls-1" width="156" height="138"/></g></svg>