<?xml version="1.0" encoding="UTF-8"?><svg id="Layer_1" xmlns="http://www.w3.org/2000/svg" viewBox="0 0 500 500"><defs><style>.cls-1{fill:#fff;}.cls-2{fill:#003153;}.cls-3{fill:#103012;}.cls-4{fill:#457ff2;}</style></defs><g><path class="cls-2" d="M349.11,264.49c-.77-5.56-2.39-11.49-5.1-16.44-1.37-2.52-3.22-4.71-5.5-6.45-1.94-1.48-4.51-3-7.05-2.78-.36-.13-.78-.11-1.06,.21-1.97,2.29-4.07,4.29-7.12,4.92-2.87,.59-5.93-.06-8.5-1.4-.48-.25-.91-.1-1.18,.2-.09-.06-.19-.13-.28-.2-.05-.04-.09-.09-.14-.14,.02-.09,.04-.18,.05-.27,.08-.35,.06-.69-.05-1.04-.02-.07-.06-.14-.08-.21,.51-.05,1.03-.08,1.56-.09,1.55-.03,1.49-2.21,0-2.36-7.21-.73-13.86,3.24-19.77,6.85-6.14,3.75-12.63,8.1-20.11,8.06-2.87-.02-5.65-.54-8.43-1.22-2.77-.67-5.57-1.89-8.4-2.17-.52-.05-.86,.19-1.04,.54-.19,.14-.4,.26-.58,.41-.36,.28-.63,.7-.9,1.06-.51,.68-.96,1.41-1.38,2.15-.82,1.47-1.53,3.01-2.1,4.6-.23,.64,.26,1.46,.91,1.6,3.64,2.69,6.97,5.7,10.75,8.12,3.95,2.52,8.58,4.31,13.22,4.93,6.52,.88,12.8-.96,17.54-5.14-.15,1.6-.19,3.21-.1,4.82,.23,3.81,.8,7.62,1.6,11.35,.4,1.85,.84,3.69,1.43,5.48,.46,1.4,1.22,4.89,3.15,4.99,.79,.04,1.11-.67,1.73-1.02,1.13-.65,2.75-.8,4.01-1.11,.16-.04,.34-.11,.37-.27,.02-.13-.07-.24-.15-.34-1.12-1.35-1.82-3.04-1.97-4.79,3.3,.03,6.49,1.15,9.6,2.25,.72,.25,1.46,.52,2,1.05,.43,.42,.7,.98,.98,1.52,.88,1.72,1.9,3.38,3.05,4.93,1.26,1.72,2.59,1.5,4.54,1.49,2.21-.01,4.42,.06,6.63-.05,2.46-.12,5.03-.1,7.22-1.39,1.98-1.17,3.29-3.2,3.99-5.35,.36-1.11,.53-2.28,.66-3.43,.1-.84,.21-1.73,.09-2.57,1.4-1.59,2.65-3.32,3.63-5.22,2.58-4.99,3.03-10.59,2.26-16.09Z"/><path class="cls-3" d="M309.53,196.04c-6.05,6.46-7.92,15.33-7.89,23.95,.01,4.26,1.28,8.64,5.72,10.13,2.15,.72,4.47,.53,6.63,0,2.44-.61,5.21-1.53,7.32-2.91,.94-.61,.68-2.43-.62-2.3-3.94,.37-7.92,3.26-11.95,2.07-3.77-1.11-3.72-5.57-3.65-8.78,.16-7.2,1.35-14.8,6.04-20.55,.9-1.1-.58-2.67-1.59-1.59h0Z"/><path class="cls-3" d="M351.62,231.02c-.33-1.15-1.08-2.11-1.42-3.28-.33-1.11-.49-2.25-.57-3.4-.18-2.62,.43-5.28,.11-7.88-.58-4.8-4.88-7.68-7.03-11.72-2.24-4.2-2.88-9.29-6.46-12.72-3.53-3.38-8.58-4.14-13.25-3.48-.12,.02-.2,.07-.29,.11-7.01-.94-14.33-.07-20.13,4.28-1.99,1.49-3.72,3.25-5.24,5.23-2.66,3.49-3.39,7.84-5.25,11.73-1.18,2.48-2.61,4.86-4.33,7-1.5,1.86-3.32,3.58-3.25,6.15,.02,.89,.69,1.47,1.54,1.54,3.81,.33,6.84,2.11,10.38,3.3,1.34,.45,2.71,.42,4.08,.12,1.18-.26,4.4-.54,4.84-1.44,.47-.96-1.07-5.04-1.21-6.23-.58-4.67-.41-9.42,.51-14.03,.59-2.93,1.56-5.94,3.72-8-.15,3.19,1.24,6.14,2.96,8.76,2.44,3.7,6.09,6.55,8.18,10.49,2.29,4.32-.52,8.58-.6,13.04-.06,3.39,2.02,8.93,6.29,7,3.76-1.7,8.55-1.61,12.59-1.6,2.6,.01,5.35,.44,7.89-.31,1.74-.52,4.15-1.58,5.27-3.22,.5-.26,.85-.82,.67-1.44Z"/><path class="cls-3" d="M312.06,229.15c.82,2.2,1.09,4.65,1.17,6.98,.04,1.25,.03,2.52-.03,3.77-.05,1.17-.26,2.33-.11,3.5,.07,.53,.32,1,.88,1.15,.49,.13,1.11-.08,1.35-.55,.62-1.22,.71-2.53,.77-3.89,.06-1.37,0-2.73-.15-4.09-.3-2.65-.86-5.24-2.18-7.59-.5-.9-2.08-.29-1.71,.72h0Z"/><path class="cls-3" d="M328.43,236.85c.26,.66,.5,1.32,.79,1.96,.13,.29,.25,.57,.38,.86,.06,.13,.14,.26,.22,.38,.14,.22,.29,.38,.49,.54,.16,.13,.32,.25,.51,.3,.25,.07,.52,.04,.76-.06,.42-.18,.72-.6,.72-1.07,0-.23,0-.48-.07-.7-.06-.18-.14-.36-.21-.54-.14-.34-.32-.67-.48-1-.27-.55-.58-1.08-.89-1.61-.31-.52-.96-.73-1.51-.49-.23,.1-.46,.27-.58,.49-.14,.27-.24,.64-.12,.93h0Z"/><path class="cls-3" d="M342.88,285.44c.27-.45,.52-.92,.62-1.44,.03-.17,.04-.35-.02-.51-.06-.16-.21-.3-.38-.3-.15,0-.28,.09-.39,.18-1.23,.93-2.47,1.86-3.73,2.73-1.22,.83-2.28,1.92-3.5,2.77-4.6,3.22-9.69,5.43-14.63,8.05-1.2,.64-.38,2.63,.93,2.21,5.23-1.69,10.17-4.29,14.7-7.41,2.5-1.72,4.84-3.65,6.42-6.28Z"/><path class="cls-3" d="M329.18,258.49c.43,5.26,2.04,11.26,.36,16.43-.45,1.39-1.37,2.4-2.3,3.5-1.13,1.33-2.29,2.64-3.5,3.9-1.29,1.34-2.62,2.63-4.04,3.84-1.24,1.05-3.3,2.09-3.98,3.59-.34,.75,.05,1.69,.97,1.69,1.73,0,3.29-1.53,4.55-2.58,1.56-1.31,3.01-2.76,4.4-4.25,1.38-1.48,2.69-3.02,3.96-4.59,.94-1.16,1.83-2.26,2.37-3.67,2.13-5.62,.18-12.14-.5-17.85-.17-1.42-2.4-1.48-2.28,0h0Z"/><path class="cls-3" d="M315.53,290.31c.02,1.85,.36,3.71,1.32,5.32,.44,.73,.99,1.47,1.62,2.05,.38,.35,.81,.72,1.27,.96,.61,.32,1.33,.75,2.03,.51,.52-.17,.91-.63,.91-1.19,0-.74-.52-1.19-.96-1.71-.27-.31-.57-.59-.87-.88-.26-.26-.52-.5-.77-.77-.06-.07-.12-.14-.18-.21-.04-.05-.24-.31-.07-.08,.17,.23-.03-.04-.06-.09-.05-.07-.1-.14-.15-.22-.19-.28-.35-.58-.52-.88-.05-.09-.46-.99-.49-.99,.08,.19,.1,.23,.05,.13-.02-.05-.04-.09-.06-.14-.04-.09-.07-.19-.11-.28-.07-.19-.13-.39-.21-.59-.05-.11-.09-.22-.14-.33,.07,.16,.07,.17,.01,.03-.03-.09-.07-.17-.1-.26-.09-.23-.18-.47-.26-.7-.2-.54-.67-.91-1.27-.83-.56,.07-1.01,.55-1,1.13h0Z"/><path class="cls-3" d="M316.93,289.41c-.82-.23-1.54-.65-2.33-.96-.96-.38-1.9-.81-2.85-1.22-1.8-.78-3.69-1.6-5.68-1.73-2.01-.13-4.52,1.17-3.38,3.54,.47,.97,1.45,1.73,2.23,2.46,.77,.72,1.6,1.47,2.57,1.91,.1-.78,.2-1.56,.31-2.33-2.08,.76-4.27,1.17-6.33,1.97-1.34,.51-2.7,1.37-2.62,2.98,.1,2.07,1.97,2.46,3.68,2.37,1.88-.11,3.89-.31,5.66-.98,1.5-.57,.91-2.95-.68-2.45-1.96,.61-11.92,5.04-8.68,8.14,1.48,1.41,4.24,.29,5.86-.26,1.99-.68,3.96-1.46,5.83-2.42,1.09-.56,.32-2.49-.85-2.02-1.83,.73-3.48,2.01-4.98,3.26-1.26,1.05-3.3,2.6-3.03,4.47,.45,3.05,3.74,1,5.17,.19,1.87-1.05,3.73-2.2,5.45-3.48-.44-.57-.88-1.14-1.32-1.71-1.35,1.15-5.57,4.21-3.63,6.38,1.19,1.33,3.14,.76,4.53,.14,2.14-.96,4.07-2.47,5.83-4,1.71-1.49,3.49-3.18,4.53-5.23,.46-.9-.72-1.96-1.47-1.13-2.46,2.72-5.04,5.4-8.15,7.38-.9,.58-2.39,1.53-3.4,1.44-.16-.02-.29-.1-.24-.08,.29,.1-.1,.28,.1,.19,.07-.03,.37-.58,.41-.65,.84-1.1,1.96-2.01,3-2.91,.92-.8-.33-2.46-1.32-1.71-1.27,.96-2.53,1.92-3.85,2.81-.73,.49-1.46,1.02-2.27,1.36-.32,.13-.63,.29-.96,.41-.11,.04-.23,.08-.34,.11-.14,.05-.11,.25-.07,.06,.26-1.07,2.02-2.24,2.87-2.91,1.02-.81,2.38-2.02,3.69-2.29-.2-.71-.39-1.42-.59-2.13-1.43,.42-2.81,1.02-4.2,1.56-.85,.33-1.7,.64-2.57,.91-.66,.21-1.42,.26-2.05,.48-.07,.03-.24-.04-.3,0,.03,.13,.07,.27,.1,.4,.04-.07,.08-.15,.13-.21,.23-.16,.43-.47,.64-.66,.65-.58,1.39-1.06,2.14-1.49,1.44-.82,3-1.57,4.61-2-.23-.82-.45-1.63-.68-2.45-1.19,.4-2.47,.6-3.72,.73-.58,.06-1.17,.12-1.75,.13-.13,0-.27,0-.4,0-.31-.09-.36-.02-.16,.22,0-.1-.06-.16-.05-.16,.69-.2,1.6-.67,2.39-.9,1.57-.45,3.14-.88,4.67-1.45,.91-.34,1.4-1.84,.31-2.33-.74-.34-1.31-.89-1.88-1.46-.29-.29-.57-.58-.85-.88-.17-.17-.52-.71-.75-.78-.09-.18-.17-.16-.23,.05-.16,.16-.17,.21-.03,.14,.05,.03,.24-.09,.29-.09,.28,0,.56-.03,.85,0,.67,.07,1.34,.27,1.98,.48,2.78,.89,5.52,2.63,8.51,2.57,1.04-.02,1.28-1.55,.25-1.83h0Z"/><path class="cls-3" d="M316.81,323.57c2.46,12.05,5.83,23.92,9.73,35.59,4.17,12.48,8.96,24.78,14.75,36.6,2.89,5.9,5.98,11.65,10.07,16.82,1.03,1.3,2.94-.36,2.22-1.71-5.66-10.61-11.38-21.09-16.11-32.16-5.14-12.01-9.53-24.36-13.25-36.88-1.86-6.25-3.53-12.56-4.94-18.93-.35-1.61-2.79-.92-2.46,.68h0Z"/><path class="cls-3" d="M338.3,294.73c6.83,14.6,8.67,31.07,7.83,47.01-.41,7.74-.94,15.69,1.18,23.25,1.04,3.74,3.06,6.98,4.53,10.54,1.39,3.38,2.42,6.9,3.3,10.44,1.03,4.16,1.81,8.38,2.63,12.58,.79,4.03,1.26,8.39,2.9,12.17,.43,.99,2.03,.47,2-.54-.14-3.63-1.08-7.3-1.67-10.88-.64-3.87-1.31-7.74-2.14-11.58-.79-3.69-1.72-7.36-2.98-10.93-1.23-3.51-3.14-6.69-4.45-10.15-2.82-7.48-2.44-15.68-2.1-23.53,.34-7.94,.25-15.72-.95-23.6-1.36-8.98-3.97-17.84-8.04-25.97-.68-1.35-2.64-.17-2.01,1.18h0Z"/><path class="cls-3" d="M352.68,412.75c.34-.07,.68-.13,1.03-.18,.08-.01,.16-.02,.25-.04,.4-.06-.12,.02,.11-.02,.2-.03,.4-.05,.59-.07,.84-.1,1.68-.18,2.52-.26,.89-.09,1.77-.21,2.65-.33,.38-.05,.77-.1,1.14-.18,.4-.09,.81-.31,1.18-.5,1.06-.52,.51-2.14-.58-2.15-.43,0-.83-.03-1.26,.04-.38,.06-.76,.13-1.14,.18-.09,.01-.18,.03-.27,.04-.24,.03,.03,0-.12,.02-.21,.03-.42,.05-.63,.08-.5,.06-.99,.13-1.49,.2-1.56,.22-3.13,.42-4.65,.81-.64,.16-1.03,.88-.85,1.5,.18,.67,.85,.99,1.5,.85h0Z"/><path class="cls-3" d="M360.5,410.34s-.07,.07-.1,.08c-1.3,.77-3.89,.78-5.36,.79-.83,0-2.26-.57-3.01-.34-1.77,.54-3.24,4.22-4.96,5.41-1.84,1.28-4.08,1.74-5.95,2.95-1.24,.8-2.7,2.1-2.6,3.72,.09,1.38,1.32,2.18,2.49,2.63,2.69,1.03,6.18,1.23,8.97,.6,2.25-.5,4.33-1.54,6.46-2.41,.99-.41,2-.8,3.05-1.06,1.16-.29,2.32-.27,3.49-.45,6.29-.97,.85-9.67-.55-12.6-.71-1.48-1.5,.21-1.93,.66Z"/><path class="cls-3" d="M299.49,293.32c-3.89,13.59-4.28,27.82-3.53,41.85,.87,16.28,3.2,32.48,5.1,48.66,1.14,9.76,2.01,19.57,3.47,29.28,.18,1.19,1.98,.84,2.02-.27,.29-8.68-.57-17.36-1.47-25.98-.87-8.31-1.94-16.6-2.95-24.89-1.84-15.08-3.58-30.3-3.23-45.52,.17-7.59,.91-15.16,2.76-22.53,.35-1.41-1.77-1.99-2.17-.6h0Z"/><path class="cls-3" d="M320.42,337.2c-2.46,9.74-4.35,20.07-2.01,30.02,.64,2.72,1.54,5.37,2.01,8.12,.69,4.03,.22,8.16-.46,12.18-.71,4.2-1.62,8.36-2.71,12.47-1.13,4.23-2.54,8.38-3.42,12.67-.23,1.1,1.32,1.9,1.91,.8,3.57-6.7,5.42-14.55,6.93-21.96,.98-4.79,1.83-9.82,1.31-14.73-.65-6.17-3.23-11.88-3.54-18.12-.35-6.98,.74-14.06,2.01-20.9,.25-1.32-1.7-1.9-2.04-.56h0Z"/><path class="cls-3" d="M305.52,413.84c1.58,.16,3.14,.27,4.73,.34,.84,.04,1.67,.07,2.51,.09,.8,.01,1.64,.08,2.39-.21,1.1-.43,1.1-1.82,0-2.25-.73-.29-1.55-.24-2.33-.24-.86,0-1.72,0-2.57,.02-1.59,.02-3.15,.09-4.73,.24-1.29,.13-1.29,1.88,0,2h0Z"/><path class="cls-3" d="M304.72,412.66c-.05,.02-.1,.03-.15,.06-1.27,.52-2.35,2.15-3.59,2.89-1.54,.92-3.23,1.55-4.88,2.21-1.7,.68-3.41,1.34-5.06,2.12-1.57,.75-3.53,1.88-3.14,3.93,.36,1.92,2.52,2.56,4.22,2.63,2.57,.1,5.19-.04,7.77-.13,5.3-.18,10.64-.58,15.83-1.68,1.11-.24,2.37-.47,3.14-1.39,.81-.96,.66-2.16,.34-3.28-.38-1.32-1-2.59-1.64-3.8-1.04-1.97-1.46-4.51-4.09-4.31-1.7,.13-3.35,.65-5.04,.8-1.11,.1-2.63-.38-3.71-.04Z"/><path class="cls-3" d="M295.82,266.3c.89-1.24,1.28-2.74,1.85-4.13,1.3-3.18,2.55-6.37,3.76-9.58,.47-1.25,.95-2.5,1.39-3.76,.32-.95-1.13-1.54-1.61-.68-1.59,2.89-3.04,5.87-4.24,8.95-.62,1.58-1.13,3.19-1.65,4.81-.45,1.41-1.17,2.94-1.06,4.45,.01,.15,.03,.3,.11,.43,.17,.25,.54,.29,.82,.15,.27-.13,.46-.38,.64-.63Z"/><path class="cls-3" d="M258.59,250.85c-1.99-3.58-3.17-8.24-6.96-10.4-2.21-1.26-5.42-2.45-7.51-.36-.85,.84-1.28,2.12-.88,3.27,.41,1.19,1.44,1.85,2.62,2.14,.42,.1,.9,.17,1.27,.34,.09,.04,.18,.1,.27,.15,.22,.13-.03-.02,.07,.05,.13,.1-.13-.04-.01-.03,.04,0,.15,.23,0,0,.02,.03,.05,.16,.05,.21,.01-.38-.01,.03-.01,.09,0,.18,0,.36,0,.54-.01,.74-.04,1.49,.56,2.04,.49,.45,1.24,.48,1.73,0,.66-.64,.65-1.76,.59-2.64-.06-.8-.27-1.57-.86-2.14-.66-.63-1.55-.94-2.43-1.13-.28-.06-.77-.15-.94-.22-.16-.06-.34-.17-.34-.25,0-.7,.99-.9,1.55-.84,1.06,.12,2.18,.65,3.15,1.07,1.68,.73,2.69,2.24,3.58,3.77,1.05,1.81,1.93,3.7,3.35,5.26,.58,.63,1.57-.18,1.16-.9h0Z"/><path class="cls-3" d="M247.66,243.74c-1.32-.77-3.01-.88-4.42-.28-1.21,.51-2.15,1.47-2.88,2.54-.81,1.2-1.34,2.63-1.65,4.04-.5,2.23,.18,5.76,2.68,6.55,1.09,.34,2.25,.01,3.22-.52,1.96-1.07,3.63-3.03,4.67-4.97,1.32-2.46,.99-5.85-1.61-7.35Zm-.48,5.49c-.54,1.71-2.1,3.44-3.18,4.19-3.01,2.07-3.01-2.1-2.5-3.99,.53-1.92,3.35-5.34,5.33-2.93,.63,.77,.66,1.74,.35,2.72Z"/><path class="cls-3" d="M243.51,255.02c.86,1.82,2.49,3.26,4.2,4.28,.9,.54,1.91,1.05,2.93,1.29,.52,.12,1.07,.17,1.61,.17,.43,0,.89-.02,1.27-.24,.23-.13,.44-.31,.64-.48,.72-.59,.39-1.7-.27-2.13-.19-.13-.35-.25-.57-.34-.22-.09-.44-.12-.67-.17-.39-.09-.77-.22-1.16-.34-.41-.12-.82-.25-1.23-.4-.1-.04-.2-.08-.29-.11-.31-.12,.21,.1,.01,0-.21-.1-.43-.2-.64-.3-.77-.39-1.51-.85-2.21-1.35-.08-.06-.16-.12-.24-.18,.3,.23-.02-.02-.06-.06-.15-.12-.29-.26-.43-.39-.29-.27-.57-.54-.82-.84-.41-.5-1.26-.48-1.73-.1-.54,.43-.63,1.09-.34,1.7h0Z"/></g><g><g><g><path class="cls-3" d="M120.1,415.56h107.29c2.94,0,5.02-2.39,4.64-5.33l-31.38-243.47c-.38-2.94-3.07-5.33-6.02-5.33H87.34c-2.94,0-5.02,2.39-4.64,5.33l31.38,243.47c.38,2.94,3.07,5.33,6.02,5.33Z"/><path class="cls-3" d="M227.39,416.63H120.1c-3.46,0-6.63-2.81-7.07-6.26l-31.38-243.47c-.22-1.74,.25-3.38,1.35-4.62,1.08-1.23,2.63-1.91,4.36-1.91h107.29c3.46,0,6.63,2.81,7.07,6.26l31.38,243.47c.22,1.74-.25,3.38-1.35,4.62-1.08,1.23-2.63,1.91-4.36,1.91ZM87.34,162.49c-1.11,0-2.08,.42-2.76,1.19-.68,.78-.98,1.82-.83,2.95l31.38,243.47c.31,2.43,2.54,4.4,4.96,4.4h107.29c1.11,0,2.08-.42,2.76-1.18,.68-.77,.98-1.82,.83-2.95l-31.38-243.47c-.31-2.43-2.54-4.4-4.96-4.4H87.34Z"/></g><g><path class="cls-1" d="M128.77,415.56h107.29c2.94,0,5.02-2.39,4.64-5.33l-31.38-243.47c-.38-2.94-3.07-5.33-6.02-5.33H96.02c-2.94,0-5.02,2.39-4.64,5.33l31.38,243.47c.38,2.94,3.07,5.33,6.02,5.33Z"/><path class="cls-3" d="M236.07,416.63h-107.29c-3.46,0-6.63-2.81-7.07-6.26l-31.38-243.47c-.22-1.74,.25-3.38,1.35-4.62,1.08-1.23,2.63-1.91,4.36-1.91h107.29c3.46,0,6.63,2.81,7.07,6.26l31.38,243.47c.22,1.74-.25,3.38-1.35,4.62-1.08,1.23-2.63,1.91-4.36,1.91ZM96.02,162.49c-1.11,0-2.08,.42-2.76,1.19-.68,.78-.98,1.82-.83,2.95l31.38,243.47c.31,2.43,2.54,4.4,4.96,4.4h107.29c1.11,0,2.08-.42,2.76-1.18,.68-.77,.98-1.82,.83-2.95l-31.38-243.47c-.31-2.43-2.54-4.4-4.96-4.4H96.02Z"/></g></g><g><path class="cls-4" d="M187.3,189.99c-.09-.74-.53-1.27-1.32-1.32-4.88-.31-9.71-.73-14.45-2.03-7.09-1.93-13.33-5.57-18.39-10.91-.46-.49-1.05-.16-1.2,.34-6.53,9.94-18.18,12.1-29.23,12.79-.55,.03-1.21,.49-1.13,1.13,2.59,20.11,9.21,40.6,25.25,54.03,3.65,3.05,7.67,5.64,12.06,7.49,.9,.38,1.91,.93,2.87,1.09,.98,.17,2.09-.52,2.96-.92,2.03-.91,3.96-2.05,5.76-3.38,7.39-5.46,12.48-13.61,15.12-22.34,3.5-11.56,3.16-24.12,1.7-35.99Z"/><path class="cls-1" d="M181.07,195.17c-.09-.74-.53-1.27-1.32-1.32-3.78-.24-7.51-.55-11.19-1.54-5.54-1.49-10.38-4.3-14.38-8.41-.47-.48-1.05-.16-1.2,.33-5.13,7.65-14.15,9.28-22.71,9.81-.55,.03-1.21,.49-1.13,1.13,2.04,15.99,7.33,32.32,20.24,42.84,2.9,2.36,6.07,4.33,9.53,5.74,.61,.25,1.49,.73,2.17,.72,.77,0,1.69-.57,2.38-.88,1.53-.7,2.98-1.57,4.33-2.57,5.86-4.33,9.9-10.81,11.97-17.74,2.71-9.05,2.44-18.83,1.29-28.11Z"/><path class="cls-2" d="M148.18,215.95c2.5,2.56,5.03,5.1,7.66,7.53,.94,.87,2.26,2.66,3.68,2.62,1.73-.04,1.98-2.3,2.38-3.55,1.01-3.14,2.15-6.25,3.47-9.27,.65-1.47,1.3-2.94,2.01-4.39,.42-.86,.88-1.71,1.3-2.58,.29-.6,1.17-1.91,.89-2.59-.25-.61-.91-.36-1.44-.53-.72-.23-1.4-1.02-2.23-.59-.3,.16-.49,.46-.67,.75-2.89,4.82-5.13,10.04-6.63,15.47-1.86-1.94-3.85-3.76-5.95-5.44-.29-.23-.59-.46-.94-.56-.67-.18-1.38,.16-1.92,.59-.65,.51-2.58,1.53-1.61,2.53Z"/></g><g><path class="cls-3" d="M124.19,261.61c2.73,28.78,6.47,57.49,10.07,86.17,1.06,8.45,2,16.98,3.63,25.34,.24,1.24,2.32,.97,2.22-.3-.56-7.68-1.65-15.35-2.58-22.99-.86-7.06-1.7-14.12-2.52-21.18-1.63-14.01-3.25-28.01-4.99-42.01-1.05-8.48-2.33-16.9-3.78-25.32-.2-1.15-2.17-.9-2.06,.28h0Z"/><path class="cls-3" d="M125.23,262.6c20,.4,40,.33,60.01,.34,5.53,0,11.04,.05,16.56-.35,1.25-.09,1.25-1.86,0-1.95-9.83-.7-19.75-.35-29.6-.35-10.14,0-20.27,.04-30.41,.08-5.52,.02-11.04,.14-16.56,.25-1.27,.03-1.27,1.95,0,1.97h0Z"/><path class="cls-3" d="M200.58,261.61c1.4,14.79,3.38,29.52,5.16,44.27,1.67,13.86,3.35,27.72,5.14,41.57,1.1,8.52,1.87,17.24,3.79,25.62,.23,1,1.84,.79,1.79-.24-.31-7.71-1.58-15.42-2.49-23.08-.84-7.06-1.64-14.12-2.43-21.19-1.56-13.86-3.09-27.73-4.86-41.57-1.1-8.59-2.24-17.17-3.71-25.7-.23-1.34-2.52-1.04-2.39,.32h0Z"/><path class="cls-3" d="M138.98,373.89c6.48,.45,13.04,.26,19.53,.26s12.71,0,19.07,0c6.36,0,12.71-.01,19.07-.02,3.16,0,6.32,0,9.48,0,3.22,0,6.48,.1,9.67-.35,.92-.13,.92-1.72,0-1.86-3.19-.46-6.46-.35-9.67-.35-3.16,0-6.32,0-9.48,0-6.36,0-12.71-.01-19.07-.02-6.36,0-12.71,0-19.07,0s-13.05-.19-19.53,.26c-1.36,.09-1.36,2.02,0,2.12h0Z"/><g><path class="cls-4" d="M146.1,282.22c2.33-2.56,2.08-6.5-.25-8.98-2.11-2.25-5.74-3.23-8.45-1.43-2.31,1.54-3.59,4.52-2.9,7.24,.59,2.34,2.49,4.11,4.69,4.95,1.22,.47,2.56,.57,3.84,.32,.64-.12,1.25-.38,1.77-.76,.29-.21,.59-.43,.84-.69,.33-.35,.47-.77,.57-1.22,.15-.68-.46-1.48-1.21-1.21-.18,.07-.37,.1-.56,.16-.29,.1-.5,.27-.76,.43-.09,.05-.18,.1-.28,.15-.07,.03-.39,.15-.04,.03-.22,.08-.44,.16-.67,.23-.19,.06-.39,.1-.58,.15-.34,.08,.33-.02-.01,0-.1,0-.2,.02-.3,.02-.2,0-.4,0-.6,0-.1,0-.2-.02-.3-.03,.42,.04-.04-.01-.12-.03-.2-.04-.4-.09-.59-.16-.1-.03-.2-.06-.29-.1-.07-.02-.38-.17-.05-.01-.41-.19-.79-.42-1.17-.67-.29-.19,.21,.19-.05-.04-.08-.07-.16-.13-.24-.2-.15-.14-.3-.28-.44-.44-.07-.08-.13-.16-.2-.23,.22,.26,0,0-.03-.05-.14-.2-.26-.4-.37-.61-.05-.09-.09-.18-.13-.28,.15,.31,0,0-.02-.06-.07-.19-.13-.39-.17-.6-.02-.1-.04-.2-.06-.31,.06,.35,0,0,0-.07-.02-.25,0-.5,0-.76,.02-.35-.04,.18,0-.04,.02-.09,.03-.19,.06-.28,.06-.25,.13-.49,.22-.73,.1-.29,.49-.91,.72-1.16,.69-.75,1.53-1.17,2.4-1.19,.13,0,.27,0,.4,0,.02,0,.45,.06,.18,.02,.27,.05,.54,.12,.8,.2,0,0,.42,.16,.2,.07,.13,.05,.26,.12,.38,.19,.29,.16,.58,.33,.85,.54-.19-.14,.18,.16,.17,.15,.14,.13,.28,.26,.41,.4,.28,.29,.33,.37,.5,.61,.4,.61,.56,1.05,.72,1.78,.09,.43,0-.19,.03,.24,.01,.2,.02,.4,.02,.6,0,.15-.01,.3-.02,.44,0,.1-.01,.19-.02,.29,.02-.11,0-.08-.02,.08-.15,.67-.32,1.08-.74,1.63-.35,.46-.12,1.21,.3,1.52,.45,.34,1.15,.35,1.55-.09Z"/><path class="cls-2" d="M138.32,277.47c.19,1.23,.82,2.32,2.02,2.79,.61,.24,1.33,.24,1.91-.09,.55-.31,.89-.83,1.22-1.35,.64-.99,1.25-1.99,1.86-2.99,.31-.5,.62-1,.88-1.53,.28-.57,.62-1.13,.76-1.74,.1-.44-.07-.92-.47-1.16-.42-.24-.89-.13-1.24,.16-.42,.35-.72,.82-1.05,1.26-.3,.4-.58,.81-.84,1.23-.53,.84-1.07,1.68-1.57,2.53-.25,.42-.48,.84-.74,1.26-.02,.03-.17,.27-.07,.13,.11-.17-.08,.12-.1,.1-.08-.06,.38-.14,.36-.14-.03,0-.06,0-.1,0,.17,.03,.18,.03,.04,0-.19-.13,.08,.07-.04,0-.07-.05-.15-.09-.23-.14,.21,.13-.06-.06-.09-.08-.07-.06-.13-.13-.2-.19-.04-.05-.16-.19-.06-.07-.07-.09-.12-.18-.19-.27-.15-.21-.33-.41-.49-.62-.25-.32-.81-.34-1.14-.15-.39,.23-.49,.64-.43,1.06h0Z"/><path class="cls-3" d="M152.11,279.56c6.79,.22,13.58,.24,20.37,.25,3.44,0,6.89,0,10.33,0,3.21,0,6.57,.3,9.75-.14,.95-.13,.95-1.8,0-1.93-3.09-.42-6.36-.14-9.48-.14-3.53,0-7.06,0-10.6,.01-6.79,0-13.58,.03-20.37,.25-1.08,.04-1.08,1.64,0,1.68h0Z"/></g><path class="cls-4" d="M204.61,395.94c-.31-2.66-.61-5.32-.97-7.98-.32-2.33-1.05-4.64-3.69-4.85-.14-.08-.3-.13-.49-.14-7.56-.36-15.15-.26-22.71-.26h-11.81c-1.1,0-2.21-.07-3.23,.48-2.21,1.19-2.24,3.35-1.99,5.49,.28,2.47,.57,4.93,.85,7.4,.22,1.93,.27,4.01,2.12,5.17,1.09,.68,2.24,.64,3.45,.64,1.58,0,3.15,0,4.73,0,9.16,0,18.33-.01,27.49-.02,1.01,0,2.15,.12,3.15-.08,2.98-.62,3.39-3.34,3.1-5.86Z"/><g><path class="cls-4" d="M148.63,301.19c2.33-2.56,2.08-6.5-.25-8.98-2.11-2.25-5.74-3.23-8.45-1.43-2.31,1.54-3.59,4.52-2.9,7.24,.59,2.34,2.49,4.11,4.69,4.95,1.22,.47,2.56,.57,3.84,.32,.64-.12,1.25-.38,1.77-.76,.29-.21,.59-.43,.84-.69,.33-.35,.47-.77,.57-1.22,.15-.68-.46-1.48-1.21-1.21-.18,.07-.37,.1-.56,.16-.29,.1-.5,.27-.76,.43-.09,.05-.18,.1-.28,.15-.07,.03-.39,.15-.04,.03-.22,.08-.44,.16-.67,.23-.19,.06-.39,.1-.58,.15-.34,.08,.33-.02-.01,0-.1,0-.2,.02-.3,.02-.2,0-.4,0-.6,0-.1,0-.2-.02-.3-.03,.42,.04-.04-.01-.12-.03-.2-.04-.4-.09-.59-.16-.1-.03-.2-.06-.29-.1-.07-.02-.38-.17-.05-.01-.41-.19-.79-.42-1.17-.67-.29-.19,.21,.19-.05-.04-.08-.07-.16-.13-.24-.2-.15-.14-.3-.28-.44-.44-.07-.08-.13-.16-.2-.23,.22,.26,0,0-.03-.05-.14-.2-.26-.4-.37-.61-.05-.09-.09-.18-.13-.28,.15,.31,0,0-.02-.06-.07-.19-.13-.39-.17-.6-.02-.1-.04-.2-.06-.31,.06,.35,0,0,0-.07-.02-.25,0-.5,0-.76,.02-.35-.04,.18,0-.04,.02-.09,.03-.19,.06-.28,.06-.25,.13-.49,.22-.73,.1-.29,.49-.91,.72-1.16,.69-.75,1.53-1.17,2.4-1.19,.13,0,.27,0,.4,0,.02,0,.45,.06,.18,.02,.27,.05,.54,.12,.8,.2,0,0,.42,.16,.2,.07,.13,.05,.26,.12,.38,.19,.29,.16,.58,.33,.85,.54-.19-.14,.18,.16,.17,.15,.14,.13,.28,.26,.41,.4,.28,.29,.33,.37,.5,.61,.41,.61,.56,1.05,.72,1.78,.09,.43,0-.19,.03,.24,.01,.2,.02,.4,.02,.6,0,.15-.01,.3-.02,.44,0,.1-.01,.19-.02,.29,.02-.11,0-.08-.02,.08-.15,.67-.32,1.08-.74,1.63-.35,.46-.12,1.21,.3,1.52,.45,.34,1.15,.35,1.55-.09Z"/><path class="cls-2" d="M140.85,296.43c.19,1.23,.82,2.32,2.02,2.79,.61,.24,1.33,.24,1.91-.09,.55-.31,.89-.83,1.22-1.35,.64-.99,1.25-1.99,1.86-2.99,.31-.5,.62-1,.88-1.53,.28-.57,.62-1.13,.76-1.74,.1-.44-.07-.92-.47-1.15-.42-.24-.89-.13-1.24,.16-.42,.35-.72,.82-1.05,1.26-.3,.4-.58,.81-.84,1.23-.53,.84-1.07,1.68-1.57,2.53-.25,.42-.48,.84-.74,1.26-.02,.03-.17,.27-.07,.13,.11-.17-.08,.12-.1,.1-.08-.06,.38-.14,.36-.14-.03,0-.06,0-.1,0,.17,.03,.18,.03,.04,0-.19-.13,.08,.07-.04,0-.07-.05-.15-.09-.23-.14,.21,.13-.06-.06-.09-.08-.07-.06-.13-.13-.2-.19-.04-.05-.16-.19-.06-.07-.07-.09-.12-.18-.19-.27-.15-.21-.33-.41-.49-.62-.25-.32-.81-.34-1.14-.15-.39,.23-.49,.64-.43,1.06h0Z"/><path class="cls-3" d="M154.64,298.52c6.79,.22,13.58,.24,20.37,.25,3.44,0,6.89,0,10.33,0,3.21,0,6.57,.3,9.75-.14,.95-.13,.95-1.8,0-1.93-3.09-.42-6.36-.14-9.48-.14-3.53,0-7.06,0-10.6,.01-6.79,0-13.58,.03-20.37,.25-1.08,.04-1.08,1.64,0,1.68h0Z"/></g><g><path class="cls-4" d="M151.16,320.15c2.33-2.56,2.08-6.5-.25-8.98-2.11-2.25-5.74-3.23-8.45-1.43-2.31,1.54-3.59,4.52-2.9,7.24,.59,2.34,2.49,4.11,4.69,4.95,1.22,.47,2.56,.57,3.84,.32,.64-.12,1.25-.38,1.77-.76,.29-.21,.59-.43,.84-.69,.33-.35,.47-.77,.57-1.22,.15-.68-.46-1.48-1.21-1.21-.18,.07-.37,.1-.56,.16-.29,.1-.5,.27-.76,.43-.09,.05-.18,.1-.28,.15-.07,.03-.39,.15-.04,.03-.22,.08-.44,.16-.67,.23-.19,.06-.39,.1-.58,.15-.34,.08,.33-.02-.01,0-.1,0-.2,.02-.3,.02-.2,0-.4,0-.6,0-.1,0-.2-.02-.3-.03,.42,.04-.04-.01-.12-.03-.2-.04-.4-.09-.59-.16-.1-.03-.2-.06-.29-.1-.07-.02-.38-.17-.05-.01-.41-.19-.79-.42-1.17-.67-.29-.19,.21,.19-.05-.04-.08-.07-.16-.13-.24-.2-.15-.14-.3-.28-.44-.44-.07-.08-.13-.16-.2-.23,.22,.26,0,0-.03-.05-.14-.2-.26-.4-.37-.61-.05-.09-.09-.18-.13-.28,.15,.31,0,0-.02-.06-.07-.19-.13-.39-.17-.6-.02-.1-.04-.2-.06-.31,.06,.35,0,0,0-.07-.02-.25,0-.5,0-.76,.02-.35-.04,.18,0-.04,.02-.09,.03-.19,.06-.28,.06-.25,.13-.49,.22-.73,.1-.29,.49-.91,.72-1.16,.69-.75,1.53-1.17,2.4-1.19,.13,0,.27,0,.4,0,.02,0,.45,.06,.18,.02,.27,.05,.54,.12,.8,.2,0,0,.42,.16,.2,.07,.13,.05,.26,.12,.38,.19,.29,.16,.58,.33,.85,.54-.19-.14,.18,.16,.17,.15,.14,.13,.28,.26,.41,.4,.28,.29,.33,.37,.5,.61,.41,.61,.56,1.05,.72,1.78,.09,.43,0-.19,.03,.24,.01,.2,.02,.4,.02,.6,0,.15-.01,.3-.02,.44,0,.1-.01,.19-.02,.29,.02-.11,0-.08-.02,.08-.15,.67-.32,1.08-.74,1.63-.35,.46-.12,1.21,.3,1.52,.45,.34,1.15,.35,1.55-.09Z"/><path class="cls-2" d="M143.38,315.39c.19,1.23,.82,2.32,2.02,2.79,.61,.24,1.33,.24,1.91-.09,.55-.31,.89-.83,1.22-1.35,.64-.99,1.25-1.99,1.86-2.99,.31-.5,.62-1,.88-1.53,.28-.57,.62-1.13,.76-1.74,.1-.44-.07-.92-.47-1.15-.42-.24-.89-.13-1.24,.16-.42,.35-.72,.82-1.05,1.26-.3,.4-.58,.81-.84,1.23-.53,.84-1.07,1.68-1.57,2.53-.25,.42-.48,.84-.74,1.26-.02,.03-.17,.27-.07,.13,.11-.17-.08,.12-.1,.1-.08-.06,.38-.14,.36-.14-.03,0-.06,0-.1,0,.17,.03,.18,.03,.04,0-.19-.13,.08,.07-.04,0-.07-.05-.15-.09-.23-.14,.21,.13-.06-.06-.09-.08-.07-.06-.13-.13-.2-.19-.04-.05-.16-.19-.06-.07-.07-.09-.12-.18-.19-.27-.15-.21-.33-.41-.49-.62-.25-.32-.81-.34-1.14-.15-.39,.23-.49,.64-.43,1.06h0Z"/><path class="cls-3" d="M157.18,317.49c6.79,.22,13.58,.24,20.37,.25,3.44,0,6.89,0,10.33,0,3.21,0,6.57,.3,9.75-.14,.95-.13,.95-1.8,0-1.93-3.09-.42-6.36-.14-9.49-.14-3.53,0-7.06,0-10.6,.01-6.79,0-13.58,.03-20.37,.25-1.08,.04-1.08,1.64,0,1.68h0Z"/></g><g><path class="cls-4" d="M153.69,339.11c2.33-2.56,2.08-6.5-.25-8.98-2.11-2.25-5.74-3.23-8.45-1.43-2.31,1.54-3.59,4.52-2.9,7.24,.59,2.34,2.49,4.11,4.69,4.95,1.22,.47,2.56,.57,3.84,.32,.64-.12,1.25-.38,1.77-.76,.29-.21,.59-.43,.84-.69,.33-.35,.47-.77,.57-1.22,.15-.68-.46-1.48-1.21-1.21-.18,.07-.37,.1-.56,.16-.29,.1-.5,.27-.76,.43-.09,.05-.18,.1-.28,.15-.07,.03-.39,.15-.04,.03-.22,.08-.44,.16-.67,.23-.19,.06-.39,.1-.58,.15-.34,.08,.33-.02-.01,0-.1,0-.2,.02-.3,.02-.2,0-.4,0-.6,0-.1,0-.2-.02-.3-.03,.42,.04-.04-.01-.12-.03-.2-.04-.4-.09-.59-.16-.1-.03-.2-.06-.29-.1-.07-.02-.38-.17-.05-.01-.41-.19-.79-.42-1.17-.67-.29-.19,.21,.19-.05-.04-.08-.07-.16-.13-.24-.2-.15-.14-.3-.28-.44-.44-.07-.08-.13-.16-.2-.23,.22,.26,0,0-.03-.05-.14-.2-.26-.4-.37-.61-.05-.09-.09-.18-.13-.28,.15,.31,0,0-.02-.06-.07-.19-.13-.39-.17-.6-.02-.1-.04-.2-.06-.31,.06,.35,0,0,0-.07-.02-.25,0-.5,0-.76,.02-.35-.04,.18,0-.04,.02-.09,.03-.19,.06-.28,.06-.25,.13-.49,.22-.73,.1-.29,.49-.91,.72-1.16,.69-.75,1.53-1.17,2.4-1.19,.13,0,.27,0,.4,0,.02,0,.45,.06,.18,.02,.27,.05,.54,.12,.8,.2,0,0,.42,.16,.2,.07,.13,.05,.26,.12,.38,.19,.29,.16,.58,.33,.85,.54-.19-.14,.18,.16,.17,.15,.14,.13,.28,.26,.41,.4,.28,.29,.33,.37,.5,.61,.41,.61,.56,1.05,.72,1.78,.09,.43,0-.19,.03,.24,.01,.2,.02,.4,.02,.6,0,.15-.01,.3-.02,.44,0,.1-.01,.19-.02,.29,.02-.11,0-.08-.02,.08-.15,.67-.32,1.08-.74,1.63-.35,.46-.12,1.21,.3,1.52,.45,.34,1.15,.35,1.55-.09Z"/><path class="cls-2" d="M145.91,334.36c.19,1.23,.82,2.32,2.02,2.79,.61,.24,1.33,.24,1.91-.09,.55-.31,.88-.83,1.22-1.35,.64-.99,1.25-1.99,1.86-2.99,.31-.5,.62-1,.88-1.53,.28-.57,.62-1.13,.76-1.74,.1-.44-.07-.92-.47-1.16-.42-.24-.89-.13-1.24,.16-.42,.35-.72,.82-1.05,1.26-.3,.4-.58,.81-.84,1.23-.53,.84-1.07,1.68-1.57,2.53-.25,.42-.48,.84-.74,1.26-.02,.03-.17,.27-.07,.13,.11-.17-.08,.12-.1,.1-.08-.06,.38-.14,.36-.14-.03,0-.06,0-.1,0,.17,.03,.18,.03,.04,0-.19-.13,.08,.07-.04,0-.07-.05-.15-.09-.23-.14,.21,.13-.06-.06-.09-.08-.07-.06-.13-.13-.2-.19-.04-.05-.16-.19-.06-.07-.07-.09-.12-.18-.19-.27-.15-.21-.33-.41-.49-.62-.25-.32-.81-.34-1.14-.15-.39,.23-.49,.64-.43,1.06h0Z"/><path class="cls-3" d="M159.71,336.45c6.79,.22,13.58,.24,20.37,.25,3.44,0,6.89,0,10.33,0,3.21,0,6.57,.3,9.75-.14,.95-.13,.95-1.8,0-1.93-3.09-.42-6.36-.14-9.49-.14-3.53,0-7.06,0-10.6,.01-6.79,0-13.58,.03-20.37,.25-1.08,.04-1.08,1.64,0,1.68h0Z"/></g><g><path class="cls-4" d="M156.22,358.08c2.33-2.56,2.08-6.5-.25-8.98-2.11-2.25-5.74-3.23-8.45-1.43-2.31,1.54-3.59,4.52-2.9,7.24,.59,2.34,2.49,4.11,4.69,4.95,1.22,.47,2.56,.57,3.84,.32,.64-.12,1.25-.38,1.77-.76,.29-.21,.59-.43,.84-.69,.33-.35,.47-.77,.57-1.22,.15-.68-.46-1.48-1.21-1.21-.18,.07-.37,.1-.56,.16-.29,.1-.5,.27-.76,.43-.09,.05-.18,.1-.28,.15-.07,.03-.39,.15-.04,.03-.22,.08-.44,.16-.67,.23-.19,.06-.39,.1-.58,.15-.34,.08,.33-.02-.01,0-.1,0-.2,.02-.3,.02-.2,0-.4,0-.6,0-.1,0-.2-.02-.3-.03,.42,.04-.04-.01-.12-.03-.2-.04-.4-.09-.59-.16-.1-.03-.2-.06-.29-.1-.07-.02-.38-.17-.05-.01-.41-.19-.79-.42-1.17-.67-.29-.19,.21,.19-.05-.04-.08-.07-.16-.13-.24-.2-.15-.14-.3-.28-.44-.44-.07-.08-.13-.16-.2-.23,.22,.26,0,0-.03-.05-.14-.2-.26-.4-.37-.61-.05-.09-.09-.18-.13-.28,.15,.31,0,0-.02-.06-.07-.19-.13-.39-.17-.6-.02-.1-.04-.2-.06-.31,.06,.35,0,0,0-.07-.02-.25,0-.5,0-.76,.02-.35-.04,.18,0-.04,.02-.09,.03-.19,.06-.28,.06-.25,.13-.49,.22-.73,.1-.29,.49-.91,.72-1.16,.69-.75,1.53-1.17,2.4-1.19,.13,0,.27,0,.4,0,.02,0,.45,.06,.18,.02,.27,.05,.54,.12,.8,.2,0,0,.42,.16,.2,.07,.13,.05,.26,.12,.38,.19,.29,.16,.58,.33,.85,.54-.19-.14,.18,.16,.17,.15,.14,.13,.28,.26,.41,.4,.28,.29,.33,.37,.5,.61,.4,.61,.56,1.05,.72,1.78,.09,.43,0-.19,.03,.24,.01,.2,.02,.4,.02,.6,0,.15-.01,.3-.02,.44,0,.1-.01,.19-.02,.29,.02-.11,0-.08-.02,.08-.15,.67-.32,1.08-.74,1.63-.35,.46-.12,1.21,.3,1.52,.45,.34,1.15,.35,1.55-.09Z"/><path class="cls-2" d="M148.44,353.32c.19,1.23,.82,2.32,2.02,2.79,.61,.24,1.33,.24,1.91-.09,.55-.31,.88-.83,1.22-1.35,.64-.99,1.25-1.99,1.86-2.99,.31-.5,.62-1,.88-1.53,.28-.57,.62-1.13,.76-1.74,.1-.44-.07-.92-.47-1.16-.42-.24-.89-.13-1.24,.16-.42,.35-.72,.82-1.05,1.26-.3,.4-.58,.81-.84,1.23-.53,.84-1.07,1.68-1.57,2.53-.25,.42-.48,.84-.74,1.26-.02,.03-.17,.27-.07,.13,.11-.17-.08,.12-.1,.1-.08-.06,.38-.14,.36-.14-.03,0-.06,0-.1,0,.17,.03,.18,.03,.04,0-.19-.13,.08,.07-.04,0-.07-.05-.15-.09-.23-.14,.21,.13-.06-.06-.09-.08-.07-.06-.13-.13-.2-.19-.04-.05-.16-.19-.06-.07-.07-.09-.12-.18-.19-.27-.15-.21-.33-.41-.49-.62-.25-.32-.81-.34-1.14-.15-.39,.23-.49,.64-.43,1.06h0Z"/><path class="cls-3" d="M162.24,355.42c6.79,.22,13.58,.24,20.37,.25,3.44,0,6.89,0,10.33,0,3.21,0,6.57,.3,9.75-.14,.95-.13,.95-1.8,0-1.93-3.09-.42-6.36-.14-9.48-.14-3.53,0-7.06,0-10.6,.01-6.79,0-13.58,.03-20.37,.25-1.08,.04-1.08,1.64,0,1.68h0Z"/></g><path class="cls-2" d="M179.03,390.6c.94,1.78,2.29,3.28,3.74,4.67,.85,.82,2.17,.41,2.53-.67,.81-2.42,1.44-4.91,1.97-7.4,.53-2.5,1.14-5,1.51-7.53,.08-.54-.09-1.04-.62-1.26-.46-.19-1.1-.04-1.34,.44-1.16,2.33-1.79,4.93-2.48,7.42-.69,2.5-1.26,5.04-1.97,7.53,.84-.22,1.69-.45,2.53-.67-1.43-1.25-2.76-2.6-4.22-3.81-.91-.75-2.25,.17-1.66,1.28h0Z"/></g></g><g><g><path class="cls-3" d="M353.7,111.52c3.26-4.44,6.81-8.67,10.62-12.65,.4-.42,.83-.85,1.39-.99,.6-.15,1.24,.07,1.81,.32,3.03,1.33,5.64,3.62,7.35,6.45,.2,.32,.39,.68,.38,1.06,0,.48-.32,.9-.63,1.28-2.9,3.63-5.81,7.26-8.71,10.89l-12.21-6.36Z"/><path class="cls-3" d="M354.32,112.59c1.04-.54,1.89-1.72,2.61-2.63,.79-1,1.6-1.99,2.42-2.97,1.64-1.95,3.34-3.86,5.1-5.71,.41-.43,.82-.86,1.24-1.29,.38-.38,.49-.43,1.01-.23,.97,.37,1.91,.97,2.75,1.57,.85,.61,1.62,1.33,2.32,2.11,.66,.73,1.62,1.75,1.76,2.74v-.95c-.12,.9-1.2,1.78-1.75,2.47-.84,1.04-1.67,2.09-2.51,3.13-1.62,2.03-3.43,3.98-4.65,6.28-.82,1.55,1.08,2.94,2.37,1.82,1.4-1.21,2.49-2.65,3.63-4.09,1.19-1.49,2.37-2.97,3.56-4.46,.98-1.23,2.48-2.58,2.79-4.17,.32-1.66-.94-3.17-1.9-4.38-1.88-2.38-4.53-4.49-7.42-5.49-1.79-.62-3.28-.04-4.55,1.28-1.21,1.26-2.37,2.57-3.51,3.89-1.32,1.52-2.61,3.08-3.85,4.66-.58,.74-1.2,1.48-1.74,2.25-.57,.81-1.28,1.77-1.46,2.76-.19,1.06,.81,1.91,1.81,1.39h0Z"/></g><path class="cls-3" d="M311.67,168.61c-14.75,17.68-29.04,35.74-43.21,53.89-15.46,19.8-30.82,39.68-46.27,59.49-7.53,9.66-15.18,19.26-22.33,29.2-1.2,1.67,1.44,3.64,2.82,2.18,7.33-7.78,14.07-16.14,20.7-24.52,7.62-9.64,15.13-19.37,22.63-29.1,15.34-19.9,30.49-39.96,45.82-59.87,7.4-9.61,14.83-19.21,22.5-28.61,1.51-1.86-1.1-4.53-2.66-2.66h0Z"/><g><path class="cls-3" d="M209.01,307.51c-.09-.05-.15-.08,0,0h0Z"/><path class="cls-2" d="M215.93,327.64c-1.43,4.21-7.65,10.14-11.89,8.24-14.42-6.44,4.14-22.66,7.71-26.6,1.17-1.29,.77-1.64,.25-2.99-.04-.1-.06-.2-.12-.3-.16-.22-.41-.41-.61-.6-.07-.07-.14-.14-.22-.21,0,0-.14-.14-.18-.18-.03-.03-.05-.06-.06-.06-.13-.14-.26-.28-.4-.41-.5-.46-1.07-.86-1.61-1.28-1.2-.94-2.43-1.81-3.76-2.55-2.04-1.13-6.43,5.82-7.57,7.14-2.1,2.42-4.13,4.91-5.82,7.64-2.83,4.57-4.46,9.8-3.72,15.2,.67,4.9,3.26,9.33,7.43,12.05,3.97,2.59,8.97,3.88,13.62,2.54,2.96-.85,5.75-2.76,8.04-4.76,2.33-2.04,4.11-4.55,5.98-6.99,.04-.05,.08-.11,.12-.16,1.66-2.39-4.45-7.83-6.76-6.44-.25,.15-.35,.45-.44,.72Z"/></g><path class="cls-4" d="M415.94,210.35c.81-24.16-6.22-47.75-19.72-67.77-8.13-12.06-18.35-22.66-29.62-31.82-11.14-9.06-23.49-16.75-36.78-22.25-22.4-9.26-47.26-11.93-70.98-6.63-20.67,4.62-39.86,14.86-55.06,29.63-1.77,1.72-3.47,3.5-5.12,5.34-1.27,1.42,.91,3.19,2.24,2,6.36-2.17,14.27-4.26,20.01,.38,2.95,2.39,4.42,6.07,5.11,9.71,.46,2.43,.86,4.94,.68,7.42-.1,1.26-1.86,6.35,1.51,5.11,6.39-2.37,14.44-4.83,20.39-.09,2.95,2.36,4.45,6.02,5.15,9.64,.55,2.84,1.28,6.64,.38,9.45-.44,1.37-.45,3.91,1.82,3.07,6.39-2.38,14.47-4.88,20.43-.13,5.05,4.03,5.92,11.55,5.85,17.57-.01,1.08-1.85,5.8,1.44,4.58,6.42-2.39,14.51-4.88,20.49-.12,2.82,2.25,4.33,5.63,5.08,9.09,.38,1.76,.59,3.55,.7,5.35,.05,.82,.2,1.64,.09,2.44-.17,1.19-1.77,6.43,1.36,5.26,6.44-2.4,14.56-4.89,20.56-.13,3.05,2.42,4.58,6.14,5.3,9.87,.36,1.87,.54,3.77,.64,5.67,.08,1.65-.54,3.02-.83,4.6-.21,1.15,.74,2.41,2.02,1.92,6.5-2.45,14.67-4.95,20.74-.14,3.05,2.42,4.6,6.17,5.33,9.9,.51,2.63,1.39,6.74,.51,9.36-.31,.94-1.01,3.56,1.1,2.77,6.2-2.33,13.94-4.78,20.01-.78,3.34,2.21,5.22,5.84,6.13,9.65,.46,1.93,.69,3.9,.8,5.87,.1,1.83-.87,3.48-.72,5.32,.07,.84,.11,1.43,.98,1.73,.77,.26,1.84,.16,2.32-.58,11.85-18.57,18.93-40.2,19.67-62.27Z"/><path class="cls-3" d="M227.4,142.2c13.84-14.25,31.2-24.83,49.98-31.22,18.15-6.17,37.51-8.74,56.59-6.5,10.21,1.2,20.21,4,29.86,7.48,1.64,.59,2.72-2,1.19-2.81-16.78-8.92-37.16-10.85-55.85-9.18-20.06,1.8-39.64,8.11-56.85,18.61-9.85,6.01-18.92,13.32-26.77,21.78-1.14,1.22,.67,3.05,1.84,1.84h0Z"/><path class="cls-3" d="M254.91,163.94c11.98-12.18,24.57-23.46,39.35-32.17,13.47-7.94,28.07-13.75,43.44-16.77,8.72-1.71,17.68-2.72,26.55-3.05,1.9-.07,1.89-2.84,0-2.94-8.17-.44-16.26-.09-24.35,1.3-7.78,1.33-15.45,3.35-22.86,6.08-15.48,5.71-29.82,14.18-42.42,24.82-7.63,6.45-14.85,13.56-21,21.45-.7,.89,.44,2.14,1.28,1.28h0Z"/><path class="cls-3" d="M363.53,109.27c-11.79,6.7-22.73,14.88-33.1,23.6-11.79,9.91-22.85,20.76-33.18,32.18-2.89,3.2-5.82,6.39-8.5,9.77-1.32,1.65-2.62,3.32-3.91,4.99-1.36,1.77-2.87,3.46-3.7,5.55-.42,1.06,1.03,2.11,1.94,1.49,1.55-1.07,2.66-2.52,3.89-3.93,1.28-1.46,2.57-2.92,3.87-4.36,2.56-2.84,5.03-5.75,7.58-8.6,5.16-5.76,10.47-11.4,15.92-16.89,10.27-10.33,21.1-20.23,32.68-29.1,5.75-4.41,11.71-8.56,17.92-12.28,1.55-.93,.16-3.32-1.42-2.42h0Z"/><path class="cls-3" d="M363.4,110.25c-1.11,5.32-2.4,10.42-4.4,15.5-2.48,6.28-5.58,12.32-8.81,18.23-7.7,14.1-16.74,27.41-25.99,40.52-2.62,3.71-5.29,7.38-8,11.02-2.67,3.57-5.51,7.19-7.66,11.1-.83,1.51,1.08,2.93,2.34,1.8,2.95-2.65,5.51-5.88,7.94-9.01,2.56-3.3,5.05-6.64,7.52-10.01,4.92-6.71,9.59-13.61,14.07-20.62,8.13-12.73,15.77-26.09,20.91-40.34,1.11-3.08,2.13-6.22,2.84-9.42,.61-2.73,1.17-5.75,.97-8.55-.06-.92-1.5-1.25-1.71-.23h0Z"/><path class="cls-3" d="M362.97,110.49c2.47,31.2-2.01,63.05-13.88,92.06-3.55,8.69-8.14,16.84-12.01,25.37-.57,1.25,1.07,2.9,2.1,1.62,5.19-6.49,8.98-14.16,12.27-21.77,3.3-7.63,6.09-15.46,8.34-23.46,4.37-15.54,6.8-31.63,7.15-47.77,.19-8.72-.29-17.4-1.44-26.05-.21-1.57-2.66-1.66-2.53,0h0Z"/><path class="cls-3" d="M362.98,111.74c12.94,15.38,18.73,35.41,20.64,55.11,.75,7.81,1.01,15.61,.21,23.42-.98,9.56-2.99,19.02-5.76,28.22-3.32,11.02-7.93,21.31-13.25,31.49-.67,1.29,1.1,2.88,2.12,1.64,6.58-8,10.63-17.97,13.92-27.7,3.29-9.73,5.5-19.88,6.77-30.06,1.01-8.14,.94-16.21,.2-24.37-.86-9.56-2.52-19.06-5.34-28.24-3.58-11.67-9.08-22.69-16.99-32.03-1.48-1.75-3.98,.78-2.52,2.52h0Z"/></g><path class="cls-1" d="M175.8,290.02c.82,.24,1.84,.56,2.1,1.45,.24,.81-.77,1.43,.38,2.18,.56,.37,1.28,.4,1.96,.37,3.15-.1,6.22-.99,9.25-1.86,2.99-.86,5.97-1.71,8.96-2.55,2.31-.65,4.66-1.3,7.06-1.29,1.58,0,3.14,.3,4.7,.6,2.28,.43,3.91,.53,6.16,1.07-1.41,1.48-6.48,7.8-7.09,9.16,1.35,.23,2.72,.3,4.07,.52,1.12,.19,1.02,.21,1.76-.58,1.63-1.74,4.9-6.21,5.32-7.04,.2-.02,.57,.14,.73,.25,1.66,1.06,3.22,2.38,4.14,4.13,.31,.58,.53,1.2,.81,1.8,.87,1.91,2.17,3.6,3.13,5.47,.23,.44,.44,.9,.5,1.39,.07,.49-.02,1.02-.34,1.4-.28,.33-.7,.51-1.12,.62-.58,.15-1.18,.17-1.77,.18-.84,0-1.71-.06-2.46-.43-.71-.35-1.25-.95-1.78-1.53,.08,.08-.14,1.31-.17,1.5-.07,.47-.25,.84-.55,1.22-.59,.75-1.44,1.28-2.34,1.58-1.28,.43-2.66,.44-4.01,.46,.92,.15,1.82,.39,2.69,.72,.84,.31,1.74,.79,2.03,1.64,.26,.76-.03,1.6-.44,2.28-.7,1.16-1.56,1.97-2.84,2.29-1.03,.26-2.96-.11-3.43,1.17,2.28,.69,5.36,3.81,4.46,6.01-.82,2.02-6.06,4.02-7.72,1.97,.71,.87,1.29,1.85,1.74,2.88,.49,1.16,.79,2.56,.11,3.62-.97,1.51-3.18,1.39-4.96,1.08-3.29-.57-6.59-1.13-9.88-1.7-3.66-.63-7.78-1.31-10.8-3.65-1.34-1.04-2.14-2.52-3.46-3.63-1.64-1.38-3.28-2.74-4.91-4.12-.71-.6-1.47-1.22-2.39-1.36-1.89-.29-1.91,1.57-2.89,2.59-.17,.18-.37,.35-.61,.41-.37,.1-.74-.08-1.09-.22-2.69-1.09-5.73-.55-8.62-.86-2.08-.22-4.11-.89-5.91-1.96-.26-.15-.52-.32-.68-.58-.15-.25-.18-.55-.2-.85-.12-2,.12-4,.37-5.98,.58-4.5,1.26-8.98,2.07-13.44,.36-1.98,.75-3.96,1.37-5.88,.41-1.27,1.37-4.74,2.73-5.23,.78-.28,2.6,.3,3.44,.42,1.16,.17,2.32,.37,3.47,.59,2.34,.46,4.66,1.03,6.95,1.71Z"/><path class="cls-3" d="M163.65,281.36c-4.29-1.35-8.73-2.21-13.11-3.18-3.45-.77-6.9-1.57-10.36-2.32-6.5-1.41-13.05-2.65-19.63-3.63-3.84-.57-7.69-1.07-11.54-1.56-1.05-.13-3.53-1-4.22,.07-.57,.88,.31,3.1,.5,3.98,.7,3.19,.61,6.79,.95,10.06,.37,3.59,.78,7.17,1.22,10.75,.58,4.66,1.22,9.31,1.92,13.95,.32,2.14,1.25,4.84,1.04,6.99-.1,1.07-1.4,3.23,.54,3.48,7.49,.97,14.9,2.41,22.3,3.88,7.09,1.41,14.42,2.82,21.67,2.76,.72,.31,1.76,.07,2.01-.83,1.94-6.95,3.21-14.09,4.57-21.18,1.37-7.1,2.73-14.2,4.09-21.31,.25-1.3-.98-2.1-1.95-1.91Z"/><path class="cls-3" d="M179.3,289.97c-2.71-1.22-5.56-1.86-8.47-2.44-2.5-.49-4.99-.91-7.51-1.27-1.58-.23-2.3,1.97-.68,2.46,2.39,.72,4.8,1.24,7.23,1.8,2.44,.56,4.86,1.2,7.32,1.64-.85,4.78-1.93,9.52-2.96,14.26-.59,2.7-1.19,5.39-1.79,8.09-.42,1.89-.87,3.85-1.01,5.8-.6-.18-1.22-.32-1.87-.43-1.3-.22-2.6-.4-3.91-.52-2.96-.29-5.92-.57-8.87-.95-1.25-.16-1.45,1.84-.29,2.16,5.13,1.41,10.53,1.9,15.78,2.68,.17,.03,.34,.02,.5,0,.24-.01,.47-.1,.66-.29,.13-.11,.24-.25,.32-.43,.03-.07,.04-.16,.05-.24,.95-2.18,1.45-4.54,1.94-6.86,.58-2.79,1.18-5.58,1.74-8.37,1.04-5.11,1.93-10.25,2.34-15.44,.23-.56,.07-1.37-.53-1.64Z"/><path class="cls-3" d="M164.64,309.54c-1.6,.77-2.57,2.89-1.41,4.71,.85,1.33,2.73,2,4.25,1.65,3.92-.91,.96-8.2-2.84-6.36Z"/><path class="cls-3" d="M177.94,295.19c3.34,.65,6.51,.49,9.78-.45,3.46-1,6.73-2.53,10.15-3.66,5.37-1.77,10.81-1.17,16.27-.17,2.45,.45,5.06,.96,7.28,2.12,.94,.49,1.64,1,2.09,1.99,.53,1.16,.76,2.4,1.38,3.53,1.02,1.83,2.36,3.47,3.24,5.38,.19,.42,.67,1.33,.45,1.82-.33,.74-2.14,.62-2.7,.43-1.28-.43-2.17-1.79-2.96-2.8-.89-1.14-1.78-2.19-3.02-2.97-3.24-2.04-7.29-1.65-10.94-1.87-1.77-.11-1.75,2.62,0,2.75,3.41,.25,7.19,1,10.26,2.52,.92,.46,2.63,1.28,2.35,2.55-.67,3.07-5.21,2.83-7.41,2.18-.24,.89-.49,1.77-.73,2.66,1.14,.23,2.2,.56,3.22,1.12,.55,.3,1.13,.64,1.59,1.06,.49,.45,.67,.55,.25,1.13-1.13,1.58-4.38,1.82-6.1,2.03-1.18,.14-2.11,1.94-.7,2.58,1.73,.78,4.99,2.1,4.51,4.55-.51,2.62-4.38,1.41-5.91,.73-1.59-.7-2.92,1.41-1.39,2.37,1.25,.79,2.71,2.14,2.8,3.74,.1,1.79-1.86,2.08-3.26,2.13-4.82,.15-9.6-1.65-14.18-2.91-1.91-.52-3.97-.78-5.73-1.73-1.77-.96-3.29-2.32-4.76-3.68-3.07-2.84-5.97-5.99-10.05-7.3-1.18-.38-1.9,1.38-.84,1.98,3.5,1.98,6.33,4.88,9.28,7.56,1.35,1.22,2.75,2.43,4.31,3.38,1.58,.97,3.21,1.41,5,1.84,4.38,1.05,8.65,2.59,13.11,3.25,2.98,.44,7.59,.93,9.33-2.25,1.76-3.21-1.02-6.74-3.62-8.4-.46,.79-.92,1.58-1.39,2.37,3.08,1.38,7.86,2.31,9.68-1.5,1.96-4.09-2.32-7.12-5.49-8.54-.23,.86-.47,1.72-.7,2.58,3.01-.37,7.89-.98,9.14-4.35,1.32-3.55-4.84-5.91-7.37-6.42-1.73-.35-2.45,2.15-.73,2.66,3.61,1.06,8.04,.66,10.21-2.82,1.24-1.99,.75-4.15-1-5.64-1.95-1.66-4.63-2.47-7.06-3.08-2.16-.54-4.39-.96-6.61-1.12v2.75c3.51,.21,7.88-.37,10.61,2.34,1.9,1.89,3.08,4.62,5.93,5.29,2.05,.48,5.1-.17,5.72-2.49,.55-2.08-.9-4.33-1.94-6.01-.63-1-1.3-1.98-1.9-3-.66-1.15-.88-2.43-1.44-3.62-1.09-2.32-3.4-3.4-5.72-4.18-2.73-.93-5.61-1.42-8.46-1.81-2.73-.38-5.56-.8-8.33-.61-4.3,.29-8.18,2.04-12.14,3.56-4.32,1.65-8.42,2.69-13.07,2.37-1.18-.08-1.45,1.85-.28,2.08h0Z"/><path class="cls-3" d="M309.4,221.97c.64,.26,1.35,.41,2.05,.44,.4,.02,.83-.07,1.21-.14,.4-.08,.79-.23,1.12-.47,.26-.19,.46-.38,.59-.69,.12-.29,.17-.63,.07-.94-.19-.59-.74-1.08-1.39-1.06-.47,.01-.91,.1-1.37,.16,.14-.02,.28-.04,.42-.06-.65,.08-1.31,.12-1.96,.04,.13,.02,.26,.03,.38,.05-.12-.02-.24-.04-.37-.06-.37-.08-.75-.05-1.09,.14-.29,.17-.57,.51-.65,.84-.08,.36-.06,.77,.14,1.09,.07,.1,.15,.19,.22,.29,.18,.17,.38,.3,.62,.36h0Z"/><path class="cls-3" d="M309.46,212.13c-.13,.16-.25,.32-.38,.49,.07-.08,.13-.17,.2-.25-.1,.13-.21,.26-.31,.39-.11,.14-.16,.32-.23,.48-.05,.14-.1,.27-.15,.41-.13,.4-.22,.8-.23,1.22,0,.28,.07,.54,.21,.78,.1,.18,.23,.32,.4,.43,.15,.14,.32,.23,.52,.28,.27,.07,.54,.07,.82,0,.1-.03,.19-.07,.29-.1,.05-.02,.1-.03,.14-.05,.35-.12,.44-.18,.72-.42,.07-.05,.13-.11,.19-.17,.07-.07,.26-.31,.33-.45,.09-.14,.14-.29,.15-.46,.04-.16,.03-.33-.02-.49-.1-.31-.28-.56-.56-.73-.14-.08-.34-.15-.5-.21-.18-.06-.41-.06-.61-.08-.31-.03-.64,.1-.94,.18,.65,.49,1.3,.99,1.95,1.48,.02-.27-.01-.53,0-.8,0-.13,0-.26,.01-.4,.01-.24-.03-.46-.06-.7,.02,.11,.03,.23,.05,.34-.02-.13-.02-.26-.03-.39,0-.2-.06-.4-.16-.57-.13-.21-.32-.37-.54-.47-.09-.05-.18-.08-.29-.08-.1-.03-.2-.03-.3,0-.23,.03-.5,.13-.65,.31h0Z"/><path class="cls-3" d="M306.09,207.69s-.07,.07-.11,.1c-.02,.02-.03,.03-.05,.05-.18,.17-.22,.27-.31,.47-.07,.16-.11,.32-.16,.49-.03,.11-.06,.22-.09,.33-.03,.18-.05,.31-.06,.44,0,.03,0,.06,0,.08,0,.18,.02,.35,.05,.54,.05,.11,.09,.22,.14,.33,.07,.09,.15,.19,.22,.28,.09,.07,.19,.15,.28,.22,.16,.1,.33,.16,.52,.17,.12,.03,.25,.03,.37,0,.13,0,.24-.03,.35-.09,.12-.03,.22-.09,.31-.18,.15-.1,.27-.23,.36-.39,.09-.14,.14-.32,.2-.48,.07-.17,.07-.31,.09-.52,.01-.12,.02-.23,.04-.35,.01-.11,.03-.22,.03-.33,.02-.28-.11-.53-.22-.78-.02-.05-.04-.09-.06-.14-.11-.18-.25-.32-.43-.43-.14-.09-.29-.14-.45-.14-.16-.04-.32-.03-.48,.02-.2,.06-.38,.16-.53,.31h0Z"/><path class="cls-3" d="M315.36,208.07c-.17-.03-.33-.07-.5-.05-.18,.02-.36,.04-.53,.07-.16,.03-.42,.16-.47,.19-.12,.09-.24,.19-.36,.28-.15,.18-.28,.34-.39,.5-.14,.2-.27,.48-.32,.69-.1,.37-.08,.74,.01,1.1,0,.02,.01,.05,.02,.07,.09,.27,.25,.65,.49,.83,.12,.09,.24,.19,.37,.28,.21,.13,.43,.2,.67,.21,.16,.04,.32,.04,.48,0,.24-.01,.46-.08,.67-.21,.14-.07,.27-.17,.38-.29,.09-.12,.19-.25,.28-.37,.12-.19,.12-.23,.19-.37,.13-.3,.16-.35,.17-.76,0-.1,0-.14,.01-.19-.02,.16-.04,.33-.07,.49,0-.05,.02-.11,.03-.16,.08-.35,.13-.7,.02-1.05-.02-.06-.03-.13-.05-.19-.07-.26-.21-.49-.4-.69-.19-.19-.42-.33-.69-.4h0Z"/></svg>