<?xml version="1.0" encoding="UTF-8"?><svg id="Layer_2" xmlns="http://www.w3.org/2000/svg" viewBox="0 0 382.62 325.47"><defs><style>.cls-1{stroke:#457ff2;}.cls-1,.cls-2{fill:none;stroke-linecap:round;stroke-linejoin:round;stroke-width:12px;}.cls-2{stroke:#003153;}</style></defs><g id="Layer_1-2"><path class="cls-2" d="M172.48,179.29H16.01c-5.53,0-10.01-4.48-10.01-10.01V16.01c0-5.53,4.48-10.01,10.01-10.01h259.91c5.53,0,10.01,4.48,10.01,10.01v87.77"/><rect class="cls-2" x="38.35" y="27.5" width="25.46" height="22.25"/><line class="cls-2" x1="7.4" y1="136.11" x2="176.54" y2="136.11"/><path class="cls-1" d="M195.27,151.01l90.68-24.22,90.68,24.22h0v24.13c0,61.53-35.24,117.63-90.68,144.33h0c-55.43-26.7-90.68-82.8-90.68-144.33v-24.13"/><path class="cls-1" d="M304.29,182.91h-22.64c-9.94,0-18,8.06-18,18v1.61c0,9.94,8.06,18,18,18h8.6c9.94,0,18,8.06,18,18h0c0,9.94-8.06,18-18,18h-22.64"/><line class="cls-1" x1="285.94" y1="182.91" x2="285.94" y2="165.72"/><line class="cls-1" x1="285.94" y1="273.7" x2="285.94" y2="256.51"/></g></svg>