<?xml version="1.0" encoding="UTF-8"?><svg id="Layer_2" xmlns="http://www.w3.org/2000/svg" viewBox="0 0 364.94 387"><defs><style>.cls-1{stroke:#457ff2;}.cls-1,.cls-2{fill:none;stroke-linecap:round;stroke-linejoin:round;stroke-width:12px;}.cls-2{stroke:#003153;}</style></defs><g id="Layer_1-2"><path class="cls-2" d="M20.89,195.35c-9.73-30.31-14.89-62.38-14.89-95.25v-46.97"/><path class="cls-2" d="M6,53.13L182.47,6l176.47,47.13h0v46.97c0,119.75-68.59,228.92-176.47,280.9"/><path class="cls-1" d="M101.21,71.54c-8.77,6.29-10.78,18.5-4.49,27.26,6.29,8.77,18.49,10.78,27.26,4.49,8.77-6.29,10.78-18.5,4.49-27.26s-18.5-10.78-27.26-4.49Z"/><path class="cls-1" d="M128.64,153.52l18.58,25.89h0l14.68,21.01,32.8,29.76,8.09,37.18c.59,8.34,8.95,13.83,16.84,11.07h0c5.48-1.92,8.96-7.32,8.44-13.1l-8.78-45.26c-.7-3.59-2.47-6.89-5.08-9.46l-25.13-24.75,46.88,4.79,33.17,38.31c4.4,5.08,11.94,5.98,17.41,2.07h0c6.25-4.47,7.28-13.34,2.24-19.13l-35.72-40.99c-3.82-4.38-9.18-7.13-14.97-7.67l-43.46-4.06-23.05-35.13c-8.31-11.59-24.49-15.28-36.32-7.32"/><path class="cls-1" d="M179.83,136.59l39.48-3.21-.02-.25.15.12,18.35-14.3c5.96-4.64,6.38-13.51.88-18.69h0c-4.27-4.03-10.79-4.48-15.58-1.09l-15.83,11.22-19.84,1.9"/><path class="cls-1" d="M133.6,117.9l-50.03,36.54,10.11,41.36c1.64,6.69,8.25,10.91,15.01,9.56h0c7.17-1.43,11.71-8.54,9.99-15.65l-6.4-26.32,29.35-17.75"/><polyline class="cls-2" points="34.57 224.09 69.96 224.09 69.96 267.5"/><polyline class="cls-2" points="69.96 267.5 113.37 267.5 113.37 310.91"/><polyline class="cls-2" points="113.37 310.91 156.78 310.91 156.78 354.32"/><line class="cls-2" x1="156.78" y1="354.32" x2="173.39" y2="354.32"/></g></svg>