<!--?xml version="1.0" encoding="UTF-8"?--><svg id="Layer_1" xmlns="http://www.w3.org/2000/svg" viewBox="0 0 1600 1600"><defs><style>.cls-1{stroke-miterlimit:10;}.cls-1,.cls-2,.cls-3,.cls-4,.cls-5{stroke-width:3.00px;}.cls-1,.cls-3{stroke:#fff;}.cls-1,.cls-5{fill:none;}.cls-2{fill:#B4CCFA;}.cls-2,.cls-3,.cls-4,.cls-5{stroke-linecap:round;stroke-linejoin:round;}.cls-2,.cls-5{stroke:#B4CCFA;}.cls-3,.cls-4,.cls-6{fill:#F6CB90;}.cls-4{stroke:#020202;}.cls-7{fill:#B4CCFA;}.cls-7,.cls-8,.cls-9,.cls-6,.cls-10{stroke-width:3.00px;}.cls-8{fill:#457FF2;}.cls-9{fill:#fff;}.cls-10{fill:#020202;}</style></defs><path class="cls-2" d="m589.9,1017.42l343.98-57.29c7.64-1.27,16.41-7.22,13.93-22.1l-74.18-433.23c-2.48-14.88-10.97-19.5-18.61-18.22l-343.98,57.29c-18.29,3.05-12.29,27.86-9.81,42.74l67.03,405.19c2.48,14.88,14.01,26.9,21.65,25.63Z"/><path class="cls-1" d="m819.72,581.64s-148.48,23.27-177.15,29.01c-28.67,5.74-75.07,12.66-75.07,12.66"/><path class="cls-1" d="m830.68,648.54s-140.96,23.08-252.28,41.31"/><path class="cls-1" d="m841.48,714.53c-148.23,20.71-138.16,24.86-252.28,41.31"/><path class="cls-1" d="m853.88,780.77s-140.96,23.08-252.28,41.31"/><path class="cls-1" d="m864.68,846.77c-148.23,20.71-138.16,24.86-252.28,41.31"/><circle id="C" class="cls-6" cx="462.56" cy="844.35" r="22.47"/><path class="cls-6" d="m534.03,798.23c8.44,14.95-25.92,42.21-58.89,64.73l-22.57-38.74c41.28-25.99,75.01-37.41,81.46-25.99Z"/><circle id="C-2" class="cls-6" cx="437.95" cy="902.19" r="28.69"/><path class="cls-6" d="m484.18,850.48c-5.4,23.93-19.12,61.11-19.12,61.11l-52.92-21.93s7.63-14.64,17.68-32.87c3.93-7.13,8.23-14.81,12.59-22.38l41.77,16.07Z"/><circle id="C-3" class="cls-6" cx="476.02" cy="1014.81" r="98.74"/><path class="cls-6" d="m570.06,1044.83l-190.16-52.62s13.12-55.27,31.32-100.44c1.84-4.56,32.85-4.13,79.13,6.46,36.51,8.35,36.47,15.87,36.47,15.87l27.67,36.8,35.87,41.52-20.3,52.4Z"/><circle id="C-4" class="cls-6" cx="493.59" cy="837.58" r="22.47"/><path class="cls-6" d="m565.06,791.46c8.44,14.95-25.92,42.21-58.89,64.73l-22.57-38.74c41.28-25.99,75.01-37.41,81.46-25.99Z"/><circle id="C-5" class="cls-6" cx="468.97" cy="895.42" r="28.69"/><path class="cls-6" d="m515.2,843.71c-5.4,23.93-19.12,61.11-19.12,61.11l-52.92-21.93s7.63-14.64,17.68-32.87c3.93-7.13,8.23-14.81,12.59-22.38l41.77,16.07Z"/><path class="cls-4" d="m449.02,871.82c3.09-5.79,7.2-13.41,11.82-21.8,3.93-7.13,8.23-14.81,12.59-22.38"/><circle class="cls-6" cx="518.28" cy="847.36" r="22.47"/><circle id="C-6" class="cls-6" cx="498.97" cy="907.18" r="28.69"/><path class="cls-6" d="m540.36,851.52c-3.22,24.31-13.54,62.58-13.54,62.58l-54.68-17.08s12.16-29.56,25.17-57.75l43.04,12.24Z"/><line class="cls-4" x1="486.34" y1="881.42" x2="497.31" y2="839.28"/><path class="cls-6" d="m613.06,948.45c-10.43,22.2-22.71,43.98-22.71,43.98l-46.95-32.81s15.47-18.56,32.91-36.21l36.75,25.04Z"/><circle id="C-7" class="cls-6" cx="565.91" cy="977.4" r="28.69"/><circle id="C-8" class="cls-6" cx="592.84" cy="938.64" r="22.47"/><path class="cls-6" d="m625.11,891.61c13.84,10.04-2.1,35.01-11.92,56.54l-35.73-25.9c11.07-12.2,35.38-39.54,47.65-30.64Z"/><circle id="C-9" class="cls-6" cx="518.28" cy="847.36" r="10.93"/><path class="cls-6" d="m539.61,754.05c7.69,2.5,10.26,15.88,9.88,33.4-.12,5.59-.54,11.59-1.19,17.8-.68,6.5-1.61,13.22-2.72,19.91-1.55,9.42-3.44,18.79-5.45,27.4l-42.83-13.27c2.07-7.61,4.26-15.1,6.52-22.28,11.69-37.23,25.34-66.35,35.8-62.96Z"/><path class="cls-4" d="m549.49,787.45c-.12,5.59-.54,11.59-1.19,17.8-.68,6.5-1.61,13.22-2.72,19.91"/><path class="cls-4" d="m497.3,839.29c2.07-7.61,4.26-15.1,6.52-22.28,2.3-7.31,4.67-14.3,7.07-20.8"/><path class="cls-6" d="m315.2,1085.06s21.49-12.26,45.3-52.9c16.04-27.38,20.66-44.53,20.66-44.53l189.59,54.95s-6.45,26.27-31.69,73.74c-32.47,61.06-65.54,92.5-65.54,92.5,0,0-34.54-6.03-84.88-45.7-61.71-48.63-73.45-78.06-73.45-78.06Z"/><circle id="C-10" class="cls-6" cx="1095.66" cy="963.14" r="99.6"/><path class="cls-6" d="m1007,1008.45l182.7-78.34s-22.27-54.63-47.8-96.59c-2.58-4.24-35.31-2.19-79.63,15.94-34.97,14.31-69.11,37.7-69.11,37.7l-3.7,28.41-13.71,40.8,31.25,52.08Z"/><path class="cls-6" d="m1068.01,807.75c9.44,19.65,28.74,49.12,28.74,49.12l41.46-29.54s-17.31-23.66-36.1-43.88l-34.1,24.3Z"/><circle id="C-11" class="cls-6" cx="1118.36" cy="843.32" r="25.5"/><circle class="cls-6" cx="1086.43" cy="797.52" r="21.07"/><circle id="C-12" class="cls-6" cx="1083.89" cy="859.28" r="28.94"/><path class="cls-6" d="m1026.46,819.32c10.88,22.22,33.01,55.51,33.01,55.51l46.82-33.86s-11.48-13.26-26.13-29.36c-5.21-5.73-10.82-11.82-16.46-17.8l-37.24,25.51Z"/><path class="cls-4" d="m1098.04,831.55c-4.64-5.25-10.9-12.27-17.87-19.94-5.21-5.73-10.82-11.82-16.46-17.8"/><circle class="cls-6" cx="1046.24" cy="808.26" r="22.67"/><circle id="C-13" class="cls-6" cx="981.41" cy="836.84" r="22.67"/><path class="cls-6" d="m909.75,843.35c2.08,17.19,32.31,17.54,72.56,16.14l-4.82-44.97c-49.07,3.56-69.33,15.7-67.74,28.84Z"/><circle id="C-14" class="cls-6" cx="1050.68" cy="868.27" r="28.94"/><path class="cls-6" d="m993.45,828.05c10.77,22.27,32.76,55.66,32.76,55.66l46.97-33.64s-10.84-12.64-24.88-28.25c-5.49-6.11-11.48-12.67-17.49-19.11l-37.36,25.34Z"/><path class="cls-4" d="m1064.89,840.53c-4.36-4.98-10.14-11.53-16.6-18.71-5.49-6.11-11.48-12.67-17.49-19.11"/><circle class="cls-6" cx="1013.28" cy="817.08" r="22.67"/><circle id="C-15" class="cls-6" cx="1022.76" cy="884.9" r="28.94"/><path class="cls-6" d="m962.51,849.34c12.51,21.35,37.07,52.89,37.07,52.89l44.16-37.26s-22.86-22.73-45.99-43.85l-35.23,28.22Z"/><line class="cls-4" x1="1033.13" y1="855.41" x2="997.74" y2="821.12"/><path class="cls-6" d="m1284.79,980.85s0,0,0,0c-.02,0-31.55-8.03-62.45-30.81-35-25.8-49.87-50.34-49.87-50.34l-157.35,122.15s15.93,27.17,56.91,72.02c46.98,51.43,81.53,63.54,81.53,63.54,0,0,47.13-4.65,85.46-56.59,46.98-63.66,45.76-119.94,45.76-119.97Z"/><path class="cls-9" d="m1142.04,894.93s17.9,2.68,20.59,7.36c2.69,4.68-2.14,14.55-4.91,14.23-7.66-.89-21.5-6.63-21.5-6.63l5.82-14.97Z"/><path class="cls-8" d="m803.58,826.68c.18-4.25,31.07-8.08,39.34-6.54,8.27,1.55,299.94,62.85,306.32,69.11,6.37,6.26-.22,26.72-5.93,29.24-5.71,2.52-188.93-39.22-224.83-48.37-35.9-9.14-71.99-18.88-82.03-21.33-9.95-2.43-33.03-18.22-32.87-22.11Z"/><path class="cls-10" d="m810.48,834.11c1.78-1.93,4.14-6.94,4.01-11.89-6.76,1.03-13.51,2.45-13.58,4.09-.05,1.19,5.77,5.09,9.57,7.79Z"/><path class="cls-4" d="m1116.85,915.7s-1.43,9.46-4.46,10.65c-3.03,1.19-39.73-9.57-51.16-12.28"/><line class="cls-3" x1="1038.79" y1="863.04" x2="1031.21" y2="895.52"/><circle id="C-16" class="cls-6" cx="972.02" cy="902.19" r="22.67"/><path class="cls-6" d="m951.17,848.56c-15.9,6.66-6.01,34.86-1.34,58.27l41.06-17.2c-8.05-14.53-25.62-46.99-39.73-41.08Z"/><path class="cls-6" d="m951.85,912.54c11.02,22.15,23.9,43.84,23.9,43.84l46.6-34.16s-7.37-8.45-17.73-19.32c-2.06-2.16-4.24-4.42-6.5-6.72-3.13-3.19-6.42-6.48-9.79-9.73l-36.48,26.09Z"/><circle id="C-17" class="cls-6" cx="1000.06" cy="940.66" r="28.94"/><path class="cls-4" d="m1022.35,922.21s-7.37-8.45-17.73-19.32c-2.06-2.16-4.24-4.42-6.5-6.72"/><path class="cls-5" d="m876.29,432.11s18.45-2.13,42.01,13.32c23.56,15.45,17.34,36.44,4.41,39.86-12.93,3.42-23.01-8.06-9.95-30.09,13.06-22.04,30.28-26.8,30.28-26.8"/><path class="cls-7" d="m460.19,523.12s-92.44.47-81.63-34.3c10.82-34.77,81.63,34.3,81.63,34.3Z"/><path class="cls-7" d="m479.46,498.1s-43.35-42.92-22.08-54.09c21.27-11.18,22.08,54.09,22.08,54.09Z"/><path class="cls-5" d="m416.9,572.98s20.9-11.37,31.88,10.45c10.98,21.82-30.14,34.25-40.26,22.41-10.12-11.84-1.38-25.11,8.38-32.86Z"/></svg>