<?xml version="1.0" encoding="UTF-8"?><svg id="Layer_2" xmlns="http://www.w3.org/2000/svg" viewBox="0 0 439.22 482"><defs><style>.cls-1{fill:#fff;fill-rule:evenodd;}</style></defs><g id="Layer_1-2"><path class="cls-1" d="M371.6,467c0,1.63-1.37,3-2.99,3H94.26c-1.62,0-2.99-1.37-2.99-3V94.25c0-1.62,1.37-2.99,2.99-2.99h274.35c1.62,0,2.99,1.37,2.99,2.99v86.37l-40.49,70.12s-.03,0-.04,0H126.42c-3.31,0-6,2.69-6,6s2.69,6,6,6h197.76l-18.16,31.45H126.42c-3.31,0-6,2.69-6,6s2.69,6,6,6h172.68l-18.16,31.45H126.42c-3.31,0-6,2.69-6,6s2.69,6,6,6h147.59l-10.93,18.92h0c-.39.69-.66,1.44-.76,2.24l-7.54,58.97c-.31,2.4.86,4.75,2.95,5.96.93.54,1.97.8,3,.8,1.29,0,2.57-.41,3.64-1.23l47.3-36.01c.64-.49,1.16-1.1,1.56-1.78h0l58.36-101.08v170.57h0ZM54.62,430.37h24.64V94.25c0-8.27,6.73-14.99,14.99-14.99h237.71v-24.64c0-1.63-1.37-3-2.99-3H54.62c-1.62,0-2.99,1.37-2.99,3v372.74c0,1.62,1.37,3,2.99,3h0ZM14.99,390.73h24.64V54.63c0-8.27,6.73-15,14.99-15h237.71V14.99c0-1.62-1.37-2.99-2.99-2.99H14.99c-1.62,0-2.99,1.37-2.99,2.99v372.75c0,1.62,1.37,2.99,2.99,2.99h0ZM273.09,381.26l-4.58,35.81,28.72-21.87-24.14-13.94h0ZM305.84,386.32l96.26-166.73-29.36-16.96-96.26,166.73,29.36,16.95h0ZM387.82,176.52c.11-.18.27-.26.39-.29.13-.03.31-.05.49.06l28.24,16.31c.3.17.41.58.24.88l-9.07,15.72-29.36-16.96,9.07-15.72h0ZM407.69,154.33l-8.25,14.29,18.77,10.84,8.25-14.29c1.57-2.73.64-6.22-2.09-7.8l-8.89-5.13c-1.31-.76-2.84-.95-4.32-.56-1.48.4-2.71,1.34-3.47,2.64h0ZM429.66,206.12l-4.44-2.57,2.36-4.08c2.29-3.97,2.17-8.67.11-12.41l9.17-15.89c4.88-8.45,1.97-19.3-6.48-24.18l-8.89-5.14c-4.08-2.36-8.85-2.98-13.43-1.75-4.57,1.23-8.4,4.15-10.75,8.23l-9.17,15.89c-1.01.02-2.02.15-3.02.42-.52.14-1.02.32-1.51.52v-70.9c0-8.27-6.73-14.99-15-14.99h-24.64v-24.64c0-8.27-6.73-15-14.99-15h-24.64V14.99c0-8.27-6.73-14.99-14.99-14.99H14.99C6.73,0,0,6.73,0,14.99v372.75c0,8.27,6.73,14.99,14.99,14.99h24.64v24.64c0,8.27,6.73,15,14.99,15h24.64v24.63c0,8.27,6.73,15,14.99,15h274.35c8.27,0,15-6.73,15-15v-191.35l35.62-61.7,4.44,2.57c1.31.76,2.25,1.98,2.64,3.46.4,1.48.2,3.02-.56,4.32l-22.43,38.85c-1.66,2.87-.67,6.54,2.2,8.2.94.55,1.98.81,2.99.81,2.07,0,4.09-1.08,5.2-3l22.43-38.85c2.36-4.09,2.98-8.86,1.76-13.43-1.23-4.58-4.15-8.4-8.24-10.75h0ZM243.27,430.53c0-3.31-2.69-6-6-6h-39.47l-10.92-20.85c-1.04-1.98-3.08-3.22-5.32-3.22s-4.28,1.24-5.32,3.22l-7.29,13.92-15.96-30.48c-1.03-1.98-3.08-3.22-5.31-3.22s-4.28,1.24-5.32,3.22l-21.27,40.63c-1.54,2.93-.4,6.56,2.53,8.1.89.46,1.84.68,2.78.68,2.16,0,4.25-1.17,5.32-3.22l15.96-30.47,15.96,30.47c1.04,1.98,3.09,3.22,5.32,3.22s4.28-1.24,5.32-3.22l7.29-13.92,7.29,13.92c1.04,1.98,3.08,3.22,5.32,3.22h43.1c3.31,0,6-2.69,6-6h0ZM120.42,213.29c0,3.31,2.69,6,6,6h210.02c3.31,0,6-2.69,6-6s-2.69-6-6-6H126.42c-3.31,0-6,2.68-6,6h0ZM132.42,136.73v27.12h198.02v-27.12h-198.02ZM126.42,175.85h210.02c3.31,0,6-2.69,6-6v-39.12c0-3.32-2.69-6-6-6H126.42c-3.31,0-6,2.69-6,6v39.12c0,3.31,2.69,6,6,6Z"/></g></svg>