<?xml version="1.0" encoding="UTF-8"?><svg id="Layer_2" xmlns="http://www.w3.org/2000/svg" viewBox="0 0 229.88 228.77"><defs><style>.cls-1{stroke:#457ff2;}.cls-1,.cls-2{fill:none;stroke-linecap:round;stroke-linejoin:round;stroke-width:6px;}.cls-2{stroke:#003153;}</style></defs><g id="Layer_1-2"><g><path class="cls-2" d="M192.6,163.24c8.59,1.86,17.14,6.16,21.48,14.51,1.83,3.52,2.64,7.34,2.87,11.28,.89,15.01-7.61,15.02-35.42,15.02s-36.31,0-35.42-15.02c.23-3.94,1.04-7.76,2.86-11.28,4.34-8.35,12.89-12.66,21.49-14.51"/><path class="cls-2" d="M181.53,169.61c6.91,0,12.52-5.57,13.83-13.83,.26-1.62,.53-3.4,.63-5.04,.61-10.12-5.48-18.78-14.45-18.78s-15.06,8.66-14.45,18.78c.1,1.64,.37,3.42,.63,5.04,1.31,8.26,6.92,13.83,13.83,13.83Z"/></g><g><path class="cls-2" d="M63.64,34.28c8.59,1.86,17.14,6.16,21.48,14.51,1.83,3.52,2.64,7.34,2.87,11.28,.89,15.01-7.61,15.02-35.42,15.02s-36.31,0-35.42-15.02c.23-3.94,1.04-7.76,2.86-11.28,4.34-8.35,12.89-12.66,21.49-14.51"/><path class="cls-2" d="M52.58,40.65c6.91,0,12.52-5.57,13.83-13.83,.26-1.62,.53-3.4,.63-5.04,.61-10.12-5.48-18.78-14.45-18.78s-15.06,8.66-14.45,18.78c.1,1.64,.37,3.42,.63,5.04,1.31,8.26,6.92,13.83,13.83,13.83Z"/></g><g><path class="cls-2" d="M223.2,89.19c7.52,28.14,3.53,58.71-11.98,84.26"/><path class="cls-2" d="M65.17,211.78c29.19,16.54,64.41,18.39,95,5.63"/><path class="cls-2" d="M10.69,129.21c-2.16-19.66,1.05-39.81,9.62-58.06"/><path class="cls-2" d="M86.73,13.58c25.44-7.76,53.18-5.97,77.56,5.41"/><path class="cls-2" d="M188.52,101.18c1.37,5.91,1.96,11.94,1.81,17.96"/><path class="cls-2" d="M93.02,184.62c17.37,6.57,36.76,6.14,53.89-1.26"/><path class="cls-2" d="M52.08,144.96c-7-16.8-7.35-35.72-1.05-52.73"/><path class="cls-2" d="M86.73,52.72c15.25-7.49,32.59-9.25,48.81-5.3"/></g><polygon class="cls-1" points="226.88 72.44 226.88 38.6 198.13 38.6 198.13 9.85 164.29 9.85 164.29 38.6 135.55 38.6 135.55 72.43 164.29 72.43 164.29 101.18 198.13 101.18 198.13 72.43 226.88 72.44"/><path class="cls-1" d="M51.04,220.2S3.23,196.73,3,165.08c-.11-15.01,12.31-27.32,26.63-27.76,8.46-.26,16.11,3.06,21.41,8.7,5.3-5.65,12.95-8.96,21.41-8.7,14.32,.44,26.74,12.75,26.63,27.76-.23,31.65-48.04,55.12-48.04,55.12Z"/></g></svg>