<svg id="visual" viewBox="0 0 960 540" width="960" height="540" xmlns="http://www.w3.org/2000/svg" xmlns:xlink="http://www.w3.org/1999/xlink" version="1.1"><rect x="0" y="0" width="960" height="540" fill="#003153"></rect><defs><linearGradient id="grad1_0" x1="43.8%" y1="0%" x2="100%" y2="100%"><stop offset="14.444444444444446%" stop-color="#003153" stop-opacity="1"></stop><stop offset="85.55555555555554%" stop-color="#003153" stop-opacity="1"></stop></linearGradient></defs><defs><linearGradient id="grad2_0" x1="0%" y1="0%" x2="56.3%" y2="100%"><stop offset="14.444444444444446%" stop-color="#003153" stop-opacity="1"></stop><stop offset="85.55555555555554%" stop-color="#003153" stop-opacity="1"></stop></linearGradient></defs><g transform="translate(960, 0)"><path d="M0 324C-27 325.8 -54 327.6 -70.5 309.1C-87.1 290.5 -93.1 251.6 -118 245.1C-142.9 238.5 -186.6 264.2 -202 253.3C-217.5 242.5 -204.6 195 -210.3 167.7C-216 140.4 -240.1 133.2 -242.4 116.7C-244.6 100.3 -225 74.6 -235 53.6C-244.9 32.6 -284.5 16.3 -324 0L0 0Z" fill="#6A99F4"></path></g><g transform="translate(0, 540)"><path d="M0 -324C21.4 -305.8 42.7 -287.5 63.9 -279.8C85 -272.1 106 -274.8 132.8 -275.7C159.6 -276.6 192.2 -275.7 202 -253.3C211.8 -231 198.9 -187.2 201.7 -160.9C204.5 -134.5 223.1 -125.4 229.7 -110.6C236.4 -95.8 231 -75.3 244.7 -55.9C258.4 -36.5 291.2 -18.2 324 0L0 0Z" fill="#6A99F4"></path></g></svg>