<?xml version="1.0" encoding="UTF-8"?><svg id="Layer_2" xmlns="http://www.w3.org/2000/svg" viewBox="0 0 254.09 173.85"><defs><style>.cls-1{stroke:#457ff2;}.cls-1,.cls-2{fill:none;stroke-linecap:round;stroke-linejoin:round;stroke-width:6px;}.cls-2{stroke:#003153;}</style></defs><g id="Layer_1-2"><path class="cls-1" d="M127.05,136.23c37.67-19.89,39.46-22.6,39.46-68.64,0-4.36-.21-8.64-.61-12.79-24.72,5.78-38.85-12.96-38.85-12.96,0,0-14.13,18.74-38.85,12.96-.4,4.15-.61,8.43-.61,12.79,0,46.04,1.79,48.74,39.46,68.64Z"/><polyline class="cls-1" points="113.73 88.59 124.65 99.51 143.62 80.55"/><circle class="cls-2" cx="15.7" cy="86.93" r="12.7" transform="translate(-72.62 88.5) rotate(-80.78)"/><circle class="cls-2" cx="24.5" cy="15.7" r="12.7" transform="translate(-3.92 21.92) rotate(-45)"/><line class="cls-2" x1="28.4" y1="86.93" x2="52.6" y2="86.93"/><path class="cls-2" d="M37.2,15.7h7.68c4.66,0,9.13,1.85,12.43,5.15l4.88,4.88"/><circle class="cls-2" cx="24.5" cy="158.16" r="12.7" transform="translate(-135.54 157.01) rotate(-80.78)"/><path class="cls-2" d="M37.2,158.16h7.68c4.66,0,9.13-1.85,12.43-5.15l28.27-28.27"/><circle class="cls-2" cx="238.4" cy="86.93" r="12.7" transform="translate(66.86 273.91) rotate(-67.5)"/><circle class="cls-2" cx="229.59" cy="15.7" r="12.7" transform="translate(161.57 235.54) rotate(-76.72)"/><line class="cls-2" x1="225.7" y1="86.93" x2="182.88" y2="86.93"/><path class="cls-2" d="M216.89,15.7h-7.68c-4.66,0-9.13,1.85-12.43,5.15l-15.3,15.3"/><circle class="cls-2" cx="229.59" cy="158.16" r="12.7" transform="translate(-4.38 309.75) rotate(-67.5)"/><path class="cls-2" d="M216.89,158.16h-7.68c-4.66,0-9.13-1.85-12.43-5.15l-4.67-4.67"/><path class="cls-2" d="M198.43,108.14c-9.14,30.78-37.64,53.23-71.38,53.23-21.49,0-40.85-9.1-54.44-23.66"/><path class="cls-2" d="M119.44,12.86c2.5-.25,5.04-.38,7.61-.38,41.12,0,74.45,33.33,74.45,74.45"/><path class="cls-2" d="M62.91,124.74c-6.55-11.08-10.31-24.01-10.31-37.82,0-30.84,18.75-57.3,45.47-68.6"/></g></svg>