<?xml version="1.0" encoding="UTF-8"?><svg id="Layer_2" xmlns="http://www.w3.org/2000/svg" viewBox="0 0 214.61 226.45"><defs><style>.cls-1{stroke:#457ff2;}.cls-1,.cls-2{fill:none;stroke-linecap:round;stroke-linejoin:round;stroke-width:6px;}.cls-2{stroke:#003153;}</style></defs><g id="Layer_1-2"><g><g><path class="cls-1" d="M71.59,159.1c-.62-2.12-.8-4.71-.61-7.91,.26-4.5,1.18-8.87,3.28-12.9,4.96-9.56,14.75-14.49,24.59-16.61"/><path class="cls-1" d="M124.18,121.68c9.83,2.12,19.62,7.05,24.59,16.61,2.1,4.03,3.02,8.4,3.28,12.9,.19,3.2,.01,5.79-.61,7.91"/><path class="cls-1" d="M111.52,128.97c7.9,0,14.33-6.37,15.83-15.83,.29-1.85,.6-3.89,.72-5.77,.7-11.58-6.27-21.5-16.54-21.5s-17.24,9.91-16.54,21.5c.11,1.87,.42,3.91,.72,5.77,1.5,9.45,7.92,15.83,15.83,15.83Z"/></g><g><path class="cls-2" d="M171.02,98.69c.34,4.76,.52,9.61,.52,14.53,0,60.88-26.87,110.23-60.02,110.23s-60.01-49.35-60.01-110.23S78.37,3,111.51,3c5.45,0,10.73,1.34,15.75,3.84"/><path class="cls-2" d="M142.59,18.89c12.36,13.75,21.79,35.47,26.2,61.27"/><circle class="cls-2" cx="135.02" cy="12.75" r="9.75" transform="translate(5.4 52.64) rotate(-22.5)"/><path class="cls-2" d="M94.88,184.58c-35.88,9.25-67.16,3.96-78.82-16.24-2.72-4.72-4.21-9.96-4.55-15.56"/><path class="cls-2" d="M54.24,80.16c8.15-6.76,17.28-13.15,27.26-18.91,52.72-30.44,108.9-31.84,125.47-3.13,16.57,28.7-12.74,76.65-65.45,107.09-9.88,5.71-19.89,10.39-29.73,14.05"/><path class="cls-2" d="M14.29,133.48c4.47-13.7,14-28.27,27.53-41.95"/><path class="cls-2" d="M7.88,134.67c4.66-2.69,10.62-1.09,13.32,3.57,2.69,4.66,1.09,10.62-3.57,13.32-4.66,2.69-10.62,1.09-13.32-3.57-2.69-4.66-1.09-10.62,3.57-13.32Z"/><path class="cls-2" d="M177.67,187.3c-25.41,5.37-61.53-2.1-96.16-22.09C28.79,134.77-.51,86.82,16.06,58.11c16.57-28.7,72.75-27.3,125.47,3.14,52.72,30.44,82.02,78.38,65.45,107.08-2.72,4.72-6.53,8.62-11.2,11.72"/><path class="cls-2" d="M181.91,192.26c-4.66-2.69-6.26-8.65-3.57-13.32,2.69-4.66,8.65-6.26,13.32-3.57,4.66,2.69,6.26,8.65,3.57,13.32-2.69,4.66-8.65,6.26-13.32,3.57Z"/></g></g></g></svg>