<?xml version="1.0" encoding="UTF-8"?><svg id="Layer_2" xmlns="http://www.w3.org/2000/svg" viewBox="0 0 243.29 225.02"><defs><style>.cls-1{stroke:#457ff2;}.cls-1,.cls-2{fill:none;stroke-linecap:round;stroke-linejoin:round;stroke-width:6px;}.cls-2{stroke:#003153;}</style></defs><g id="Layer_1-2"><g><g><path class="cls-2" d="M192.49,222.02c45.63-24.09,47.8-27.38,47.8-83.14,0-5.29-.25-10.46-.74-15.5-29.95,7-47.06-15.7-47.06-15.7,0,0-17.11,22.7-47.06,15.7-.48,5.03-.74,10.21-.74,15.5,0,55.76,2.17,59.04,47.8,83.14Z"/><polygon class="cls-1" points="217.83 174.06 217.83 157.19 200.92 157.19 200.92 140.29 184.06 140.29 184.06 157.19 167.15 157.19 167.15 174.06 184.06 174.06 184.06 190.96 200.92 190.96 200.92 174.06 217.83 174.06"/></g><g><path class="cls-2" d="M208.5,42.57h-30.21c-4.84,0-8.76-3.92-8.76-8.76v-10.5"/><path class="cls-2" d="M53.49,16.28V3h113.26c1.78,0,3.5,.7,4.76,1.97l35.64,35.63c1.25,1.26,1.97,2.97,1.97,4.76V120.46"/><polyline class="cls-2" points="53.49 125.56 53.49 212.38 149.58 212.38"/></g><g><g><path class="cls-1" d="M16.55,111.78c-.03-.85,0-1.72,.05-2.6,.22-3.7,.97-7.29,2.7-10.6,4.07-7.84,12.11-11.89,20.19-13.63"/><path class="cls-1" d="M60.27,84.96c8.08,1.74,16.11,5.79,20.19,13.63,1.72,3.31,2.48,6.9,2.7,10.6,.06,.88,.07,1.74,.05,2.6"/><path class="cls-1" d="M49.88,90.94c6.49,0,11.76-5.23,12.99-12.99,.24-1.52,.49-3.2,.59-4.74,.58-9.51-5.15-17.65-13.58-17.65s-14.16,8.14-13.58,17.65c.09,1.54,.35,3.21,.59,4.74,1.23,7.76,6.5,12.99,12.99,12.99Z"/></g><path class="cls-2" d="M3.2,83.13c-.13-1.42-.2-2.86-.2-4.31,0-25.89,20.99-46.88,46.88-46.88s46.88,20.99,46.88,46.88-20.99,46.88-46.88,46.88c-19.08,0-35.5-11.4-42.82-27.76"/></g><line class="cls-2" x1="120.54" y1="73.73" x2="149.06" y2="73.73"/><line class="cls-2" x1="90.67" y1="182.81" x2="107.85" y2="182.81"/><line class="cls-2" x1="109.26" y1="57.86" x2="163.34" y2="57.86"/></g></g></svg>