<?xml version="1.0" encoding="UTF-8"?><svg id="Layer_2" xmlns="http://www.w3.org/2000/svg" viewBox="0 0 146.1 152.21"><defs><style>.cls-1{fill:none;stroke:#fff;stroke-linecap:round;stroke-linejoin:round;stroke-width:4.03px;}</style></defs><g id="Layer_1-2"><g><line class="cls-1" x1="72.9" y1="18.38" x2="72.9" y2="127.73"/><line class="cls-1" x1="113.21" y1="150.19" x2="32.6" y2="150.19"/><line class="cls-1" x1="104.32" y1="137.77" x2="41.48" y2="137.77"/><path class="cls-1" d="M81.08,10.2c0,4.52-3.66,8.18-8.18,8.18s-8.18-3.66-8.18-8.18,3.66-8.18,8.18-8.18"/><path class="cls-1" d="M71.12,28.92c24.38-2.99,37.24,8.97,48.51,7.59,3.77-.46,6.42-2.17,7.83-4.28"/><path class="cls-1" d="M50.51,100.08c0,12.36-10.86,22.39-24.25,22.39S2.01,112.44,2.01,100.08H50.51Z"/><polyline class="cls-1" points="9.19 92.2 26.26 57.6 47.07 99.75"/><path class="cls-1" d="M144.09,88.53c0,12.36-10.86,22.39-24.25,22.39s-24.25-10.02-24.25-22.39h48.5Z"/><polyline class="cls-1" points="102.76 80.65 119.84 46.04 140.64 88.2"/><path class="cls-1" d="M71.12,28.92c-24.38,2.99-33.98,17.69-45.25,19.07-3.77,.46-6.75-.56-8.63-2.27"/></g></g></svg>