<?xml version="1.0" encoding="UTF-8"?><svg id="Layer_2" xmlns="http://www.w3.org/2000/svg" viewBox="0 0 132.94 161.04"><defs><style>.cls-1{stroke:#003153;}.cls-1,.cls-2{fill:none;stroke-linecap:round;stroke-linejoin:round;stroke-width:4.03px;}.cls-2{stroke:#457ff2;}</style></defs><g id="Layer_1-2"><path class="cls-2" d="M99.76,159.03c20.96-9.47,31.16-24.42,31.16-38.96v-18.45c-12.51-.31-23.65-5.13-31.16-15.54-7.52,10.4-18.66,15.22-31.16,15.54,0,0,0,3.92,0,18.45s10.21,29.49,31.16,38.96"/><path class="cls-1" d="M58.2,18.32c0,.37-.3.67-.67.67s-.67-.3-.67-.67.3-.67.67-.67.67.3.67.67Z"/><path class="cls-1" d="M114.16,82.77l-.3-49.82c0-4.11-3.33-7.45-7.45-7.45h-7.47"/><path class="cls-1" d="M16.93,25.5h-7.47c-4.11,0-7.45,3.33-7.45,7.45v112.57c0,4.11,3.33,7.45,7.45,7.45h61.76"/><path class="cls-1" d="M41.72,17.82c0-8.73,7.08-15.8,15.8-15.8s15.8,7.08,15.8,15.8h12.29c1.38,0,2.5,1.12,2.5,2.5v13.24c0,1.38-1.12,2.5-2.5,2.5H29.43c-1.38,0-2.5-1.12-2.5-2.5v-13.24c0-1.38,1.12-2.5,2.5-2.5h12.29Z"/><line class="cls-1" x1="94.16" y1="58.06" x2="22.01" y2="58.06"/><line class="cls-1" x1="76.16" y1="81.67" x2="22.01" y2="81.67"/><line class="cls-1" x1="51.16" y1="105.28" x2="22.01" y2="105.28"/><line class="cls-1" x1="51.16" y1="128.89" x2="22.01" y2="128.89"/><line class="cls-2" x1="99.76" y1="112.14" x2="99.76" y2="137.09"/><line class="cls-2" x1="87.28" y1="124.61" x2="112.24" y2="124.61"/></g></svg>