<?xml version="1.0" encoding="UTF-8"?><svg id="Layer_2" xmlns="http://www.w3.org/2000/svg" viewBox="0 0 161.6 149.74"><defs><style>.cls-1{fill:none;stroke:#f9f9f9;stroke-linecap:round;stroke-linejoin:round;stroke-width:4.03px;}</style></defs><g id="Layer_1-2"><g><g><line class="cls-1" x1="90.39" y1="65.16" x2="24.65" y2="65.16"/><line class="cls-1" x1="90.39" y1="92.5" x2="24.65" y2="92.5"/><line class="cls-1" x1="90.39" y1="37.81" x2="55.7" y2="37.81"/><line class="cls-1" x1="90.39" y1="119.84" x2="24.65" y2="119.84"/></g><g><path class="cls-1" d="M129.54,113.66l-.02-76.57c0-1.57,1.27-2.83,2.83-2.83h16.62s.02,79.42,.02,79.42h-10.45"/><path class="cls-1" d="M147.97,34.27h2.07c5.27,0,9.54,4.27,9.54,9.53v27.28"/><path class="cls-1" d="M129.54,113.66l7.33,17.76c.88,2.14,3.91,2.14,4.79,0l7.33-17.75"/><path class="cls-1" d="M132.73,26.39v-6.46c0-1.53,1.25-2.78,2.78-2.78h7.48c1.53,0,2.78,1.24,2.78,2.78v6.46"/></g><path class="cls-1" d="M3.49,35.54c-.95,.95-1.48,2.23-1.48,3.57l.07,100.87c0,4.28,3.48,7.75,7.76,7.75l95.42-.06c4.28,0,7.75-3.48,7.75-7.76v-28.22s-.91-62.72-.91-62.72V9.77c0-4.28-3.48-7.75-7.77-7.75H39.42c-1.54,0-3.03,.61-4.12,1.71L3.49,35.54Z"/><path class="cls-1" d="M2.41,37.81H34.89c2.29,0,4.15-1.86,4.15-4.15V13.96"/></g></g></svg>