<?xml version="1.0" encoding="UTF-8"?><svg id="Layer_2" xmlns="http://www.w3.org/2000/svg" viewBox="0 0 195.31 140.56"><defs><style>.cls-1{fill:none;stroke:#fafdff;stroke-linecap:round;stroke-linejoin:round;stroke-width:4.03px;}</style></defs><g id="Layer_1-2"><g><path class="cls-1" d="M64.64,114.37l5.17-5.57c3.15-3.39,8.59-3.46,12.16-.15h0c3.57,3.31,3.91,8.74,.77,12.14l-5.17,5.57c-3.15,3.39-8.59,3.46-12.16,.15h0c-3.57-3.31-3.91-8.74-.77-12.14Z"/><path class="cls-1" d="M51.14,102.99l7.33-7.9c3.31-3.57,8.89-3.78,12.46-.47h0c3.57,3.31,3.78,8.89,.47,12.46l-7.33,7.9c-3.31,3.57-8.89,3.78-12.46,.47h0c-3.57-3.31-3.78-8.89-.47-12.46Z"/><path class="cls-1" d="M37.24,92.04l10.47-11.29c3.31-3.57,8.89-3.78,12.46-.47h0c3.57,3.31,3.78,8.89,.47,12.46l-10.47,11.29c-3.31,3.57-8.89,3.78-12.46,.47h0c-3.57-3.31-3.78-8.89-.47-12.46Z"/><path class="cls-1" d="M27.12,77.07l7.33-7.9c3.31-3.57,8.89-3.78,12.46-.47h0c3.57,3.31,3.78,8.89,.47,12.46l-7.33,7.9c-3.31,3.57-8.89,3.78-12.46,.47h0c-3.57-3.31-3.78-8.89-.47-12.46Z"/><path class="cls-1" d="M119.87,80.94l22.59,22.59c3.93,3.93,3.89,10.34-.1,14.33h0c-3.98,3.98-10.4,4.03-14.33,.1l-15.5-15.5"/><path class="cls-1" d="M108.51,98.43l14.82,14.82c3.93,3.93,3.89,10.34-.1,14.33h0c-3.98,3.98-10.4,4.03-14.33,.1l-6.47-6.47"/><path class="cls-1" d="M96.48,115.24l5.96,5.96c3.93,3.93,3.89,10.34-.1,14.33h0c-3.98,3.98-10.4,4.03-14.33,.1l-4.43-4.43"/><path class="cls-1" d="M132.58,24.35c-8.06,.97-19.27-.61-26.53-.92-4.47-.19-8.92,.81-12.91,2.89l-20.94,10.92c-4.77,2.49-6.63,8.38-4.13,13.08h0c2.36,4.42,7.75,6.21,12.35,4.1l16.04-7.34c9.25-3.98,14.68-3.14,28.62,10.23l33.57,33.57c3.93,3.93,3.89,10.34-.1,14.33h0c-3.98,3.98-10.4,4.03-14.33,.1l-23.79-23.79"/><line class="cls-1" x1="54.36" y1="21.63" x2="71.67" y2="28.32"/><line class="cls-1" x1="30" y1="73.95" x2="24.51" y2="63.88"/><path class="cls-1" d="M172.61,53.44h0c-1.96,8.78-6.38,16.81-12.74,23.17l-1.86,1.86"/><polygon class="cls-1" points="179.25 28.31 152.97 2.04 137.31 17.7 177.63 58.02 193.29 42.36 179.25 28.31"/><polygon class="cls-1" points="30 14.34 2.01 42.33 17.67 57.99 57.99 17.67 42.33 2.01 30 14.34"/></g></g></svg>