<?xml version="1.0" encoding="UTF-8"?><svg id="Layer_2" xmlns="http://www.w3.org/2000/svg" viewBox="0 0 159.63 165.06"><defs><style>.cls-1{fill:none;stroke:#fff;stroke-linecap:round;stroke-linejoin:round;stroke-width:4.03px;}</style></defs><g id="Layer_1-2"><g><path class="cls-1" d="M72.8,47.57c1.06,2.15,3.47,4.73,8.99,4.73,9.45,0,9.6-5.33,9.6-6.59s.13-6.78-9.6-8.03c-9.73-1.26-8.97-6.14-8.97-7.18s.28-6.69,8.97-6.69c5.06,0,7.25,2.06,8.2,3.79"/><line class="cls-1" x1="81.79" y1="52.31" x2="81.79" y2="57.53"/><line class="cls-1" x1="81.79" y1="18.66" x2="81.79" y2="23.82"/><ellipse class="cls-1" cx="81.79" cy="37.69" rx="35.72" ry="35.67"/><path class="cls-1" d="M33.38,160.57L3.19,122.09c-1.88-2.39-1.46-5.85,.93-7.73l16.08-12.63,37.61,47.86-15.37,12.08c-2.8,2.2-6.86,1.71-9.06-1.09Z"/><path class="cls-1" d="M55.41,145.05l50.88-4.11c7.32-.82,8.78-1.86,13.72-6.64l36.19-38.84c2.01-2.15,1.89-5.53-.27-7.53h0c-5-4.66-12.74-4.71-17.8-.11l-16.09,14.64-1.36,1.23"/><path class="cls-1" d="M71.99,120.98l34.75-2.58c3.74-.28,6.59-3.46,6.46-7.21h0c-.2-5.71-4.95-10.21-10.66-10.1l-25.39,.47s-9.04-10.82-27.58-9.35c-7.54,.6-12.8,2.75-17.42,6.13-.8,.59-1.58,1.21-2.35,1.87"/><path class="cls-1" d="M40.47,147.46c0,.58-.47,1.05-1.05,1.05s-1.05-.47-1.05-1.05,.47-1.05,1.05-1.05,1.05,.47,1.05,1.05Z"/></g></g></svg>