<svg xmlns="http://www.w3.org/2000/svg" version="1.1" xmlns:xlink="http://www.w3.org/1999/xlink" xmlns:svgjs="http://svgjs.dev/svgjs" viewBox="0 0 800 800"><defs><linearGradient x1="50%" y1="0%" x2="50%" y2="100%" id="nnneon-grad"><stop stop-color="#457ff2" stop-opacity="1" offset="0%"/><stop stop-color="#d9e5fc" stop-opacity="1" offset="100%"/></linearGradient><filter id="nnneon-filter" x="-100%" y="-100%" width="400%" height="400%" filterUnits="objectBoundingBox" primitiveUnits="userSpaceOnUse" color-interpolation-filters="sRGB"><feGaussianBlur stdDeviation="17 8" x="0%" y="0%" width="100%" height="100%" in="SourceGraphic" edgeMode="none" result="blur"/></filter><filter id="nnneon-filter2" x="-100%" y="-100%" width="400%" height="400%" filterUnits="objectBoundingBox" primitiveUnits="userSpaceOnUse" color-interpolation-filters="sRGB"><feGaussianBlur stdDeviation="10 17" x="0%" y="0%" width="100%" height="100%" in="SourceGraphic" edgeMode="none" result="blur"/></filter></defs><g stroke-width="11.5" stroke="url(#nnneon-grad)" fill="none" transform="rotate(39, 400, 400)"><path d="M393.2312376818937 309.8213703478417C396.00429151601804 304.2178683191918 403.9957010129417 304.2178683191918 406.768754847066 309.8213703478417L492.7069920915776 483.4800907651147C495.1908085568376 488.4990765444149 491.5387147818307 494.381243296592 485.93898869794407 494.381243296592H314.0610038310156C308.461277747129 494.381243296592 304.8091839721221 488.4990765444149 307.29300043738215 483.4800907651147L393.2312376818937 309.8213703478417Z " filter="url(#nnneon-filter)"/><path d="M405.2312376818937 309.8213703478417C408.00429151601804 304.2178683191918 415.9957010129417 304.2178683191918 418.768754847066 309.8213703478417L504.7069920915776 483.4800907651147C507.1908085568376 488.4990765444149 503.5387147818307 494.381243296592 497.93898869794407 494.381243296592H326.0610038310156C320.461277747129 494.381243296592 316.8091839721221 488.4990765444149 319.29300043738215 483.4800907651147L405.2312376818937 309.8213703478417Z " filter="url(#nnneon-filter2)" opacity="0.25"/><path d="M381.2312376818937 309.8213703478417C384.00429151601804 304.2178683191918 391.9957010129417 304.2178683191918 394.768754847066 309.8213703478417L480.7069920915776 483.4800907651147C483.1908085568376 488.4990765444149 479.5387147818307 494.381243296592 473.93898869794407 494.381243296592H302.0610038310156C296.461277747129 494.381243296592 292.8091839721221 488.4990765444149 295.29300043738215 483.4800907651147L381.2312376818937 309.8213703478417Z " filter="url(#nnneon-filter2)" opacity="0.25"/><path d="M393.2312376818937 309.8213703478417C396.00429151601804 304.2178683191918 403.9957010129417 304.2178683191918 406.768754847066 309.8213703478417L492.7069920915776 483.4800907651147C495.1908085568376 488.4990765444149 491.5387147818307 494.381243296592 485.93898869794407 494.381243296592H314.0610038310156C308.461277747129 494.381243296592 304.8091839721221 488.4990765444149 307.29300043738215 483.4800907651147L393.2312376818937 309.8213703478417Z "/></g></svg>