<?xml version="1.0" encoding="UTF-8"?><svg id="Layer_2" xmlns="http://www.w3.org/2000/svg" viewBox="0 0 341.49 394.24"><defs><style>.cls-1{stroke:#457ff2;}.cls-1,.cls-2{fill:none;stroke-linecap:round;stroke-linejoin:round;stroke-width:12px;}.cls-2{stroke:#003153;}</style></defs><g id="Layer_1-2"><path class="cls-1" d="M187.37,250.64l74.06-19.78,74.06,19.78h0v19.71c0,50.25-28.78,96.07-74.06,117.88h0c-45.28-21.81-74.06-67.63-74.06-117.88v-19.71"/><polyline class="cls-1" points="231.25 306.98 253.44 329.16 303.53 279.08"/><path class="cls-2" d="M161.82,16.14h0c0-5.6-4.54-10.14-10.14-10.14h-35.93c-5.6,0-10.14,4.54-10.14,10.14h0s-8.8,0-8.8,0c-7.68,0-13.91,6.23-13.91,13.91h0c0,7.68,6.23,13.91,13.91,13.91h73.81c7.68,0,13.91-6.23,13.91-13.91h0c0-7.68-6.23-13.91-13.91-13.91h-8.8Z"/><line class="cls-2" x1="125.24" y1="26.51" x2="142.18" y2="26.51"/><polyline class="cls-2" points="196.28 360.09 6 360.09 6 30.05 60.05 30.05"/><polyline class="cls-2" points="208.31 30.05 261.43 30.05 261.43 209.61"/><line class="cls-2" x1="44.72" y1="146.29" x2="222.71" y2="146.29"/><line class="cls-2" x1="44.72" y1="172.31" x2="194.86" y2="172.31"/><line class="cls-2" x1="44.72" y1="214.91" x2="222.71" y2="214.91"/><line class="cls-2" x1="44.72" y1="240.93" x2="155.68" y2="240.93"/><line class="cls-2" x1="44.72" y1="283.53" x2="158.24" y2="283.53"/><line class="cls-2" x1="44.72" y1="309.55" x2="165.06" y2="309.55"/><line class="cls-2" x1="62.93" y1="101.93" x2="204.49" y2="101.93"/></g></svg>