<?xml version="1.0" encoding="UTF-8"?><svg id="Layer_2" xmlns="http://www.w3.org/2000/svg" viewBox="0 0 195.29 252.11"><defs><style>.cls-1{fill:#003153;}.cls-2{fill:#457ff2;}</style></defs><g id="Layer_1-2"><path class="cls-1" d="M108.45,52.09c-3.24-6.82-7.57-12.99-11.23-19.57-1.37-2.46-3.09-5.24-3.44-8.08-.1-.83-.26-1.87.24-2.63-.89,1.33.13,1.05,1.82,1.6,12.22,3.96,20.46-4.13,24.79-14.72.99-2.43,1.07-2.75,3.87-2.39,3.27.42,6.57,1.55,9.6,2.79,3.98,1.62,7.73,3.82,11.49,5.89,3.01,1.65,6.51,3.34,8.86,5.89,4.18,4.55-.18,8.5-3.07,12.51-4.35,6.05-8.88,11.95-12.88,18.24-2.08,3.27,3.11,6.28,5.18,3.03,3.75-5.9,7.97-11.48,12.08-17.14,2.39-3.29,6.1-7.29,6.65-11.49.66-5.05-2.99-9.14-6.75-11.91-5.93-4.37-13.14-8.09-19.98-10.8-4.24-1.68-10.86-4.34-15.56-2.86-3.57,1.13-4.53,4.78-5.74,7.89-2.73,6.98-8.75,11.8-16.44,9.47-3.59-1.09-7.05-2.77-9.3,1.33-2.55,4.64.23,10.42,2.41,14.62,3.78,7.29,8.66,13.94,12.2,21.37,1.66,3.48,6.83.44,5.18-3.03h0Z"/><path class="cls-1" d="M154.32,123.08c7.56,12.58,15.19,25.13,22.48,37.87,5.83,10.19,13.21,20.65,12.45,32.9-1.18,19.04-16.22,37.77-32.35,46.91-10.27,5.82-22.53,5.27-34.02,5.35s-24.82,1.11-35.29-4.02c-16.49-8.08-30.97-25.59-34.52-43.74-2.43-12.44,3.04-21.58,9.18-31.95,8.17-13.78,16.75-27.32,25.29-40.87,2.06-3.28-3.13-6.29-5.18-3.03-8.54,13.56-17.12,27.09-25.29,40.87-5.86,9.88-11.51,19.13-10.56,31.04,1.62,20.29,16.36,39.49,33.17,50.11,9.92,6.27,19.94,6.99,31.48,7.42,8.46.31,16.93.22,25.38-.28,5.7-.34,11.35-.53,16.73-2.58,18.78-7.14,34.86-26.15,40.26-45.29,1.57-5.56,2.2-11.41,1.43-17.15-.94-7.05-4.32-13.15-7.7-19.29-8.81-16.02-18.36-31.62-27.77-47.29-1.99-3.31-7.18-.29-5.18,3.03h0Z"/><path class="cls-1" d="M29.92,48.58h9.52c4.43,0,9.22-.82,9.95,5.07.54,4.45,0,9.3,0,13.77,0,14.22.91,28.76,0,42.95-.32,5.02-3.69,5.42-7.68,5.42h-11.79c-3.86,0-3.87,6,0,6,7.02,0,18.35,2.31,23.18-4.18,3.6-4.83,2.29-12.89,2.29-18.55v-30.33c0-5.69,1.15-12.86-.48-18.44-3.06-10.48-16.73-7.71-24.99-7.71-3.86,0-3.87,6,0,6h0Z"/><path class="cls-1" d="M2.9,36.18h13.02c5.65,0,10.64.73,11.01,7.9.32,6.29,0,12.68,0,18.97,0,18.81.65,37.74,0,56.53-.07,2.08-.31,4.13-1.56,5.89-1.99,2.81-4.84,2.71-7.82,2.71H2.9c-3.86,0-3.87,6,0,6,9.66,0,24.23,3.04,28.87-8.08,2.7-6.46,1.15-15.89,1.15-22.64,0-19.77.85-39.74,0-59.5-.34-7.91-5.53-13.61-13.49-13.79-5.5-.13-11.03,0-16.53,0-3.86,0-3.87,6,0,6h0Z"/><path class="cls-1" d="M93.39,56.6h45.47c5.04,0,13-1.45,17.79.79,7.58,3.54,4.34,14.37,3.59,20.83-1.1,9.44-2.2,18.88-3.3,28.33-.91,7.84-.79,17.33-10.84,19.16-5.97,1.09-12.73.23-18.76.23h-27.97c-2.87,0-6.19.44-8.75-1.08-3.56-2.11-6.7-5.71-9.83-8.41-4.4-3.8-8.76-7.16-14.67-8.27-4.47-.84-9.2-.47-13.72-.47-3.86,0-3.87,6,0,6,4.67,0,9.86-.57,14.39.77,5.02,1.48,8.72,5.31,12.58,8.64,3.05,2.63,6.33,6.32,10.13,7.86,2.65,1.07,5.34.96,8.13.96h28.78c6.72,0,14.26.95,20.92-.34,10.07-1.94,13.9-10.27,14.96-19.36l3.39-29.14c.74-6.35,2.96-14.25,1.7-20.66-1.93-9.8-10.6-11.84-19.06-11.84h-54.92c-3.86,0-3.87,6,0,6h0Z"/><path class="cls-1" d="M52.39,58.31c6.36,0,13.04.78,18.37-3.43,3.46-2.74,6.01-6.81,9.12-9.96,4.38-4.44,9.22-8.27,14.67-11.31,3.37-1.88.35-7.06-3.03-5.18-8.44,4.71-15.44,11.27-21.63,18.64-2.89,3.44-5.57,5.13-10.12,5.24-2.46.06-4.93,0-7.39,0-3.86,0-3.87,6,0,6h0Z"/><path class="cls-1" d="M39.36,59.66v.07c.03-.27.07-.53.1-.8-.01.07-.03.12-.05.18l.3-.72s-.04.07-.06.11l.47-.61c-.04.05-.08.09-.13.13l.61-.47s-.07.05-.11.06l.72-.3c-.06.02-.12.04-.18.05l.8-.11s-.09,0-.13,0l.8.11c-.07-.01-.12-.03-.18-.05l.72.3s-.07-.04-.11-.06l.61.47c-.05-.04-.09-.08-.13-.13l.47.61s-.05-.07-.06-.11l.3.72c-.02-.06-.04-.12-.05-.18l.11.8s0-.09,0-.13l-.11.8c.01-.07.03-.12.05-.18l-.3.72s.04-.07.06-.11l-.47.61c.04-.05.08-.09.13-.13l-.61.47s.07-.05.11-.06l-.72.3c.06-.02.12-.04.18-.05l-.8.11s.09,0,.13,0l-.8-.11c.07.01.12.03.18.05l-.72-.3s.07.04.11.06l-.61-.47c.05.04.09.08.13.13l-.47-.61s.05.07.06.11l-.3-.72c.02.06.04.12.05.18l-.11-.8v.07c.05.79.31,1.55.88,2.12.52.52,1.37.91,2.12.88s1.58-.29,2.12-.88.92-1.33.88-2.12c-.05-.96-.36-1.85-1.06-2.55s-1.6-1.06-2.55-1.06-1.88.39-2.55,1.06-1.02,1.59-1.06,2.55c-.06,1.95,1.67,3.58,3.57,3.6.28,0,.62-.05.9-.11.07-.01.12-.03.18-.05.56-.19,1.06-.44,1.48-.87.71-.72,1.02-1.58,1.08-2.57.04-.74-.36-1.61-.88-2.12s-1.37-.91-2.12-.88-1.58.29-2.12.88-.83,1.3-.88,2.12Z"/><path class="cls-2" d="M135.71,162.43c-7.06-5.97-17.21-10.86-25.32-3.79-4.85,4.23-6.84,11.44-3.57,17.27,5.35,9.54,32.2,10.37,26.6,24.98-4.27,11.15-17.59,8.64-25.99,4.44-3.44-1.72-6.49,3.45-3.03,5.18,8.37,4.18,18.73,7.08,27.21,1.53,4.68-3.06,8.32-8.34,8.26-14.06-.09-7.53-4.68-12.85-11.22-16.01-4.98-2.41-14.2-3.82-16.79-9.38-1.5-3.22-.31-6.87,2.18-9.19,5.5-5.12,12.73-.72,17.43,3.25,2.93,2.48,7.2-1.74,4.24-4.24h0Z"/><path class="cls-2" d="M118.4,149.78v8.27c0,3.86,6,3.87,6,0v-8.27c0-3.86-6-3.87-6,0h0Z"/><path class="cls-2" d="M118.4,212.63v8.27c0,3.86,6,3.87,6,0v-8.27c0-3.86-6-3.87-6,0h0Z"/></g></svg>