<?xml version="1.0" encoding="UTF-8"?><svg id="Layer_2" xmlns="http://www.w3.org/2000/svg" viewBox="0 0 171.46 198.31"><defs><style>.cls-1{stroke:#003153;}.cls-1,.cls-2{fill:none;stroke-linecap:round;stroke-linejoin:round;stroke-width:5.64px;}.cls-2{stroke:#457ff2;}</style></defs><g id="Layer_1-2"><rect class="cls-1" x="18.74" y="140.19" width="23.87" height="54.9" transform="translate(170.89 264.49) rotate(135)"/><path class="cls-1" d="M54.42,174.51l4.07-4.24h52.97c2.49,0,4.9-.91,6.77-2.57l49-43.38c1.86-1.65,1.89-4.54.07-6.23l-1.66-1.53c-5.79-5.36-14.65-5.63-20.76-.64l-24.79,20.25"/><path class="cls-1" d="M79.1,144.77h36.03c2.93,0,5.31-2.38,5.31-5.31h0c0-8.38-6.79-15.17-15.17-15.17h-25.03l-1.69-1.69c-8.14-8.14-21.28-8.34-29.67-.44l-24.11,22.71"/><rect class="cls-2" x="17.71" y="12" width="136.04" height="78.83" transform="translate(-6.38 12.58) rotate(-8.09)"/><line class="cls-2" x1="41.19" y1="58.26" x2="54.39" y2="56.39"/><line class="cls-2" x1="117.21" y1="47.46" x2="130.42" y2="45.58"/><path class="cls-2" d="M85.73,51.42c-4.6.65-8.82-2.3-9.43-6.59-.61-4.29,2.62-8.3,7.22-8.96,4.6-.65,8.82,2.3,9.43,6.59"/><line class="cls-2" x1="82.71" y1="30.2" x2="83.52" y2="35.87"/><path class="cls-2" d="M85.73,51.42c4.6-.65,8.82,2.3,9.43,6.59.61,4.29-2.62,8.3-7.22,8.96-4.6.65-8.82-2.3-9.43-6.59"/><line class="cls-2" x1="88.75" y1="72.63" x2="87.94" y2="66.96"/><path class="cls-2" d="M123.28,6.26c1.9,13.4,14.29,22.73,27.69,20.82"/><path class="cls-2" d="M134.37,84.32c-1.9-13.4,7.4-25.81,20.8-27.71"/><path class="cls-2" d="M16.3,46.23c13.38-1.9,22.7-14.31,20.8-27.71"/><path class="cls-2" d="M20.5,75.75c13.38-1.9,25.79,7.42,27.69,20.82"/></g></svg>