<?xml version="1.0" encoding="UTF-8"?><svg id="Layer_2" xmlns="http://www.w3.org/2000/svg" viewBox="0 0 342.97 433.91"><defs><style>.cls-1{fill:#003153;}.cls-2{fill:#457ff2;}</style></defs><g id="Layer_1-2"><path class="cls-1" d="M6.5,287.83c-2.83,0-5.44-1.87-6.25-4.73-.98-3.45,1.02-7.05,4.48-8.03,43.6-12.39,85.15-17.95,90.26-18.61l45.88-13.11c1.17-.33,2.41-.33,3.57,0l11.59,3.31c3.45.99,5.45,4.58,4.46,8.04-.99,3.45-4.58,5.45-8.04,4.46l-9.8-2.8-44.57,12.74c-.33.09-.66.16-1,.2-.43.05-43.48,5.4-88.8,18.28-.59.17-1.19.25-1.78.25Z"/><path class="cls-1" d="M124.58,302.86c-3.65,0-6.36-1.05-8.82-2-1.21-.47-2.36-.91-3.71-1.28-1.86-.5-3.41-1.8-4.22-3.54-1.92-4.13-3.73-10.35,2.6-16.61,1.92-1.9,3.83-3.54,5.68-5.12,2.93-2.52,5.71-4.9,7.93-7.87.83-1.11,1.8-2.77,2.82-4.53,2.8-4.82,5.98-10.28,11.02-13.03,6.94-3.78,16.18-.87,20.74,1.01,4.33-1.18,13.65-3.57,20.01-4,12.53-.86,71.03,17.57,84.51,21.87l56.34,4.82c3.58.31,6.23,3.45,5.92,7.03-.3,3.58-3.46,6.21-7.03,5.92l-57.06-4.88c-.49-.04-.96-.14-1.43-.29-28.84-9.24-72.85-22.04-80.36-21.5-5.76.39-16.09,3.14-19.58,4.17-1.58.46-3.27.31-4.74-.42-4.13-2.04-9.53-3.17-11.09-2.31-1.85,1.01-4.26,5.14-6.01,8.16-1.22,2.09-2.37,4.07-3.65,5.79-3.08,4.11-6.53,7.08-9.87,9.94-1.68,1.44-3.27,2.81-4.8,4.3.23.09.46.18.68.26,2.65,1.03,3.65,1.41,6.02.9,6.4-1.39,12.78-5.15,18.26-8.56.13-.08.26-.15.39-.22,2.8-1.49,4.34-3.4,4.69-5.85.52-3.55,3.81-6.02,7.37-5.5,3.55.52,6.01,3.81,5.5,7.37-.67,4.6-3.17,10.98-11.25,15.35-6.36,3.96-13.84,8.3-22.2,10.12-1.71.37-3.25.53-4.65.53Z"/><path class="cls-1" d="M188.19,432.79c-.73,0-1.44-.05-2.14-.16-.07-.01-.14-.02-.21-.04-18.68-3.62-25.96-11.08-26.73-11.92l9.59-8.78-.09-.1c.05.05,5.36,5.24,19.57,8.01,2.17.26,8.91-3.12,13.98-7.01,2.84-2.19,6.92-1.66,9.11,1.18,2.19,2.84,1.67,6.92-1.17,9.11-3.11,2.4-13.29,9.71-21.9,9.71Z"/><path class="cls-1" d="M14.3,387.22c-2.64,0-5.12-1.62-6.09-4.23-1.25-3.36.46-7.11,3.82-8.36,7.29-2.71,21.33-7.64,33.4-10.14,9.38-1.94,17.49-3.62,27.18,3.7,2.87,2.16,3.43,6.24,1.27,9.1-2.16,2.87-6.24,3.43-9.11,1.27-4.56-3.45-7.06-3.34-16.71-1.35-11.65,2.41-25.91,7.51-31.5,9.6-.75.28-1.51.41-2.27.41Z"/><path class="cls-1" d="M153.98,433.91c-3.55,0-6.96-.75-10.2-2.26-8.21-3.82-12.4-12.24-11.22-17.8.02-.15.04-.35.07-.57.2-1.67.57-4.78,1.81-7.83.34-.83.69-1.86,1.06-2.95,1.04-3.07,2.21-6.54,4.38-9.43,4.77-6.36,11.11-8.84,11.82-9.1.44-.16.89-.28,1.35-.34,1.11-.16,6.85-.77,11.07,2.48,3.27,2.51,5.56,7.02,6.19,8.35.4.84.61,1.75.62,2.67l.03,1.48c.07,3.2.15,6.83-.48,10.43-.56,3.18-1.61,5.64-2.66,7.78,2.14.12,4.19,1.3,5.32,3.31,1.76,3.13.64,7.09-2.49,8.85-5.86,3.29-11.44,4.93-16.69,4.93ZM145.4,415.86c.24.78,1.27,2.8,3.87,4,1.11.51,2.27.84,3.51.96-.16-1.07-.06-2.2.36-3.29.77-2.02,1.62-3.68,2.37-5.14,1.07-2.08,1.84-3.59,2.19-5.6.41-2.35.35-5.04.29-7.89-.55-.96-1.2-1.9-1.62-2.34-.22-.05-.54-.07-.82-.08-1.13.58-3.45,1.98-5.26,4.39-.92,1.23-1.74,3.65-2.46,5.79-.42,1.24-.85,2.52-1.34,3.72-.58,1.41-.79,3.23-.94,4.43-.04.38-.09.72-.13,1.05Z"/><path class="cls-1" d="M138.65,414.23c-.62,0-1.25-.09-1.87-.28-1.26-.38-7.71-2.42-11.47-5.63-2.73-2.33-3.05-6.44-.71-9.17,2.33-2.73,6.44-3.04,9.17-.71,1.09.94,4.38,2.34,6.75,3.06,3.43,1.04,5.38,4.67,4.34,8.1-.85,2.81-3.43,4.63-6.22,4.63Z"/><path class="cls-1" d="M123.34,425.37c-2.56,0-5.2-.41-7.89-1.23-10.71-3.3-19.64-12.75-20.33-21.5-.46-5.92,1.52-11.12,5.87-19.88,2.74-5.53,10.56-15.58,20.58-14.05,6.69,1.02,12.34,5.2,15.11,11.19,2.65,5.74,2.22,12.18-1.17,17.69-.74,1.19-1.43,2.45-2.16,3.79-.38.7-.76,1.39-1.15,2.08l-4.44,7.86c1.45-.73,2.78-1.83,3.97-3.32,2.25-2.8,6.34-3.25,9.14-1,2.8,2.25,3.25,6.34,1,9.14-4.86,6.06-11.36,9.23-18.52,9.23ZM119.49,381.55c-1.33,0-4.94,3.12-6.86,6.99-4.07,8.21-4.73,10.84-4.55,13.08.16,2.02,2.81,5.52,6.68,7.98,0-1.09.27-2.2.84-3.21l5.26-9.32c.36-.64.71-1.28,1.07-1.93.78-1.43,1.59-2.91,2.5-4.38,1.38-2.24,1-4.18.43-5.4-.93-2.01-2.9-3.43-5.27-3.8-.04,0-.07,0-.11,0Z"/><path class="cls-1" d="M101.8,397.95c-1.06,0-2.14-.26-3.13-.81l-8-4.42c-3.14-1.74-4.28-5.69-2.55-8.83,1.74-3.14,5.69-4.28,8.83-2.55l8,4.42c3.14,1.74,4.28,5.69,2.55,8.83-1.19,2.15-3.41,3.36-5.7,3.36Z"/><path class="cls-1" d="M88.72,409.89c-3.18,0-6.73-.27-10.36-1.06-12.88-2.78-15.59-8.62-17.79-15.97l-.03-.1c-2.63-8.76,1.31-25.14,13.46-30.86,6.55-3.08,11.84-2.05,15.13-.64,5.85,2.5,9.44,7.9,10.85,12.12,2.21,6.63-2.07,17.63-4.01,22.05-.15.33-.32.65-.51.95,1.56-.24,2.5-.47,2.53-.47,3.47-.89,7.02,1.2,7.91,4.68.89,3.48-1.2,7.02-4.68,7.91-.31.08-5.52,1.39-12.5,1.39ZM82.49,372.9c-.72,0-1.7.17-2.95.77-5.88,2.76-7.47,12.26-6.54,15.36l.03.1c1.43,4.76,1.68,5.62,8.09,7,1.24.27,2.48.45,3.69.58-1.34-1.81-1.71-4.28-.73-6.49,2.15-4.91,3.82-10.97,3.55-12.82-.55-1.56-1.95-3.48-3.6-4.18-.24-.1-.73-.31-1.52-.31Z"/><path class="cls-1" d="M272,381.85c-10.86,0-21.79-8.58-24.65-10.99-7.5-4.19-14.06-8.37-20.42-12.41-4.6-2.93-9.37-5.96-14.54-9.04-11.02-6.56-17.88-13.21-21.98-17.18-1.13-1.1-2.21-2.14-2.73-2.54-.92-.7-1.63-1.63-2.07-2.7-.27-.66-1.08-2.65-7.58-3.01-3.58-.2-6.33-3.26-6.14-6.84.2-3.58,3.27-6.34,6.84-6.14,8.96.49,15.06,3.67,18.15,9.46.77.69,1.6,1.5,2.57,2.43,3.93,3.81,9.87,9.56,19.58,15.34,5.35,3.18,10.19,6.26,14.88,9.24,6.65,4.23,12.93,8.23,20.33,12.34.41.23.79.5,1.14.81,4.61,4.04,13.56,9.39,18.13,8.03,1.87-.56,3.36-1.93,4.42-4.08,1.69-3.39,1.58-7.08,1.25-8.07-1.31-2.29-9.32-10.71-16.3-17.49-3.98-2.25-23.66-13.41-44.06-25.41-2.88-1.7-5.79-3.42-8.67-5.12-14.45-8.56-34.24-20.29-38.92-20.65-4.7-.27-7.24-.14-8.51,0-.36.32-.76.61-1.2.86-3.14,1.74-7.1.61-8.84-2.53-1.22-2.19-1.13-4.9.23-7.06,2.41-3.84,7.21-4.91,19.06-4.23,7.3.41,21.08,8.39,44.81,22.44,2.87,1.7,5.76,3.41,8.63,5.1,22.63,13.32,44.37,25.59,44.59,25.71.48.27.92.6,1.32.98,5.05,4.88,17.07,16.75,19.51,21.64,2.3,4.6,2.01,12.18-.7,18.44-2.6,6-7.19,10.24-12.91,11.94-1.72.51-3.47.73-5.23.74Z"/><path class="cls-1" d="M241.49,400.49c-1.95,0-3.54-.25-4.55-.4-11.55-1.78-36.64-18.81-42.28-22.71-4.89-2.72-9.41-5.81-13.79-8.79-2.88-1.96-5.86-3.99-8.83-5.84-3.05-1.89-3.99-5.9-2.09-8.95,1.9-3.05,5.9-3.98,8.95-2.09,3.21,1.99,6.3,4.1,9.29,6.14,4.41,3.01,8.58,5.85,13.05,8.32.19.11.38.22.56.35,11.52,8.01,30.62,19.73,37.01,20.71,2.99.46,6.27.96,9.69-3.93,3.61-5.16,2.06-9.82,1.99-10.02l.04.12,12.1-4.75c1.6,4.08,2.67,13.32-3.48,22.11-5.75,8.21-12.82,9.73-17.68,9.73Z"/><path class="cls-1" d="M336.47,371.77c-.41,0-.83-.04-1.25-.12-3.88-.76-8.48-1.56-12.54-2.28-6.39-1.12-9.8-1.73-11.28-2.16-5.63-1.66-10.52-1.69-16.18-1.73-1.96-.01-3.98-.03-6.15-.1-3.59-.13-6.39-3.14-6.26-6.73.13-3.59,3.18-6.4,6.73-6.26,1.98.07,3.91.08,5.77.09,6.37.04,12.39.08,19.77,2.26.97.27,5.89,1.13,9.84,1.83,4.12.72,8.78,1.54,12.78,2.32,3.52.69,5.82,4.1,5.14,7.62-.61,3.1-3.33,5.26-6.38,5.26Z"/><path class="cls-1" d="M213.58,422.39c-2.28,0-4.35-.23-6.01-.57-.7-.14-1.37-.4-1.99-.76l-28.7-16.83c-.21-.12-.42-.26-.61-.41l-4.56-3.42c-2.87-2.15-3.46-6.23-1.3-9.1,2.15-2.87,6.23-3.45,9.1-1.3l4.27,3.2,27.29,16.01c2.44.27,9.21.6,12.04-3.51,3.3-4.8.86-7.95.84-7.99-2.24-2.8-1.79-6.89,1.02-9.14,2.8-2.24,6.89-1.79,9.14,1.02,3.17,3.96,6.68,13.36-.28,23.47-5.02,7.3-13.51,9.33-20.23,9.33Z"/><path class="cls-1" d="M265.43,352.41c-.98,0-1.97-.22-2.9-.69-3.21-1.61-4.51-5.51-2.91-8.72.43-.86.27-3.85-.83-6.05-1.61-3.21-.31-7.11,2.9-8.72,3.21-1.61,7.11-.31,8.72,2.9,2.41,4.81,3.6,12.14.83,17.68-1.14,2.28-3.44,3.59-5.82,3.59Z"/><path class="cls-1" d="M289.52,185.79c-3.59,0-6.5-2.91-6.5-6.5v-1.56c0-3.59,2.91-6.5,6.5-6.5s6.5,2.91,6.5,6.5v1.56c0,3.59-2.91,6.5-6.5,6.5Z"/><path class="cls-1" d="M289.52,164.28c-3.59,0-6.5-2.91-6.5-6.5v-1.29c0-3.59,2.91-6.5,6.5-6.5s6.5,2.91,6.5,6.5v1.29c0,3.59-2.91,6.5-6.5,6.5Z"/><path class="cls-1" d="M289.52,141.21c-3.59,0-6.5-2.91-6.5-6.5v-24.79c0-3.59,2.91-6.5,6.5-6.5s6.5,2.91,6.5,6.5v24.79c0,3.59-2.91,6.5-6.5,6.5Z"/><path class="cls-1" d="M23.07,257.66c-3.59,0-6.5-2.91-6.5-6.5V6.5c0-3.59,2.91-6.5,6.5-6.5h266.45c3.59,0,6.5,2.91,6.5,6.5v98.25c0,3.59-2.91,6.5-6.5,6.5s-6.5-2.91-6.5-6.5V13H29.57v238.16c0,3.59-2.91,6.5-6.5,6.5Z"/><rect class="cls-1" x="61.15" y="196.89" width="38.18" height="12.35"/><rect class="cls-1" x="108.39" y="196.89" width="46.85" height="12.35"/><rect class="cls-1" x="165.94" y="196.89" width="43.09" height="12.35"/><rect class="cls-1" x="221.08" y="196.48" width="25.55" height="12.35"/><rect class="cls-1" x="62.49" y="162.33" width="183.73" height="13"/><path class="cls-1" d="M289.52,255.66c-3.59,0-6.5-2.91-6.5-6.5v-50.09c0-3.59,2.91-6.5,6.5-6.5s6.5,2.91,6.5,6.5v50.09c0,3.59-2.91,6.5-6.5,6.5Z"/><path class="cls-2" d="M155.05,120.18c-.24,0-.47,0-.71-.01-9.13-.29-17.4-5.91-20.59-13.98-1.32-3.34.32-7.11,3.66-8.43,3.34-1.32,7.12.32,8.43,3.66,1.25,3.16,5.08,5.64,8.91,5.76,2.69.11,4.53-.93,5.51-3.01.82-1.75.62-2.81.35-3.54-.87-2.33-4.21-5.08-8.52-7-4.62-2.07-12.66-6.69-14.55-14.47-.76-3.12-.79-7.94,3.38-13.16,3.64-4.55,9.07-7.29,14.54-7.34.04,0,.08,0,.12,0,3.75,0,9.19,1.26,14.05,7.16,2.28,2.77,1.88,6.87-.88,9.15-2.77,2.28-6.87,1.89-9.15-.88-2.01-2.44-3.53-2.44-4.04-2.43-1.75.01-3.51,1.24-4.48,2.45-.32.4-1.05,1.39-.9,1.98.32,1.33,2.96,3.76,7.21,5.67,4.51,2.01,12.51,6.55,15.4,14.35,1.62,4.37,1.36,9.08-.78,13.6-3.11,6.6-9.42,10.48-16.97,10.48Z"/><path class="cls-2" d="M154.18,127.09c-3.54,0-6.44-2.84-6.5-6.4,0,0-.03-1.83-.08-6.33-.04-3.59,2.84-6.53,6.43-6.57h.07c3.56,0,6.46,2.87,6.5,6.43.04,4.44.07,6.25.07,6.27.05,3.59-2.81,6.54-6.4,6.6-.04,0-.07,0-.1,0Z"/><path class="cls-2" d="M153.59,71.14c-3.56,0-6.46-2.87-6.5-6.44-.05-4.89-.08-6.84-.08-6.86-.06-3.59,2.81-6.54,6.4-6.6.03,0,.07,0,.1,0,3.54,0,6.44,2.84,6.5,6.4,0,0,.03,1.97.08,6.93.04,3.59-2.85,6.53-6.44,6.56h-.07Z"/><path class="cls-2" d="M153.58,142.65c-29.49,0-53.48-23.99-53.48-53.48s23.99-53.48,53.48-53.48,53.48,23.99,53.48,53.48-23.99,53.48-53.48,53.48ZM153.58,48.69c-22.32,0-40.48,18.16-40.48,40.48s18.16,40.48,40.48,40.48,40.48-18.16,40.48-40.48-18.16-40.48-40.48-40.48Z"/></g></svg>