<?xml version="1.0" encoding="UTF-8"?><svg id="Layer_2" xmlns="http://www.w3.org/2000/svg" viewBox="0 0 141.35 198.18"><defs><style>.cls-1{stroke:#003153;}.cls-1,.cls-2{fill:none;stroke-linecap:round;stroke-linejoin:round;stroke-width:5.64px;}.cls-2{stroke:#457ff2;}</style></defs><g id="Layer_1-2"><path class="cls-2" d="M70.67,42.29c-4.46,0-8.07-3.37-8.07-7.53s3.61-7.53,8.07-7.53,8.07,3.37,8.07,7.53"/><line class="cls-2" x1="70.67" y1="21.74" x2="70.67" y2="27.23"/><path class="cls-2" d="M70.67,42.29c4.46,0,8.07,3.37,8.07,7.53s-3.61,7.53-8.07,7.53-8.07-3.37-8.07-7.53"/><line class="cls-2" x1="70.67" y1="62.84" x2="70.67" y2="57.34"/><circle class="cls-2" cx="70.67" cy="42.29" r="39.46"/><path class="cls-1" d="M40.93,107.25c3.66-5.39,3.66-9.26,3.33-11.35-1.64-10.33-18.02-19.06-41.21-18.94"/><path class="cls-1" d="M40.93,107.25c-4.41,4.79-8.19,5.67-10.29,5.82-10.43.75-22.66-13.21-27.81-35.82"/><polyline class="cls-1" points="70.67 140.48 70.67 125.64 70.67 114.86 70.67 81.76"/><path class="cls-1" d="M31.21,100s20.07,20.22,39.46,14.85"/><path class="cls-1" d="M100.42,118.06c-.92-1.09-4.53-5.61-4.38-12.34.03-1.23.19-8.42,5.14-12.32,5.49-4.33,11.57-.43,24.72-2.35,5.28-.77,9.54-2.16,12.4-3.27"/><path class="cls-1" d="M100.42,118.06c4.41,4.79,8.19,5.67,10.29,5.82,10.43.75,22.66-13.21,27.81-35.82"/><path class="cls-1" d="M110.14,110.81s-20.07,20.22-39.46,14.85"/><rect class="cls-1" x="26.96" y="140.47" width="87.42" height="14.11"/><polygon class="cls-1" points="106.96 154.57 34.39 154.57 39.22 195.36 102.13 195.36 106.96 154.57"/></g></svg>